<svg id="mermaid-svg-280400" width="100%" xmlns="http://www.w3.org/2000/svg" class="flowchart" style="" viewBox="0 0 2202.0703125 1090.426513671875" role="graphics-document document" aria-roledescription="flowchart-v2"><style>#mermaid-svg-280400{font-family:"trebuchet ms",verdana,arial,sans-serif;font-size:16px;fill:#333;}@keyframes edge-animation-frame{from{stroke-dashoffset:0;}}@keyframes dash{to{stroke-dashoffset:0;}}#mermaid-svg-280400 .edge-animation-slow{stroke-dasharray:9,5!important;stroke-dashoffset:900;animation:dash 50s linear infinite;stroke-linecap:round;}#mermaid-svg-280400 .edge-animation-fast{stroke-dasharray:9,5!important;stroke-dashoffset:900;animation:dash 20s linear infinite;stroke-linecap:round;}#mermaid-svg-280400 .error-icon{fill:#552222;}#mermaid-svg-280400 .error-text{fill:#552222;stroke:#552222;}#mermaid-svg-280400 .edge-thickness-normal{stroke-width:1px;}#mermaid-svg-280400 .edge-thickness-thick{stroke-width:3.5px;}#mermaid-svg-280400 .edge-pattern-solid{stroke-dasharray:0;}#mermaid-svg-280400 .edge-thickness-invisible{stroke-width:0;fill:none;}#mermaid-svg-280400 .edge-pattern-dashed{stroke-dasharray:3;}#mermaid-svg-280400 .edge-pattern-dotted{stroke-dasharray:2;}#mermaid-svg-280400 .marker{fill:#333333;stroke:#333333;}#mermaid-svg-280400 .marker.cross{stroke:#333333;}#mermaid-svg-280400 svg{font-family:"trebuchet ms",verdana,arial,sans-serif;font-size:16px;}#mermaid-svg-280400 p{margin:0;}#mermaid-svg-280400 .label{font-family:"trebuchet ms",verdana,arial,sans-serif;color:#333;}#mermaid-svg-280400 .cluster-label text{fill:#333;}#mermaid-svg-280400 .cluster-label span{color:#333;}#mermaid-svg-280400 .cluster-label span p{background-color:transparent;}#mermaid-svg-280400 .label text,#mermaid-svg-280400 span{fill:#333;color:#333;}#mermaid-svg-280400 .node rect,#mermaid-svg-280400 .node circle,#mermaid-svg-280400 .node ellipse,#mermaid-svg-280400 .node polygon,#mermaid-svg-280400 .node path{fill:#ECECFF;stroke:#9370DB;stroke-width:1px;}#mermaid-svg-280400 .rough-node .label text,#mermaid-svg-280400 .node .label text,#mermaid-svg-280400 .image-shape .label,#mermaid-svg-280400 .icon-shape .label{text-anchor:middle;}#mermaid-svg-280400 .node .katex path{fill:#000;stroke:#000;stroke-width:1px;}#mermaid-svg-280400 .rough-node .label,#mermaid-svg-280400 .node .label,#mermaid-svg-280400 .image-shape .label,#mermaid-svg-280400 .icon-shape .label{text-align:center;}#mermaid-svg-280400 .node.clickable{cursor:pointer;}#mermaid-svg-280400 .root .anchor path{fill:#333333!important;stroke-width:0;stroke:#333333;}#mermaid-svg-280400 .arrowheadPath{fill:#333333;}#mermaid-svg-280400 .edgePath .path{stroke:#333333;stroke-width:1px;}#mermaid-svg-280400 .flowchart-link{stroke:#333333;fill:none;}#mermaid-svg-280400 .edgeLabel{background-color:rgba(232,232,232, 0.8);text-align:center;}#mermaid-svg-280400 .edgeLabel p{background-color:rgba(232,232,232, 0.8);}#mermaid-svg-280400 .edgeLabel rect{opacity:0.5;background-color:rgba(232,232,232, 0.8);fill:rgba(232,232,232, 0.8);}#mermaid-svg-280400 .labelBkg{background-color:rgba(232, 232, 232, 0.5);}#mermaid-svg-280400 .cluster rect{fill:#ffffde;stroke:#aaaa33;stroke-width:1px;}#mermaid-svg-280400 .cluster text{fill:#333;}#mermaid-svg-280400 .cluster span{color:#333;}#mermaid-svg-280400 div.mermaidTooltip{position:absolute;text-align:center;max-width:200px;padding:2px;font-family:"trebuchet ms",verdana,arial,sans-serif;font-size:12px;background:hsl(80, 100%, 96.2745098039%);border:1px solid #aaaa33;border-radius:2px;pointer-events:none;z-index:100;}#mermaid-svg-280400 .flowchartTitleText{text-anchor:middle;font-size:18px;fill:#333;}#mermaid-svg-280400 rect.text{fill:none;stroke-width:0;}#mermaid-svg-280400 .icon-shape,#mermaid-svg-280400 .image-shape{background-color:rgba(232,232,232, 0.8);text-align:center;}#mermaid-svg-280400 .icon-shape p,#mermaid-svg-280400 .image-shape p{background-color:rgba(232,232,232, 0.8);padding:2px;}#mermaid-svg-280400 .icon-shape .label rect,#mermaid-svg-280400 .image-shape .label rect{opacity:0.5;background-color:rgba(232,232,232, 0.8);fill:rgba(232,232,232, 0.8);}#mermaid-svg-280400 .label-icon{display:inline-block;height:1em;overflow:visible;vertical-align:-0.125em;}#mermaid-svg-280400 .node .label-icon path{fill:currentColor;stroke:revert;stroke-width:revert;}#mermaid-svg-280400 .node .neo-node{stroke:#9370DB;}#mermaid-svg-280400 [data-look="neo"].node rect,#mermaid-svg-280400 [data-look="neo"].cluster rect,#mermaid-svg-280400 [data-look="neo"].node polygon{stroke:#9370DB;filter:drop-shadow(1px 2px 2px rgba(185, 185, 185, 1));}#mermaid-svg-280400 [data-look="neo"].node path{stroke:#9370DB;stroke-width:1px;}#mermaid-svg-280400 [data-look="neo"].node .outer-path{filter:drop-shadow(1px 2px 2px rgba(185, 185, 185, 1));}#mermaid-svg-280400 [data-look="neo"].node .neo-line path{stroke:#9370DB;filter:none;}#mermaid-svg-280400 [data-look="neo"].node circle{stroke:#9370DB;filter:drop-shadow(1px 2px 2px rgba(185, 185, 185, 1));}#mermaid-svg-280400 [data-look="neo"].node circle .state-start{fill:#000000;}#mermaid-svg-280400 [data-look="neo"].icon-shape .icon{fill:#9370DB;filter:drop-shadow(1px 2px 2px rgba(185, 185, 185, 1));}#mermaid-svg-280400 [data-look="neo"].icon-shape .icon-neo path{stroke:#9370DB;filter:drop-shadow(1px 2px 2px rgba(185, 185, 185, 1));}#mermaid-svg-280400 :root{--mermaid-font-family:"trebuchet ms",verdana,arial,sans-serif;}</style><g><marker id="mermaid-svg-280400_flowchart-v2-pointEnd" class="marker flowchart-v2" viewBox="0 0 10 10" refX="5" refY="5" markerUnits="userSpaceOnUse" markerWidth="8" markerHeight="8" orient="auto"><path d="M 0 0 L 10 5 L 0 10 z" class="arrowMarkerPath" style="stroke-width: 1; stroke-dasharray: 1, 0;"></path></marker><marker id="mermaid-svg-280400_flowchart-v2-pointStart" class="marker flowchart-v2" viewBox="0 0 10 10" refX="4.5" refY="5" markerUnits="userSpaceOnUse" markerWidth="8" markerHeight="8" orient="auto"><path d="M 0 5 L 10 10 L 10 0 z" class="arrowMarkerPath" style="stroke-width: 1; stroke-dasharray: 1, 0;"></path></marker><marker id="mermaid-svg-280400_flowchart-v2-pointEnd-margin" class="marker flowchart-v2" viewBox="0 0 11.5 14" refX="11.5" refY="7" markerUnits="userSpaceOnUse" markerWidth="10.5" markerHeight="14" orient="auto"><path d="M 0 0 L 11.5 7 L 0 14 z" class="arrowMarkerPath" style="stroke-width: 0; stroke-dasharray: 1, 0;"></path></marker><marker id="mermaid-svg-280400_flowchart-v2-pointStart-margin" class="marker flowchart-v2" viewBox="0 0 11.5 14" refX="1" refY="7" markerUnits="userSpaceOnUse" markerWidth="11.5" markerHeight="14" orient="auto"><polygon points="0,7 11.5,14 11.5,0" class="arrowMarkerPath" style="stroke-width: 0; stroke-dasharray: 1, 0;"></polygon></marker><marker id="mermaid-svg-280400_flowchart-v2-circleEnd" class="marker flowchart-v2" viewBox="0 0 10 10" refX="11" refY="5" markerUnits="userSpaceOnUse" markerWidth="11" markerHeight="11" orient="auto"><circle cx="5" cy="5" r="5" class="arrowMarkerPath" style="stroke-width: 1; stroke-dasharray: 1, 0;"></circle></marker><marker id="mermaid-svg-280400_flowchart-v2-circleStart" class="marker flowchart-v2" viewBox="0 0 10 10" refX="-1" refY="5" markerUnits="userSpaceOnUse" markerWidth="11" markerHeight="11" orient="auto"><circle cx="5" cy="5" r="5" class="arrowMarkerPath" style="stroke-width: 1; stroke-dasharray: 1, 0;"></circle></marker><marker id="mermaid-svg-280400_flowchart-v2-circleEnd-margin" class="marker flowchart-v2" viewBox="0 0 10 10" refY="5" refX="12.25" markerUnits="userSpaceOnUse" markerWidth="14" markerHeight="14" orient="auto"><circle cx="5" cy="5" r="5" class="arrowMarkerPath" style="stroke-width: 0; stroke-dasharray: 1, 0;"></circle></marker><marker id="mermaid-svg-280400_flowchart-v2-circleStart-margin" class="marker flowchart-v2" viewBox="0 0 10 10" refX="-2" refY="5" markerUnits="userSpaceOnUse" markerWidth="14" markerHeight="14" orient="auto"><circle cx="5" cy="5" r="5" class="arrowMarkerPath" style="stroke-width: 0; stroke-dasharray: 1, 0;"></circle></marker><marker id="mermaid-svg-280400_flowchart-v2-crossEnd" class="marker cross flowchart-v2" viewBox="0 0 11 11" refX="12" refY="5.2" markerUnits="userSpaceOnUse" markerWidth="11" markerHeight="11" orient="auto"><path d="M 1,1 l 9,9 M 10,1 l -9,9" class="arrowMarkerPath" style="stroke-width: 2; stroke-dasharray: 1, 0;"></path></marker><marker id="mermaid-svg-280400_flowchart-v2-crossStart" class="marker cross flowchart-v2" viewBox="0 0 11 11" refX="-1" refY="5.2" markerUnits="userSpaceOnUse" markerWidth="11" markerHeight="11" orient="auto"><path d="M 1,1 l 9,9 M 10,1 l -9,9" class="arrowMarkerPath" style="stroke-width: 2; stroke-dasharray: 1, 0;"></path></marker><marker id="mermaid-svg-280400_flowchart-v2-crossEnd-margin" class="marker cross flowchart-v2" viewBox="0 0 15 15" refX="17.7" refY="7.5" markerUnits="userSpaceOnUse" markerWidth="12" markerHeight="12" orient="auto"><path d="M 1,1 L 14,14 M 1,14 L 14,1" class="arrowMarkerPath" style="stroke-width: 2.5;"></path></marker><marker id="mermaid-svg-280400_flowchart-v2-crossStart-margin" class="marker cross flowchart-v2" viewBox="0 0 15 15" refX="-3.5" refY="7.5" markerUnits="userSpaceOnUse" markerWidth="12" markerHeight="12" orient="auto"><path d="M 1,1 L 14,14 M 1,14 L 14,1" class="arrowMarkerPath" style="stroke-width: 2.5; stroke-dasharray: 1, 0;"></path></marker><g class="root"><g class="clusters"><g class="cluster " id="mermaid-svg-280400-CORE" data-look="classic"><rect style="" x="8" y="8" width="1558.21875" height="729"></rect><g class="cluster-label " transform="translate(728.875, 8)"><foreignObject width="116.46875" height="24"><div style="display: table-cell; white-space: nowrap; line-height: 1.5;" xmlns="http://www.w3.org/1999/xhtml"><span class="nodeLabel "><p>Tauri core (Rust)</p></span></div></foreignObject></g></g><g class="cluster " id="mermaid-svg-280400-FE" data-look="classic"><rect style="" x="1864.0703125" y="8" width="330" height="376"></rect><g class="cluster-label " transform="translate(1891.96484375, 8)"><foreignObject width="274.2109375" height="24"><div style="display: table-cell; white-space: nowrap; line-height: 1.5;" xmlns="http://www.w3.org/1999/xhtml"><span class="nodeLabel "><p>Vue 3 frontend — Vite · Pinia · Chart.js</p></span></div></foreignObject></g></g></g><g class="edgePaths"><path d="M2029.07,187L2029.07,194.5C2029.07,202,2029.07,217,2029.07,232C2029.07,247,2029.07,262,2029.07,269.5L2029.07,277" id="mermaid-svg-280400-L_Views_Stores_0" class=" edge-thickness-normal edge-pattern-solid edge-thickness-normal edge-pattern-solid flowchart-link" style=";" data-edge="true" data-et="edge" data-id="L_Views_Stores_0" data-points="W3sieCI6MjAyOS4wNzAzMTI1LCJ5IjoxODN9LHsieCI6MjAyOS4wNzAzMTI1LCJ5IjoyMzJ9LHsieCI6MjAyOS4wNzAzMTI1LCJ5IjoyODF9XQ==" data-look="classic" marker-start="url(#mermaid-svg-280400_flowchart-v2-pointStart)" marker-end="url(#mermaid-svg-280400_flowchart-v2-pointEnd)"></path><path d="M846.979,523.377L754.112,533.648C661.246,543.918,475.514,564.459,373.375,580.542C271.236,596.625,252.691,608.25,243.419,614.063L234.146,619.875" id="mermaid-svg-280400-L_Commands_Lifecycle_0" class=" edge-thickness-normal edge-pattern-solid edge-thickness-normal edge-pattern-solid flowchart-link" style=";" data-edge="true" data-et="edge" data-id="L_Commands_Lifecycle_0" data-points="W3sieCI6ODQ2Ljk3ODUxNTYyNSwieSI6NTIzLjM3NzIzOTk3NzgzMTF9LHsieCI6Mjg5Ljc4MTI1LCJ5Ijo1ODV9LHsieCI6MjMwLjc1NzM0OTkxNzc2MzE1LCJ5Ijo2MjJ9XQ==" data-look="classic" marker-end="url(#mermaid-svg-280400_flowchart-v2-pointEnd)"></path><path d="M982.194,560L982.62,564.167C983.046,568.333,983.898,576.667,984.324,584.333C984.75,592,984.75,599,984.75,602.5L984.75,606" id="mermaid-svg-280400-L_Commands_Validate_0" class=" edge-thickness-normal edge-pattern-solid edge-thickness-normal edge-pattern-solid flowchart-link" style=";" data-edge="true" data-et="edge" data-id="L_Commands_Validate_0" data-points="W3sieCI6OTgyLjE5MzU5MDY2NjExODQsInkiOjU2MH0seyJ4Ijo5ODQuNzUsInkiOjU4NX0seyJ4Ijo5ODQuNzUsInkiOjYxMH1d" data-look="classic" marker-end="url(#mermaid-svg-280400_flowchart-v2-pointEnd)"></path><path d="M1106.979,548.315L1127.196,554.429C1147.413,560.543,1187.847,572.772,1208.064,584.386C1228.281,596,1228.281,607,1228.281,612.5L1228.281,618" id="mermaid-svg-280400-L_Commands_Tagger_0" class=" edge-thickness-normal edge-pattern-solid edge-thickness-normal edge-pattern-solid flowchart-link" style=";" data-edge="true" data-et="edge" data-id="L_Commands_Tagger_0" data-points="W3sieCI6MTEwNi45Nzg1MTU2MjUsInkiOjU0OC4zMTUxMzEzMDc5NX0seyJ4IjoxMjI4LjI4MTI1LCJ5Ijo1ODV9LHsieCI6MTIyOC4yODEyNSwieSI6NjIyfV0=" data-look="classic" marker-end="url(#mermaid-svg-280400_flowchart-v2-pointEnd)"></path><path d="M1106.979,530.5L1161.901,539.583C1216.824,548.667,1326.67,566.833,1381.593,581.417C1436.516,596,1436.516,607,1436.516,612.5L1436.516,618" id="mermaid-svg-280400-L_Commands_Net_0" class=" edge-thickness-normal edge-pattern-solid edge-thickness-normal edge-pattern-solid flowchart-link" style=";" data-edge="true" data-et="edge" data-id="L_Commands_Net_0" data-points="W3sieCI6MTEwNi45Nzg1MTU2MjUsInkiOjUzMC40OTk4OTU4NzAwNzk5fSx7IngiOjE0MzYuNTE1NjI1LCJ5Ijo1ODV9LHsieCI6MTQzNi41MTU2MjUsInkiOjYyMn1d" data-look="classic" marker-end="url(#mermaid-svg-280400_flowchart-v2-pointEnd)"></path><path d="M881.118,560L873.286,564.167C865.454,568.333,849.791,576.667,831.936,586.665C814.082,596.663,794.037,608.326,784.014,614.157L773.992,619.988" id="mermaid-svg-280400-L_Commands_Db_0" class=" edge-thickness-normal edge-pattern-solid edge-thickness-normal edge-pattern-solid flowchart-link" style=";" data-edge="true" data-et="edge" data-id="L_Commands_Db_0" data-points="W3sieCI6ODgxLjExNzU5ODY4NDIxMDUsInkiOjU2MH0seyJ4Ijo4MzQuMTI2OTUzMTI1LCJ5Ijo1ODV9LHsieCI6NzcwLjUzNDE1Mzk4ODQ4NjksInkiOjYyMn1d" data-look="classic" marker-end="url(#mermaid-svg-280400_flowchart-v2-pointEnd)"></path><path d="M846.979,532.54L798.692,541.283C750.406,550.026,653.834,567.513,595.876,582.079C537.917,596.646,518.573,608.291,508.901,614.114L499.229,619.937" id="mermaid-svg-280400-L_Commands_Aria2_0" class=" edge-thickness-normal edge-pattern-solid edge-thickness-normal edge-pattern-solid flowchart-link" style=";" data-edge="true" data-et="edge" data-id="L_Commands_Aria2_0" data-points="W3sieCI6ODQ2Ljk3ODUxNTYyNSwieSI6NTMyLjUzOTY4MjE3MDM2MjN9LHsieCI6NTU3LjI2MTcxODc1LCJ5Ijo1ODV9LHsieCI6NDk1LjgwMTcwNjQxNDQ3MzcsInkiOjYyMn1d" data-look="classic" marker-end="url(#mermaid-svg-280400_flowchart-v2-pointEnd)"></path><path d="M373.371,147.793L327.521,161.827C281.671,175.862,189.971,203.931,144.121,232.632C98.271,261.333,98.271,290.667,98.271,316C98.271,341.333,98.271,362.667,98.271,379.5C98.271,396.333,98.271,408.667,98.271,429.5C98.271,450.333,98.271,479.667,98.271,507C98.271,534.333,98.271,559.667,103.521,578.011C108.77,596.354,119.269,607.709,124.518,613.386L129.767,619.063" id="mermaid-svg-280400-L_Poller_Lifecycle_0" class=" edge-thickness-normal edge-pattern-solid edge-thickness-normal edge-pattern-solid flowchart-link" style=";" data-edge="true" data-et="edge" data-id="L_Poller_Lifecycle_0" data-points="W3sieCI6MzczLjM3MTA5Mzc1LCJ5IjoxNDcuNzkyNjgyMTYyNDY5N30seyJ4Ijo5OC4yNzE0ODQzNzUsInkiOjIzMn0seyJ4Ijo5OC4yNzE0ODQzNzUsInkiOjMyMH0seyJ4Ijo5OC4yNzE0ODQzNzUsInkiOjM4NH0seyJ4Ijo5OC4yNzE0ODQzNzUsInkiOjQyMX0seyJ4Ijo5OC4yNzE0ODQzNzUsInkiOjUwOX0seyJ4Ijo5OC4yNzE0ODQzNzUsInkiOjU4NX0seyJ4IjoxMzIuNDgyNjAxNzY4MDkyMSwieSI6NjIyfV0=" data-look="classic" marker-end="url(#mermaid-svg-280400_flowchart-v2-pointEnd)"></path><path d="M423.749,159L404.755,171.167C385.76,183.333,347.771,207.667,328.776,234.5C309.781,261.333,309.781,290.667,309.781,316C309.781,341.333,309.781,362.667,309.781,379.5C309.781,396.333,309.781,408.667,309.781,429.5C309.781,450.333,309.781,479.667,309.781,507C309.781,534.333,309.781,559.667,319.054,578.146C328.326,596.625,346.871,608.25,356.144,614.063L365.416,619.875" id="mermaid-svg-280400-L_Poller_Aria2_0" class=" edge-thickness-normal edge-pattern-solid edge-thickness-normal edge-pattern-solid flowchart-link" style=";" data-edge="true" data-et="edge" data-id="L_Poller_Aria2_0" data-points="W3sieCI6NDIzLjc0OTQ2NDQ2NTcyNTgsInkiOjE1OX0seyJ4IjozMDkuNzgxMjUsInkiOjIzMn0seyJ4IjozMDkuNzgxMjUsInkiOjMyMH0seyJ4IjozMDkuNzgxMjUsInkiOjM4NH0seyJ4IjozMDkuNzgxMjUsInkiOjQyMX0seyJ4IjozMDkuNzgxMjUsInkiOjUwOX0seyJ4IjozMDkuNzgxMjUsInkiOjU4NX0seyJ4IjozNjguODA1MTUwMDgyMjM2OCwieSI6NjIyfV0=" data-look="classic" marker-end="url(#mermaid-svg-280400_flowchart-v2-pointEnd)"></path><path d="M533.762,159L541.012,171.167C548.262,183.333,562.762,207.667,570.012,234.5C577.262,261.333,577.262,290.667,577.262,316C577.262,341.333,577.262,362.667,577.262,379.5C577.262,396.333,577.262,408.667,577.262,429.5C577.262,450.333,577.262,479.667,577.262,507C577.262,534.333,577.262,559.667,586.934,578.156C596.606,596.646,615.95,608.291,625.623,614.114L635.295,619.937" id="mermaid-svg-280400-L_Poller_Db_0" class=" edge-thickness-normal edge-pattern-solid edge-thickness-normal edge-pattern-solid flowchart-link" style=";" data-edge="true" data-et="edge" data-id="L_Poller_Db_0" data-points="W3sieCI6NTMzLjc2MTU5Mjc0MTkzNTUsInkiOjE1OX0seyJ4Ijo1NzcuMjYxNzE4NzUsInkiOjIzMn0seyJ4Ijo1NzcuMjYxNzE4NzUsInkiOjMyMH0seyJ4Ijo1NzcuMjYxNzE4NzUsInkiOjM4NH0seyJ4Ijo1NzcuMjYxNzE4NzUsInkiOjQyMX0seyJ4Ijo1NzcuMjYxNzE4NzUsInkiOjUwOX0seyJ4Ijo1NzcuMjYxNzE4NzUsInkiOjU4NX0seyJ4Ijo2MzguNzIxNzMxMDg1NTI2NCwieSI6NjIyfV0=" data-look="classic" marker-end="url(#mermaid-svg-280400_flowchart-v2-pointEnd)"></path><path d="M2029.07,359L2029.07,363.167C2029.07,367.333,2029.07,375.667,1853.722,386C1678.373,396.333,1327.676,408.667,1152.327,420.333C976.979,432,976.979,443,976.979,448.5L976.979,454" id="mermaid-svg-280400-L_Stores_Commands_0" class=" edge-thickness-normal edge-pattern-solid edge-thickness-normal edge-pattern-solid flowchart-link" style=";" data-edge="true" data-et="edge" data-id="L_Stores_Commands_0" data-points="W3sieCI6MjAyOS4wNzAzMTI1LCJ5IjozNTl9LHsieCI6MjAyOS4wNzAzMTI1LCJ5IjozODR9LHsieCI6OTc2Ljk3ODUxNTYyNSwieSI6NDIxfSx7IngiOjk3Ni45Nzg1MTU2MjUsInkiOjQ1OH1d" data-look="classic" marker-end="url(#mermaid-svg-280400_flowchart-v2-pointEnd)"></path><path d="M633.371,139.286L697.579,154.738C761.787,170.191,890.203,201.095,1103.873,229.564C1317.543,258.033,1616.466,284.066,1765.928,297.083L1915.39,310.1" id="mermaid-svg-280400-L_Poller_Stores_0" class=" edge-thickness-normal edge-pattern-solid edge-thickness-normal edge-pattern-solid flowchart-link" style=";" data-edge="true" data-et="edge" data-id="L_Poller_Stores_0" data-points="W3sieCI6NjMzLjM3MTA5Mzc1LCJ5IjoxMzkuMjg1OTAyMTkzNjQ5MTV9LHsieCI6MTAxOC42MTkxNDA2MjUsInkiOjIzMn0seyJ4IjoxOTE5LjM3NSwieSI6MzEwLjQ0NjY1NjEzODY3NTd9XQ==" data-look="classic" marker-end="url(#mermaid-svg-280400_flowchart-v2-pointEnd)"></path><path d="M431.02,700L431.02,706.167C431.02,712.333,431.02,724.667,431.02,737C431.02,749.333,431.02,761.667,431.02,778.036C431.02,794.404,431.02,814.809,431.02,825.011L431.02,835.213" id="mermaid-svg-280400-L_Aria2_aria2c_0" class=" edge-thickness-normal edge-pattern-solid edge-thickness-normal edge-pattern-solid flowchart-link" style=";" data-edge="true" data-et="edge" data-id="L_Aria2_aria2c_0" data-points="W3sieCI6NDMxLjAxOTUzMTI1LCJ5Ijo3MDB9LHsieCI6NDMxLjAxOTUzMTI1LCJ5Ijo3Mzd9LHsieCI6NDMxLjAxOTUzMTI1LCJ5Ijo3NzR9LHsieCI6NDMxLjAxOTUzMTI1LCJ5Ijo4MzkuMjEzMjQxNTc3MTQ4NH1d" data-look="classic" marker-end="url(#mermaid-svg-280400_flowchart-v2-pointEnd)"></path><path d="M703.504,700L703.504,706.167C703.504,712.333,703.504,724.667,703.504,737C703.504,749.333,703.504,761.667,703.504,774C703.504,786.333,703.504,798.667,703.504,804.833L703.504,811" id="mermaid-svg-280400-L_Db_sqlite_0" class=" edge-thickness-normal edge-pattern-solid edge-thickness-normal edge-pattern-solid flowchart-link" style=";" data-edge="true" data-et="edge" data-id="L_Db_sqlite_0" data-points="W3sieCI6NzAzLjUwMzkwNjI1LCJ5Ijo3MDB9LHsieCI6NzAzLjUwMzkwNjI1LCJ5Ijo3Mzd9LHsieCI6NzAzLjUwMzkwNjI1LCJ5Ijo3NzR9LHsieCI6NzAzLjUwMzkwNjI1LCJ5Ijo4MTF9XQ==" data-look="classic"></path><path d="M633.371,148.785L677.579,162.654C721.787,176.523,810.203,204.262,970.848,230.68C1131.493,257.098,1364.368,282.195,1480.805,294.744L1597.242,307.293" id="mermaid-svg-280400-L_Poller_tray_0" class=" edge-thickness-normal edge-pattern-solid edge-thickness-normal edge-pattern-solid flowchart-link" style=";" data-edge="true" data-et="edge" data-id="L_Poller_tray_0" data-points="W3sieCI6NjMzLjM3MTA5Mzc1LCJ5IjoxNDguNzg0NTE1MjYxODc1N30seyJ4Ijo4OTguNjE5MTQwNjI1LCJ5IjoyMzJ9LHsieCI6MTYwMS4yMTg3NSwieSI6MzA3LjcyMTc5MTc5NTkzNDF9XQ==" data-look="classic" marker-end="url(#mermaid-svg-280400_flowchart-v2-pointEnd)"></path><path d="M1436.516,700L1436.516,706.167C1436.516,712.333,1436.516,724.667,1436.516,737C1436.516,749.333,1436.516,761.667,1436.516,787.202C1436.516,812.738,1436.516,851.475,1436.516,890.213C1436.516,928.951,1436.516,967.689,1365.456,994.897C1294.397,1022.106,1152.279,1037.785,1081.22,1045.625L1010.161,1053.465" id="mermaid-svg-280400-L_Net_web_0" class=" edge-thickness-normal edge-pattern-solid edge-thickness-normal edge-pattern-solid flowchart-link" style=";" data-edge="true" data-et="edge" data-id="L_Net_web_0" data-points="W3sieCI6MTQzNi41MTU2MjUsInkiOjcwMH0seyJ4IjoxNDM2LjUxNTYyNSwieSI6NzM3fSx7IngiOjE0MzYuNTE1NjI1LCJ5Ijo3NzR9LHsieCI6MTQzNi41MTU2MjUsInkiOjg5MC4yMTMyNDE1NzcxNDg0fSx7IngiOjE0MzYuNTE1NjI1LCJ5IjoxMDA2LjQyNjQ4MzE1NDI5Njl9LHsieCI6MTAwNi4xODQ3Njg2MTMwNTQ1LCJ5IjoxMDUzLjkwMzQxODkyMzk1NDJ9XQ==" data-look="classic" marker-end="url(#mermaid-svg-280400_flowchart-v2-pointEnd)"></path><path d="M431.02,941.213L431.02,952.082C431.02,962.951,431.02,984.689,497.159,1003.299C563.298,1021.909,695.577,1037.391,761.717,1045.132L827.856,1052.873" id="mermaid-svg-280400-L_aria2c_web_0" class=" edge-thickness-normal edge-pattern-solid edge-thickness-normal edge-pattern-solid flowchart-link" style=";" data-edge="true" data-et="edge" data-id="L_aria2c_web_0" data-points="W3sieCI6NDMxLjAxOTUzMTI1LCJ5Ijo5NDEuMjEzMjQxNTc3MTQ4NH0seyJ4Ijo0MzEuMDE5NTMxMjUsInkiOjEwMDYuNDI2NDgzMTU0Mjk2OX0seyJ4Ijo4MzEuODI5MTQ1ODI5ODMwNywieSI6MTA1My4zMzc3MDM5Nzk2MDk0fV0=" data-look="classic" marker-end="url(#mermaid-svg-280400_flowchart-v2-pointEnd)"></path></g><g class="edgeLabels"><g class="edgeLabel"><g class="label" data-id="L_Views_Stores_0" transform="translate(0, 0)"><foreignObject width="0" height="0"><div style="display: table-cell; white-space: nowrap; line-height: 1.5; max-width: 200px; text-align: center;" xmlns="http://www.w3.org/1999/xhtml" class="labelBkg"><span class="edgeLabel "></span></div></foreignObject></g></g><g class="edgeLabel"><g class="label" data-id="L_Commands_Lifecycle_0" transform="translate(0, 0)"><foreignObject width="0" height="0"><div style="display: table-cell; white-space: nowrap; line-height: 1.5; max-width: 200px; text-align: center;" xmlns="http://www.w3.org/1999/xhtml" class="labelBkg"><span class="edgeLabel "></span></div></foreignObject></g></g><g class="edgeLabel"><g class="label" data-id="L_Commands_Validate_0" transform="translate(0, 0)"><foreignObject width="0" height="0"><div style="display: table-cell; white-space: nowrap; line-height: 1.5; max-width: 200px; text-align: center;" xmlns="http://www.w3.org/1999/xhtml" class="labelBkg"><span class="edgeLabel "></span></div></foreignObject></g></g><g class="edgeLabel"><g class="label" data-id="L_Commands_Tagger_0" transform="translate(0, 0)"><foreignObject width="0" height="0"><div style="display: table-cell; white-space: nowrap; line-height: 1.5; max-width: 200px; text-align: center;" xmlns="http://www.w3.org/1999/xhtml" class="labelBkg"><span class="edgeLabel "></span></div></foreignObject></g></g><g class="edgeLabel"><g class="label" data-id="L_Commands_Net_0" transform="translate(0, 0)"><foreignObject width="0" height="0"><div style="display: table-cell; white-space: nowrap; line-height: 1.5; max-width: 200px; text-align: center;" xmlns="http://www.w3.org/1999/xhtml" class="labelBkg"><span class="edgeLabel "></span></div></foreignObject></g></g><g class="edgeLabel"><g class="label" data-id="L_Commands_Db_0" transform="translate(0, 0)"><foreignObject width="0" height="0"><div style="display: table-cell; white-space: nowrap; line-height: 1.5; max-width: 200px; text-align: center;" xmlns="http://www.w3.org/1999/xhtml" class="labelBkg"><span class="edgeLabel "></span></div></foreignObject></g></g><g class="edgeLabel"><g class="label" data-id="L_Commands_Aria2_0" transform="translate(0, 0)"><foreignObject width="0" height="0"><div style="display: table-cell; white-space: nowrap; line-height: 1.5; max-width: 200px; text-align: center;" xmlns="http://www.w3.org/1999/xhtml" class="labelBkg"><span class="edgeLabel "></span></div></foreignObject></g></g><g class="edgeLabel"><g class="label" data-id="L_Poller_Lifecycle_0" transform="translate(0, 0)"><foreignObject width="0" height="0"><div style="display: table-cell; white-space: nowrap; line-height: 1.5; max-width: 200px; text-align: center;" xmlns="http://www.w3.org/1999/xhtml" class="labelBkg"><span class="edgeLabel "></span></div></foreignObject></g></g><g class="edgeLabel"><g class="label" data-id="L_Poller_Aria2_0" transform="translate(0, 0)"><foreignObject width="0" height="0"><div style="display: table-cell; white-space: nowrap; line-height: 1.5; max-width: 200px; text-align: center;" xmlns="http://www.w3.org/1999/xhtml" class="labelBkg"><span class="edgeLabel "></span></div></foreignObject></g></g><g class="edgeLabel"><g class="label" data-id="L_Poller_Db_0" transform="translate(0, 0)"><foreignObject width="0" height="0"><div style="display: table-cell; white-space: nowrap; line-height: 1.5; max-width: 200px; text-align: center;" xmlns="http://www.w3.org/1999/xhtml" class="labelBkg"><span class="edgeLabel "></span></div></foreignObject></g></g><g class="edgeLabel" transform="translate(976.978515625, 421)"><g class="label" data-id="L_Stores_Commands_0" transform="translate(-70.40234375, -12)"><foreignObject width="140.8046875" height="24"><div style="display: table-cell; white-space: nowrap; line-height: 1.5; max-width: 200px; text-align: center;" xmlns="http://www.w3.org/1999/xhtml" class="labelBkg"><span class="edgeLabel "><p>invoke (commands)</p></span></div></foreignObject></g></g><g class="edgeLabel" transform="translate(1271.6205, 254.03384)"><g class="label" data-id="L_Poller_Stores_0" transform="translate(-100, -24)"><foreignObject width="200" height="48"><div style="display: table; white-space: break-spaces; line-height: 1.5; max-width: 200px; text-align: center; width: 200px;" xmlns="http://www.w3.org/1999/xhtml" class="labelBkg"><span class="edgeLabel "><p>emit: job-updated / job-added / poll-tick / aria2-*</p></span></div></foreignObject></g></g><g class="edgeLabel" transform="translate(431.01953125, 774)"><g class="label" data-id="L_Aria2_aria2c_0" transform="translate(-87.48046875, -12)"><foreignObject width="174.9609375" height="24"><div style="display: table-cell; white-space: nowrap; line-height: 1.5; max-width: 200px; text-align: center;" xmlns="http://www.w3.org/1999/xhtml" class="labelBkg"><span class="edgeLabel "><p>HTTP JSON-RPC + secret</p></span></div></foreignObject></g></g><g class="edgeLabel"><g class="label" data-id="L_Db_sqlite_0" transform="translate(0, 0)"><foreignObject width="0" height="0"><div style="display: table-cell; white-space: nowrap; line-height: 1.5; max-width: 200px; text-align: center;" xmlns="http://www.w3.org/1999/xhtml" class="labelBkg"><span class="edgeLabel "></span></div></foreignObject></g></g><g class="edgeLabel"><g class="label" data-id="L_Poller_tray_0" transform="translate(0, 0)"><foreignObject width="0" height="0"><div style="display: table-cell; white-space: nowrap; line-height: 1.5; max-width: 200px; text-align: center;" xmlns="http://www.w3.org/1999/xhtml" class="labelBkg"><span class="edgeLabel "></span></div></foreignObject></g></g><g class="edgeLabel" transform="translate(1436.515625, 890.2132415771484)"><g class="label" data-id="L_Net_web_0" transform="translate(-88.7109375, -12)"><foreignObject width="177.421875" height="24"><div style="display: table-cell; white-space: nowrap; line-height: 1.5; max-width: 200px; text-align: center;" xmlns="http://www.w3.org/1999/xhtml" class="labelBkg"><span class="edgeLabel "><p>GET .torrent (10 MB cap)</p></span></div></foreignObject></g></g><g class="edgeLabel" transform="translate(431.01953125, 1006.4264831542969)"><g class="label" data-id="L_aria2c_web_0" transform="translate(-35.66015625, -12)"><foreignObject width="71.3203125" height="24"><div style="display: table-cell; white-space: nowrap; line-height: 1.5; max-width: 200px; text-align: center;" xmlns="http://www.w3.org/1999/xhtml" class="labelBkg"><span class="edgeLabel "><p>download</p></span></div></foreignObject></g></g></g><g class="nodes"><g class="node default  " id="mermaid-svg-280400-flowchart-Stores-0" data-look="classic" transform="translate(2029.0703125, 320)"><rect class="basic label-container" style="" x="-109.6953125" y="-39" width="219.390625" height="78"></rect><g class="label" style="" transform="translate(-79.6953125, -24)"><rect></rect><foreignObject width="159.390625" height="48"><div style="display: table-cell; white-space: nowrap; line-height: 1.5; max-width: 200px; text-align: center;" xmlns="http://www.w3.org/1999/xhtml"><span class="nodeLabel "><p>Pinia stores<br/>queue · tags · settings</p></span></div></foreignObject></g></g><g class="node default  " id="mermaid-svg-280400-flowchart-Views-1" data-look="classic" transform="translate(2029.0703125, 108)"><rect class="basic label-container" style="" x="-130" y="-75" width="260" height="150"></rect><g class="label" style="" transform="translate(-100, -60)"><rect></rect><foreignObject width="200" height="120"><div style="display: table; white-space: break-spaces; line-height: 1.5; max-width: 200px; text-align: center; width: 200px;" xmlns="http://www.w3.org/1999/xhtml"><span class="nodeLabel "><p>Components<br/>Sidebar · Toolbar · QueueList<br/>JobDashboard · Dialogs · Settings</p></span></div></foreignObject></g></g><g class="node default  " id="mermaid-svg-280400-flowchart-Commands-4" data-look="classic" transform="translate(976.978515625, 509)"><rect class="basic label-container" style="" x="-130" y="-51" width="260" height="102"></rect><g class="label" style="" transform="translate(-100, -36)"><rect></rect><foreignObject width="200" height="72"><div style="display: table; white-space: break-spaces; line-height: 1.5; max-width: 200px; text-align: center; width: 200px;" xmlns="http://www.w3.org/1999/xhtml"><span class="nodeLabel "><p>commands/<br/>queue · batch · hooks · settings</p></span></div></foreignObject></g></g><g class="node default  " id="mermaid-svg-280400-flowchart-Poller-5" data-look="classic" transform="translate(503.37109375, 108)"><rect class="basic label-container" style="" x="-130" y="-51" width="260" height="102"></rect><g class="label" style="" transform="translate(-100, -36)"><rect></rect><foreignObject width="200" height="72"><div style="display: table; white-space: break-spaces; line-height: 1.5; max-width: 200px; text-align: center; width: 200px;" xmlns="http://www.w3.org/1999/xhtml"><span class="nodeLabel "><p>poller<br/>adaptive tick · re-dispatch · tray title</p></span></div></foreignObject></g></g><g class="node default  " id="mermaid-svg-280400-flowchart-Lifecycle-6" data-look="classic" transform="translate(168.54296875, 661)"><rect class="basic label-container" style="" x="-125.54296875" y="-39" width="251.0859375" height="78"></rect><g class="label" style="" transform="translate(-95.54296875, -24)"><rect></rect><foreignObject width="191.0859375" height="48"><div style="display: table-cell; white-space: nowrap; line-height: 1.5; max-width: 200px; text-align: center;" xmlns="http://www.w3.org/1999/xhtml"><span class="nodeLabel "><p>adapter::LifecycleManager<br/>staging · finalize · purge</p></span></div></foreignObject></g></g><g class="node default  " id="mermaid-svg-280400-flowchart-Aria2-7" data-look="classic" transform="translate(431.01953125, 661)"><rect class="basic label-container" style="" x="-86.93359375" y="-39" width="173.8671875" height="78"></rect><g class="label" style="" transform="translate(-56.93359375, -24)"><rect></rect><foreignObject width="113.8671875" height="48"><div style="display: table-cell; white-space: nowrap; line-height: 1.5; max-width: 200px; text-align: center;" xmlns="http://www.w3.org/1999/xhtml"><span class="nodeLabel "><p>aria2<br/>JSON-RPC client</p></span></div></foreignObject></g></g><g class="node default  " id="mermaid-svg-280400-flowchart-Net-8" data-look="classic" transform="translate(1436.515625, 661)"><rect class="basic label-container" style="" x="-94.703125" y="-39" width="189.40625" height="78"></rect><g class="label" style="" transform="translate(-64.703125, -24)"><rect></rect><foreignObject width="129.40625" height="48"><div style="display: table-cell; white-space: nowrap; line-height: 1.5; max-width: 200px; text-align: center;" xmlns="http://www.w3.org/1999/xhtml"><span class="nodeLabel "><p>net<br/>safe .torrent fetch</p></span></div></foreignObject></g></g><g class="node default  " id="mermaid-svg-280400-flowchart-Validate-9" data-look="classic" transform="translate(984.75, 661)"><rect class="basic label-container" style="" x="-130" y="-51" width="260" height="102"></rect><g class="label" style="" transform="translate(-100, -36)"><rect></rect><foreignObject width="200" height="72"><div style="display: table; white-space: break-spaces; line-height: 1.5; max-width: 200px; text-align: center; width: 200px;" xmlns="http://www.w3.org/1999/xhtml"><span class="nodeLabel "><p>validate<br/>URL allowlist · filename sanitize</p></span></div></foreignObject></g></g><g class="node default  " id="mermaid-svg-280400-flowchart-Tagger-10" data-look="classic" transform="translate(1228.28125, 661)"><rect class="basic label-container" style="" x="-63.53125" y="-39" width="127.0625" height="78"></rect><g class="label" style="" transform="translate(-33.53125, -24)"><rect></rect><foreignObject width="67.0625" height="48"><div style="display: table-cell; white-space: nowrap; line-height: 1.5; max-width: 200px; text-align: center;" xmlns="http://www.w3.org/1999/xhtml"><span class="nodeLabel "><p>tagger<br/>ext → tag</p></span></div></foreignObject></g></g><g class="node default  " id="mermaid-svg-280400-flowchart-Db-11" data-look="classic" transform="translate(703.50390625, 661)"><rect class="basic label-container" style="" x="-101.24609375" y="-39" width="202.4921875" height="78"></rect><g class="label" style="" transform="translate(-71.24609375, -24)"><rect></rect><foreignObject width="142.4921875" height="48"><div style="display: table-cell; white-space: nowrap; line-height: 1.5; max-width: 200px; text-align: center;" xmlns="http://www.w3.org/1999/xhtml"><span class="nodeLabel "><p>db<br/>SQLite + migrations</p></span></div></foreignObject></g></g><g class="node default  " id="mermaid-svg-280400-flowchart-aria2c-23" data-look="classic" transform="translate(431.01953125, 890.2132415771484)"><rect class="basic label-container" style="" x="-114.984375" y="-51" width="229.96875" height="102"></rect><g class="label" style="" transform="translate(-84.984375, -36)"><rect></rect><foreignObject width="169.96875" height="72"><div style="display: table-cell; white-space: nowrap; line-height: 1.5; max-width: 200px; text-align: center;" xmlns="http://www.w3.org/1999/xhtml"><span class="nodeLabel "><p>aria2c sidecar<br/>HTTP · torrent · magnet<br/>RPC 127.0.0.1:6800</p></span></div></foreignObject></g></g><g class="node default  " id="mermaid-svg-280400-flowchart-sqlite-24" data-look="classic" transform="translate(703.50390625, 890.2132415771484)"><path d="M0,15.808823529411764 a107.5,15.808823529411764 0,0,0 215,0 a107.5,15.808823529411764 0,0,0 -215,0 l0,126.80882352941177 a107.5,15.808823529411764 0,0,0 215,0 l0,-126.80882352941177" class="basic label-container outer-path" style="" label-offset-y="15.808823529411764" transform="translate(-107.5, -79.21323529411765)"></path><g class="label" style="" transform="translate(-100, -38)"><rect></rect><foreignObject width="200" height="96"><div style="display: table; white-space: break-spaces; line-height: 1.5; max-width: 200px; text-align: center; width: 200px;" xmlns="http://www.w3.org/1999/xhtml"><span class="nodeLabel "><p>SQLite — pulsar.db<br/>jobs · tags · job_tags · settings<br/>WAL · busy_timeout 1s</p></span></div></foreignObject></g></g><g class="node default  " id="mermaid-svg-280400-flowchart-tray-25" data-look="classic" transform="translate(1715.14453125, 320)"><rect class="basic label-container" style="" x="-113.92578125" y="-39" width="227.8515625" height="78"></rect><g class="label" style="" transform="translate(-83.92578125, -24)"><rect></rect><foreignObject width="167.8515625" height="48"><div style="display: table-cell; white-space: nowrap; line-height: 1.5; max-width: 200px; text-align: center;" xmlns="http://www.w3.org/1999/xhtml"><span class="nodeLabel "><p>macOS tray / menu bar<br/>live % · ETA</p></span></div></foreignObject></g></g><g class="node default  " id="mermaid-svg-280400-flowchart-web-26" data-look="classic" transform="translate(918.34765625, 1062.9264831542969)"><g class="basic label-container outer-path"><path d="M-70.33203125 -19.5 C-17.082248183802314 -19.5, 36.16753488239537 -19.5, 70.33203125 -19.5 C70.33203125 -19.5, 70.33203125 -19.5, 70.33203125 -19.5 C70.71101098129641 -19.48784685765662, 71.08999071259282 -19.47569371531324, 71.5814005396239 -19.45993515863156 C72.01688160194563 -19.417924824291983, 72.45236266426737 -19.37591448995241, 72.82563590284786 -19.3399052695533 C73.23837410136386 -19.273176958449767, 73.65111229987986 -19.206448647346235, 74.05962450967675 -19.140403561325776 C74.52696281384078 -19.033736643067776, 74.99430111800481 -18.927069724809776, 75.27829563623538 -18.862249829261074 C75.64274582477977 -18.75408292633918, 76.00719601332415 -18.645916023417286, 76.4766415014606 -18.50658706670804 C76.9177717150489 -18.344247070344554, 77.3589019286372 -18.181907073981066, 77.6497378451478 -18.074876768247425 C78.09723717899503 -17.876782087749344, 78.54473651284226 -17.678687407251264, 78.79276416279238 -17.568892924097174 C79.11694784261407 -17.399766505983756, 79.44113152243577 -17.230640087870334, 79.90102351407678 -16.990714730406097 C80.17270246313726 -16.826021354922922, 80.44438141219771 -16.661327979439744, 80.9699618236057 -16.342718045390892 C81.23010016434041 -16.16125680010163, 81.49023850507513 -15.979795554812368, 81.99518659457871 -15.627565626425154 C82.2867035200577 -15.395088635946845, 82.57822044553669 -15.162611645468534, 82.97248495850187 -14.848196188198123 C83.29631243355003 -14.554104643364859, 83.6201399085982 -14.260013098531596, 83.89784098676799 -14.007812326905688 C84.08573608245591 -13.813795214133656, 84.27363117814383 -13.619778101361623, 84.76745219296865 -13.10986736009568 C85.04270172786927 -12.786543594259184, 85.3179512627699 -12.46321982842269, 85.57774515812658 -12.158051136245305 C85.7429983371387 -11.93662693124338, 85.90825151615081 -11.715202726241454, 86.32539021464063 -11.156274872382312 C86.57351594928616 -10.775087112877792, 86.8216416839317 -10.393899353373273, 87.00731512860425 -10.108655082055241 C87.14094379097747 -9.871383860642231, 87.27457245335069 -9.63411263922922, 87.6207177242735 -9.019496659696287 C87.75121512403187 -8.748516016900965, 87.88171252379026 -8.477535374105642, 88.16307739880834 -7.893275190886684 C88.27994497002254 -7.60461003050683, 88.39681254123674 -7.315944870126977, 88.63216547997033 -6.734618561215508 C88.73535644774871 -6.423823807514945, 88.83854741552712 -6.113029053814381, 89.02605438421489 -5.548287939305138 C89.10723832955985 -5.238698370360301, 89.18842227490481 -4.929108801415464, 89.34312553754556 -4.339158212148133 C89.435657444264 -3.8640264277743417, 89.52818935098244 -3.3888946434005502, 89.58207602658177 -3.1121979531509023 C89.62783181842003 -2.7573250671564353, 89.6735876102583 -2.402452181161968, 89.74192395250937 -1.872449005199798 C89.76067377963007 -1.5804053132068197, 89.77942360675077 -1.2883616212138413, 89.82201246591342 -0.6250057626472757 C89.82201246591342 -0.15879054084583377, 89.82201246591342 0.30742468095560815, 89.82201246591342 0.625005762647271 C89.7998817433042 0.969709630883711, 89.77775102069496 1.314413499120151, 89.74192395250937 1.8724490051997846 C89.69086367244365 2.268462454396637, 89.63980339237796 2.66447590359349, 89.58207602658177 3.1121979531508885 C89.49694574929957 3.5493239347045282, 89.41181547201737 3.9864499162581675, 89.34312553754556 4.339158212148129 C89.23618341465058 4.746974875755946, 89.1292412917556 5.154791539363764, 89.02605438421489 5.548287939305125 C88.9058997543472 5.910174540426127, 88.78574512447952 6.272061141547129, 88.63216547997033 6.734618561215495 C88.51157594537852 7.032477043097293, 88.39098641078672 7.330335524979091, 88.16307739880834 7.893275190886679 C87.96275501325093 8.309248910709055, 87.76243262769353 8.72522263053143, 87.6207177242735 9.019496659696284 C87.4556563870283 9.312579778247978, 87.2905950497831 9.60566289679967, 87.00731512860425 10.108655082055236 C86.76513073774511 10.480715342029663, 86.52294634688597 10.85277560200409, 86.32539021464065 11.156274872382301 C86.13191239459177 11.415517525055803, 85.93843457454287 11.674760177729304, 85.57774515812659 12.158051136245302 C85.40965419357799 12.355500347850928, 85.24156322902938 12.552949559456554, 84.76745219296866 13.10986736009567 C84.55024293743656 13.334153749644097, 84.33303368190445 13.558440139192523, 83.89784098676799 14.007812326905684 C83.63139961650283 14.249787329728152, 83.36495824623768 14.49176233255062, 82.9724849585019 14.848196188198111 C82.73523582769131 15.037396056555032, 82.49798669688072 15.226595924911955, 81.99518659457871 15.627565626425152 C81.63535747338472 15.878566844618481, 81.27552835219072 16.12956806281181, 80.9699618236057 16.34271804539089 C80.59103930147104 16.57242310510483, 80.21211677933638 16.802128164818768, 79.90102351407678 16.990714730406093 C79.54130455905971 17.17837987882751, 79.18158560404265 17.366045027248923, 78.79276416279238 17.56889292409717 C78.4142894840801 17.736432437310647, 78.03581480536783 17.903971950524127, 77.6497378451478 18.07487676824742 C77.32251345708492 18.195298367883645, 76.99528906902204 18.315719967519872, 76.47664150146062 18.506587066708033 C76.02354352294961 18.641064168370278, 75.5704455444386 18.775541270032527, 75.27829563623541 18.86224982926107 C74.80988928483455 18.969160522331215, 74.34148293343371 19.076071215401356, 74.05962450967677 19.140403561325773 C73.60685798870476 19.213603341179716, 73.15409146773274 19.28680312103366, 72.82563590284788 19.3399052695533 C72.38661053588109 19.382257518699333, 71.94758516891429 19.424609767845364, 71.5814005396239 19.45993515863156 C71.13513773755454 19.474245938096075, 70.68887493548519 19.488556717560588, 70.33203125 19.5 C70.33203125 19.5, 70.33203125 19.5, 70.33203125 19.5 C39.808572463375995 19.5, 9.28511367675199 19.5, -70.33203125 19.5 C-70.66762143070203 19.489238276091548, -71.00321161140404 19.478476552183093, -71.5814005396239 19.45993515863156 C-71.85137640769867 19.433890911331872, -72.12135227577342 19.407846664032185, -72.82563590284786 19.3399052695533 C-73.2625094563656 19.269274941425557, -73.69938300988333 19.198644613297816, -74.05962450967675 19.140403561325773 C-74.4227721365965 19.05751748524107, -74.78591976351626 18.97463140915637, -75.27829563623538 18.862249829261074 C-75.63615666663877 18.756038553888235, -75.99401769704214 18.649827278515392, -76.47664150146059 18.506587066708043 C-76.71611885391273 18.418457187301275, -76.95559620636489 18.330327307894507, -77.6497378451478 18.074876768247425 C-77.92750360181887 17.951918107397553, -78.20526935848996 17.828959446547685, -78.79276416279238 17.568892924097174 C-79.12655133091954 17.394756372286125, -79.46033849904669 17.220619820475076, -79.90102351407678 16.990714730406097 C-80.3213360488473 16.735918801797588, -80.7416485836178 16.48112287318908, -80.96996182360569 16.3427180453909 C-81.33650719215454 16.087031863784482, -81.7030525607034 15.831345682178064, -81.99518659457871 15.627565626425156 C-82.3014465858071 15.38333143334116, -82.60770657703547 15.139097240257165, -82.97248495850187 14.848196188198125 C-83.25702191716034 14.589787250779882, -83.54155887581881 14.331378313361638, -83.89784098676797 14.007812326905697 C-84.13502404324127 13.762901348005933, -84.37220709971456 13.517990369106169, -84.76745219296865 13.109867360095677 C-84.98942445540155 12.84912611006246, -85.21139671783443 12.588384860029246, -85.57774515812658 12.158051136245307 C-85.83574111800876 11.812360053918647, -86.09373707789095 11.466668971591988, -86.32539021464063 11.156274872382316 C-86.48035186555285 10.91821216355152, -86.63531351646505 10.680149454720725, -87.00731512860425 10.108655082055249 C-87.2251684764439 9.721834402922374, -87.44302182428355 9.335013723789501, -87.6207177242735 9.019496659696289 C-87.76545141171901 8.718954060910873, -87.91018509916452 8.418411462125457, -88.16307739880834 7.893275190886686 C-88.30299318889256 7.547680484290886, -88.44290897897679 7.202085777695086, -88.63216547997033 6.73461856121551 C-88.74193072802562 6.404023122790235, -88.8516959760809 6.073427684364962, -89.02605438421489 5.5482879393051325 C-89.14674142240494 5.0880559565932035, -89.26742846059501 4.627823973881275, -89.34312553754556 4.339158212148136 C-89.39258262777358 4.085206506587017, -89.44203971800158 3.8312548010258993, -89.58207602658177 3.112197953150904 C-89.62030194275947 2.8157252958376833, -89.65852785893716 2.5192526385244625, -89.74192395250937 1.872449005199809 C-89.76425141426594 1.5246807659383868, -89.78657887602252 1.1769125266769644, -89.82201246591342 0.6250057626472781 C-89.82201246591342 0.12974991192611302, -89.82201246591342 -0.3655059387950521, -89.82201246591342 -0.6250057626472687 C-89.8033971261157 -0.914954706028667, -89.78478178631796 -1.2049036494100653, -89.74192395250937 -1.8724490051997822 C-89.70087643609352 -2.190805436772145, -89.65982891967768 -2.509161868344508, -89.58207602658177 -3.112197953150895 C-89.49963614146586 -3.535509339545224, -89.41719625634995 -3.958820725939553, -89.34312553754556 -4.339158212148126 C-89.2564747423571 -4.669595248893929, -89.16982394716864 -5.000032285639732, -89.02605438421489 -5.548287939305123 C-88.91850208537518 -5.872218327278619, -88.81094978653547 -6.1961487152521135, -88.63216547997033 -6.734618561215485 C-88.53826886522808 -6.96654501499639, -88.44437225048583 -7.198471468777294, -88.16307739880834 -7.893275190886676 C-88.04690088393872 -8.134518209792644, -87.93072436906911 -8.375761228698613, -87.6207177242735 -9.019496659696282 C-87.41356619519055 -9.387315175949983, -87.2064146661076 -9.755133692203684, -87.00731512860425 -10.108655082055243 C-86.86869888768977 -10.321606851772358, -86.7300826467753 -10.534558621489472, -86.32539021464063 -11.156274872382308 C-86.166087393728 -11.369726139619688, -86.00678457281538 -11.58317740685707, -85.57774515812659 -12.158051136245302 C-85.39423913710532 -12.373607750325291, -85.21073311608403 -12.589164364405281, -84.76745219296866 -13.10986736009567 C-84.43220276413382 -13.45603991985764, -84.09695333529896 -13.802212479619609, -83.89784098676799 -14.007812326905677 C-83.69648568937919 -14.190677880424962, -83.49513039199039 -14.373543433944247, -82.9724849585019 -14.848196188198107 C-82.71973947655944 -15.049753984207474, -82.46699399461698 -15.25131178021684, -81.99518659457871 -15.627565626425149 C-81.59054190377427 -15.909828245943993, -81.1858972129698 -16.192090865462838, -80.96996182360571 -16.342718045390885 C-80.74931893250941 -16.47647306261502, -80.52867604141309 -16.610228079839157, -79.90102351407678 -16.99071473040609 C-79.51214954203853 -17.193590032532782, -79.12327557000027 -17.396465334659474, -78.7927641627924 -17.56889292409717 C-78.40783386436844 -17.739290148657854, -78.02290356594449 -17.90968737321854, -77.64973784514781 -18.07487676824742 C-77.25861069886548 -18.218815173619024, -76.86748355258315 -18.362753578990628, -76.47664150146062 -18.506587066708033 C-76.21409659669284 -18.584509016316783, -75.95155169192505 -18.662430965925534, -75.27829563623541 -18.862249829261067 C-74.88995025197843 -18.950887129027258, -74.50160486772145 -19.03952442879345, -74.05962450967677 -19.140403561325773 C-73.69925985067115 -19.19866452472413, -73.33889519166554 -19.25692548812249, -72.82563590284788 -19.3399052695533 C-72.352985846679 -19.38550125202705, -71.88033579051013 -19.431097234500804, -71.5814005396239 -19.45993515863156 C-71.28560143554918 -19.469420860161208, -70.98980233147448 -19.478906561690856, -70.33203125 -19.5 C-70.33203125 -19.5, -70.33203125 -19.5, -70.33203125 -19.5" stroke="none" stroke-width="0" fill="#ECECFF" style=""></path><path d="M-70.33203125 -19.5 C-33.38635241584145 -19.5, 3.5593264183170987 -19.5, 70.33203125 -19.5 M-70.33203125 -19.5 C-34.08648415023701 -19.5, 2.1590629495259748 -19.5, 70.33203125 -19.5 M70.33203125 -19.5 C70.33203125 -19.5, 70.33203125 -19.5, 70.33203125 -19.5 M70.33203125 -19.5 C70.33203125 -19.5, 70.33203125 -19.5, 70.33203125 -19.5 M70.33203125 -19.5 C70.77381091537951 -19.48583298600323, 71.21559058075904 -19.471665972006466, 71.5814005396239 -19.45993515863156 M70.33203125 -19.5 C70.74725585998625 -19.486684554943416, 71.1624804699725 -19.47336910988683, 71.5814005396239 -19.45993515863156 M71.5814005396239 -19.45993515863156 C71.90005500438146 -19.429194945654462, 72.218709469139 -19.39845473267736, 72.82563590284786 -19.3399052695533 M71.5814005396239 -19.45993515863156 C71.92750625875395 -19.42654675616011, 72.273611977884 -19.393158353688662, 72.82563590284786 -19.3399052695533 M72.82563590284786 -19.3399052695533 C73.13995936373374 -19.289087890012116, 73.4542828246196 -19.238270510470937, 74.05962450967675 -19.140403561325776 M72.82563590284786 -19.3399052695533 C73.29848233036964 -19.26345912613039, 73.77132875789142 -19.187012982707483, 74.05962450967675 -19.140403561325776 M74.05962450967675 -19.140403561325776 C74.36172464292775 -19.07145117729884, 74.66382477617876 -19.002498793271904, 75.27829563623538 -18.862249829261074 M74.05962450967675 -19.140403561325776 C74.31853466945853 -19.081309006902273, 74.5774448292403 -19.02221445247877, 75.27829563623538 -18.862249829261074 M75.27829563623538 -18.862249829261074 C75.57079120536606 -18.77543867968366, 75.86328677449676 -18.688627530106245, 76.4766415014606 -18.50658706670804 M75.27829563623538 -18.862249829261074 C75.64967421336321 -18.75202661697547, 76.02105279049103 -18.641803404689863, 76.4766415014606 -18.50658706670804 M76.4766415014606 -18.50658706670804 C76.88620144660258 -18.355865220965157, 77.29576139174458 -18.205143375222274, 77.6497378451478 -18.074876768247425 M76.4766415014606 -18.50658706670804 C76.76650162752694 -18.399915860877996, 77.05636175359328 -18.293244655047953, 77.6497378451478 -18.074876768247425 M77.6497378451478 -18.074876768247425 C77.90701354497122 -17.960988447748072, 78.16428924479463 -17.847100127248723, 78.79276416279238 -17.568892924097174 M77.6497378451478 -18.074876768247425 C78.03339450745054 -17.905043344616526, 78.41705116975328 -17.735209920985632, 78.79276416279238 -17.568892924097174 M78.79276416279238 -17.568892924097174 C79.05722326114103 -17.430924781882823, 79.32168235948967 -17.29295663966847, 79.90102351407678 -16.990714730406097 M78.79276416279238 -17.568892924097174 C79.07336876974054 -17.42250168038815, 79.35397337668869 -17.276110436679126, 79.90102351407678 -16.990714730406097 M79.90102351407678 -16.990714730406097 C80.2668206539494 -16.76896635455272, 80.63261779382199 -16.54721797869934, 80.9699618236057 -16.342718045390892 M79.90102351407678 -16.990714730406097 C80.19513624980452 -16.81242186160966, 80.48924898553224 -16.634128992813224, 80.9699618236057 -16.342718045390892 M80.9699618236057 -16.342718045390892 C81.3197889851409 -16.09869376127768, 81.66961614667612 -15.854669477164467, 81.99518659457871 -15.627565626425154 M80.9699618236057 -16.342718045390892 C81.30782091146726 -16.107042171382858, 81.64567999932882 -15.871366297374822, 81.99518659457871 -15.627565626425154 M81.99518659457871 -15.627565626425154 C82.2324277557485 -15.438372113644686, 82.4696689169183 -15.249178600864218, 82.97248495850187 -14.848196188198123 M81.99518659457871 -15.627565626425154 C82.22406411310398 -15.445041896087819, 82.45294163162923 -15.262518165750484, 82.97248495850187 -14.848196188198123 M82.97248495850187 -14.848196188198123 C83.315822171515 -14.536386415544465, 83.65915938452811 -14.224576642890806, 83.89784098676799 -14.007812326905688 M82.97248495850187 -14.848196188198123 C83.21259082664776 -14.630138391601172, 83.45269669479364 -14.412080595004221, 83.89784098676799 -14.007812326905688 M83.89784098676799 -14.007812326905688 C84.12094171600741 -13.77744250705547, 84.34404244524681 -13.547072687205254, 84.76745219296865 -13.10986736009568 M83.89784098676799 -14.007812326905688 C84.07783005537824 -13.821958836188243, 84.2578191239885 -13.636105345470796, 84.76745219296865 -13.10986736009568 M84.76745219296865 -13.10986736009568 C85.08469204194942 -12.737219382024069, 85.40193189093021 -12.364571403952457, 85.57774515812658 -12.158051136245305 M84.76745219296865 -13.10986736009568 C85.0356104506573 -12.794873411977473, 85.30376870834594 -12.479879463859266, 85.57774515812658 -12.158051136245305 M85.57774515812658 -12.158051136245305 C85.77660505249727 -11.891596994297629, 85.97546494686799 -11.625142852349954, 86.32539021464063 -11.156274872382312 M85.57774515812658 -12.158051136245305 C85.79523962113359 -11.866628369969106, 86.0127340841406 -11.575205603692906, 86.32539021464063 -11.156274872382312 M86.32539021464063 -11.156274872382312 C86.50093595443954 -10.886589475419736, 86.67648169423846 -10.616904078457159, 87.00731512860425 -10.108655082055241 M86.32539021464063 -11.156274872382312 C86.58961997256206 -10.750347008590285, 86.85384973048347 -10.344419144798259, 87.00731512860425 -10.108655082055241 M87.00731512860425 -10.108655082055241 C87.23819120005473 -9.698711238457568, 87.46906727150522 -9.288767394859892, 87.6207177242735 -9.019496659696287 M87.00731512860425 -10.108655082055241 C87.18240546276773 -9.797764463929093, 87.3574957969312 -9.486873845802945, 87.6207177242735 -9.019496659696287 M87.6207177242735 -9.019496659696287 C87.78253994060614 -8.68346936504081, 87.94436215693878 -8.347442070385334, 88.16307739880834 -7.893275190886684 M87.6207177242735 -9.019496659696287 C87.74512061369404 -8.761171398019128, 87.86952350311456 -8.502846136341967, 88.16307739880834 -7.893275190886684 M88.16307739880834 -7.893275190886684 C88.32415241203866 -7.495416794034293, 88.48522742526896 -7.097558397181903, 88.63216547997033 -6.734618561215508 M88.16307739880834 -7.893275190886684 C88.2579969856284 -7.658821976295766, 88.35291657244846 -7.424368761704847, 88.63216547997033 -6.734618561215508 M88.63216547997033 -6.734618561215508 C88.72798427736062 -6.446027610128054, 88.82380307475091 -6.157436659040599, 89.02605438421489 -5.548287939305138 M88.63216547997033 -6.734618561215508 C88.77863755986712 -6.293467993723065, 88.9251096397639 -5.8523174262306235, 89.02605438421489 -5.548287939305138 M89.02605438421489 -5.548287939305138 C89.1477338970607 -5.084271220589574, 89.26941340990652 -4.620254501874011, 89.34312553754556 -4.339158212148133 M89.02605438421489 -5.548287939305138 C89.09869824591945 -5.2712654105768255, 89.17134210762401 -4.994242881848514, 89.34312553754556 -4.339158212148133 M89.34312553754556 -4.339158212148133 C89.39412313789731 -4.077296312688561, 89.44512073824906 -3.815434413228989, 89.58207602658177 -3.1121979531509023 M89.34312553754556 -4.339158212148133 C89.41532124219118 -3.9684485273604233, 89.4875169468368 -3.5977388425727135, 89.58207602658177 -3.1121979531509023 M89.58207602658177 -3.1121979531509023 C89.63414422000177 -2.708367327013189, 89.68621241342177 -2.304536700875475, 89.74192395250937 -1.872449005199798 M89.58207602658177 -3.1121979531509023 C89.62987728557572 -2.7414608278201413, 89.67767854456966 -2.3707237024893804, 89.74192395250937 -1.872449005199798 M89.74192395250937 -1.872449005199798 C89.75914595358283 -1.6042024371315557, 89.7763679546563 -1.3359558690633135, 89.82201246591342 -0.6250057626472757 M89.74192395250937 -1.872449005199798 C89.76762095358863 -1.4721974711442942, 89.7933179546679 -1.0719459370887905, 89.82201246591342 -0.6250057626472757 M89.82201246591342 -0.6250057626472757 C89.82201246591342 -0.19983133346474624, 89.82201246591342 0.22534309571778322, 89.82201246591342 0.625005762647271 M89.82201246591342 -0.6250057626472757 C89.82201246591342 -0.2074798849778422, 89.82201246591342 0.2100459926915913, 89.82201246591342 0.625005762647271 M89.82201246591342 0.625005762647271 C89.79375445842136 1.0651470387890292, 89.76549645092932 1.5052883149307872, 89.74192395250937 1.8724490051997846 M89.82201246591342 0.625005762647271 C89.79721641019924 1.0112243454115615, 89.77242035448505 1.397442928175852, 89.74192395250937 1.8724490051997846 M89.74192395250937 1.8724490051997846 C89.67860680509213 2.363524297182897, 89.6152896576749 2.854599589166009, 89.58207602658177 3.1121979531508885 M89.74192395250937 1.8724490051997846 C89.68802977848834 2.2904415762983996, 89.63413560446732 2.708434147397015, 89.58207602658177 3.1121979531508885 M89.58207602658177 3.1121979531508885 C89.5022205347948 3.522239026012869, 89.42236504300782 3.932280098874849, 89.34312553754556 4.339158212148129 M89.58207602658177 3.1121979531508885 C89.5106146001511 3.4791372744946085, 89.43915317372041 3.846076595838329, 89.34312553754556 4.339158212148129 M89.34312553754556 4.339158212148129 C89.26390177777378 4.641272743952611, 89.184678018002 4.943387275757094, 89.02605438421489 5.548287939305125 M89.34312553754556 4.339158212148129 C89.26994072396991 4.618243624810917, 89.19675591039427 4.897329037473707, 89.02605438421489 5.548287939305125 M89.02605438421489 5.548287939305125 C88.90611879494394 5.90951482504814, 88.78618320567298 6.270741710791155, 88.63216547997033 6.734618561215495 M89.02605438421489 5.548287939305125 C88.8823162700184 5.981204237706505, 88.73857815582193 6.414120536107886, 88.63216547997033 6.734618561215495 M88.63216547997033 6.734618561215495 C88.51543260976435 7.022951007500784, 88.39869973955837 7.311283453786073, 88.16307739880834 7.893275190886679 M88.63216547997033 6.734618561215495 C88.513734090924 7.027146381875063, 88.39530270187767 7.319674202534632, 88.16307739880834 7.893275190886679 M88.16307739880834 7.893275190886679 C88.01734723613646 8.195886991800801, 87.87161707346459 8.498498792714923, 87.6207177242735 9.019496659696284 M88.16307739880834 7.893275190886679 C87.99235201798113 8.24779009711233, 87.82162663715393 8.602305003337984, 87.6207177242735 9.019496659696284 M87.6207177242735 9.019496659696284 C87.43592062559075 9.347622621142882, 87.251123526908 9.67574858258948, 87.00731512860425 10.108655082055236 M87.6207177242735 9.019496659696284 C87.40723743657195 9.39855252773362, 87.19375714887039 9.777608395770958, 87.00731512860425 10.108655082055236 M87.00731512860425 10.108655082055236 C86.74512299251533 10.511452611534473, 86.4829308564264 10.91425014101371, 86.32539021464065 11.156274872382301 M87.00731512860425 10.108655082055236 C86.84881064581408 10.352160532034137, 86.69030616302392 10.59566598201304, 86.32539021464065 11.156274872382301 M86.32539021464065 11.156274872382301 C86.0965623763772 11.462883329010404, 85.86773453811375 11.769491785638506, 85.57774515812659 12.158051136245302 M86.32539021464065 11.156274872382301 C86.16580812202031 11.370100338265834, 86.00622602939998 11.583925804149366, 85.57774515812659 12.158051136245302 M85.57774515812659 12.158051136245302 C85.33352832919824 12.444922119835768, 85.0893115002699 12.731793103426236, 84.76745219296866 13.10986736009567 M85.57774515812659 12.158051136245302 C85.37637712198098 12.39458948966778, 85.17500908583538 12.631127843090256, 84.76745219296866 13.10986736009567 M84.76745219296866 13.10986736009567 C84.48977069972888 13.396596299940333, 84.21208920648908 13.683325239784997, 83.89784098676799 14.007812326905684 M84.76745219296866 13.10986736009567 C84.53212469511551 13.352862322375938, 84.29679719726236 13.595857284656203, 83.89784098676799 14.007812326905684 M83.89784098676799 14.007812326905684 C83.56389829588596 14.311090243125326, 83.22995560500392 14.61436815934497, 82.9724849585019 14.848196188198111 M83.89784098676799 14.007812326905684 C83.7111353649477 14.177373432682826, 83.5244297431274 14.346934538459966, 82.9724849585019 14.848196188198111 M82.9724849585019 14.848196188198111 C82.7406961482394 15.033041596223171, 82.50890733797688 15.21788700424823, 81.99518659457871 15.627565626425152 M82.9724849585019 14.848196188198111 C82.60879356439402 15.138230396764676, 82.24510217028616 15.428264605331243, 81.99518659457871 15.627565626425152 M81.99518659457871 15.627565626425152 C81.70292941043792 15.831431586472181, 81.41067222629711 16.03529754651921, 80.9699618236057 16.34271804539089 M81.99518659457871 15.627565626425152 C81.69570393252191 15.836471767080488, 81.3962212704651 16.045377907735823, 80.9699618236057 16.34271804539089 M80.9699618236057 16.34271804539089 C80.57051958887352 16.584862275468662, 80.17107735414135 16.827006505546432, 79.90102351407678 16.990714730406093 M80.9699618236057 16.34271804539089 C80.57581590214728 16.581651619237515, 80.18166998068888 16.82058519308414, 79.90102351407678 16.990714730406093 M79.90102351407678 16.990714730406093 C79.61003254395575 17.142524533129624, 79.31904157383472 17.294334335853154, 78.79276416279238 17.56889292409717 M79.90102351407678 16.990714730406093 C79.54932238680831 17.17419698322673, 79.19762125953986 17.35767923604736, 78.79276416279238 17.56889292409717 M78.79276416279238 17.56889292409717 C78.4192272444088 17.734246637286592, 78.04569032602522 17.89960035047601, 77.6497378451478 18.07487676824742 M78.79276416279238 17.56889292409717 C78.33686993562367 17.770703774843007, 77.88097570845495 17.97251462558884, 77.6497378451478 18.07487676824742 M77.6497378451478 18.07487676824742 C77.35269397248302 18.18419165923152, 77.05565009981824 18.293506550215618, 76.47664150146062 18.506587066708033 M77.6497378451478 18.07487676824742 C77.34714803963931 18.186232613784046, 77.04455823413082 18.29758845932067, 76.47664150146062 18.506587066708033 M76.47664150146062 18.506587066708033 C76.02217195209572 18.641471243400193, 75.5677024027308 18.776355420092354, 75.27829563623541 18.86224982926107 M76.47664150146062 18.506587066708033 C76.22894845886796 18.580101061582223, 75.9812554162753 18.653615056456413, 75.27829563623541 18.86224982926107 M75.27829563623541 18.86224982926107 C75.02654622056444 18.9197099905695, 74.77479680489348 18.97717015187793, 74.05962450967677 19.140403561325773 M75.27829563623541 18.86224982926107 C74.79727493362847 18.97203966567767, 74.31625423102153 19.081829502094266, 74.05962450967677 19.140403561325773 M74.05962450967677 19.140403561325773 C73.62092044742943 19.211329831909108, 73.1822163851821 19.282256102492443, 72.82563590284788 19.3399052695533 M74.05962450967677 19.140403561325773 C73.61802692911823 19.211797633510095, 73.17642934855968 19.283191705694414, 72.82563590284788 19.3399052695533 M72.82563590284788 19.3399052695533 C72.45621731323178 19.37554263660271, 72.08679872361569 19.411180003652117, 71.5814005396239 19.45993515863156 M72.82563590284788 19.3399052695533 C72.43751794142833 19.3773465425113, 72.04939998000877 19.414787815469307, 71.5814005396239 19.45993515863156 M71.5814005396239 19.45993515863156 C71.25300363990743 19.470466208019676, 70.92460674019098 19.480997257407797, 70.33203125 19.5 M71.5814005396239 19.45993515863156 C71.30904664347659 19.468669017976303, 71.03669274732928 19.477402877321047, 70.33203125 19.5 M70.33203125 19.5 C70.33203125 19.5, 70.33203125 19.5, 70.33203125 19.5 M70.33203125 19.5 C70.33203125 19.5, 70.33203125 19.5, 70.33203125 19.5 M70.33203125 19.5 C28.948385696368476 19.5, -12.435259857263048 19.5, -70.33203125 19.5 M70.33203125 19.5 C25.844285439782595 19.5, -18.64346037043481 19.5, -70.33203125 19.5 M-70.33203125 19.5 C-70.77934933341614 19.485655379716675, -71.22666741683229 19.47131075943335, -71.5814005396239 19.45993515863156 M-70.33203125 19.5 C-70.5976015947133 19.491483675946363, -70.8631719394266 19.482967351892725, -71.5814005396239 19.45993515863156 M-71.5814005396239 19.45993515863156 C-71.85105498572194 19.4339219185234, -72.12070943181999 19.40790867841524, -72.82563590284786 19.3399052695533 M-71.5814005396239 19.45993515863156 C-71.89401853728286 19.42977727637555, -72.20663653494182 19.39961939411954, -72.82563590284786 19.3399052695533 M-72.82563590284786 19.3399052695533 C-73.16722315636027 19.284680091454128, -73.50881040987267 19.229454913354957, -74.05962450967675 19.140403561325773 M-72.82563590284786 19.3399052695533 C-73.3010999264921 19.26303593348907, -73.77656395013635 19.18616659742484, -74.05962450967675 19.140403561325773 M-74.05962450967675 19.140403561325773 C-74.34823793532293 19.074529430300647, -74.63685136096909 19.00865529927552, -75.27829563623538 18.862249829261074 M-74.05962450967675 19.140403561325773 C-74.33221362841627 19.078186873783714, -74.6048027471558 19.015970186241656, -75.27829563623538 18.862249829261074 M-75.27829563623538 18.862249829261074 C-75.6399775172241 18.75490454549056, -76.00165939821281 18.647559261720048, -76.47664150146059 18.506587066708043 M-75.27829563623538 18.862249829261074 C-75.56133682878759 18.77824468902512, -75.8443780213398 18.69423954878916, -76.47664150146059 18.506587066708043 M-76.47664150146059 18.506587066708043 C-76.90583378925888 18.348640337388257, -77.33502607705717 18.190693608068468, -77.6497378451478 18.074876768247425 M-76.47664150146059 18.506587066708043 C-76.86834733490915 18.362435699109945, -77.2600531683577 18.218284331511846, -77.6497378451478 18.074876768247425 M-77.6497378451478 18.074876768247425 C-78.08538704425683 17.88202779087619, -78.52103624336586 17.689178813504956, -78.79276416279238 17.568892924097174 M-77.6497378451478 18.074876768247425 C-78.04584342376587 17.89953257864771, -78.44194900238395 17.724188389048, -78.79276416279238 17.568892924097174 M-78.79276416279238 17.568892924097174 C-79.07135923810561 17.42355005175492, -79.34995431341886 17.278207179412664, -79.90102351407678 16.990714730406097 M-78.79276416279238 17.568892924097174 C-79.10607658619394 17.40543803349477, -79.41938900959548 17.24198314289237, -79.90102351407678 16.990714730406097 M-79.90102351407678 16.990714730406097 C-80.26644736775542 16.76919264283718, -80.63187122143404 16.54767055526826, -80.96996182360569 16.3427180453909 M-79.90102351407678 16.990714730406097 C-80.26369436593076 16.770861528721724, -80.62636521778472 16.55100832703735, -80.96996182360569 16.3427180453909 M-80.96996182360569 16.3427180453909 C-81.258716627168 16.141295194419815, -81.54747143073031 15.939872343448728, -81.99518659457871 15.627565626425156 M-80.96996182360569 16.3427180453909 C-81.29561870544343 16.115553902080094, -81.62127558728118 15.888389758769291, -81.99518659457871 15.627565626425156 M-81.99518659457871 15.627565626425156 C-82.29337302121164 15.389769886259467, -82.59155944784455 15.15197414609378, -82.97248495850187 14.848196188198125 M-81.99518659457871 15.627565626425156 C-82.21608370550395 15.451406058781277, -82.43698081642918 15.275246491137397, -82.97248495850187 14.848196188198125 M-82.97248495850187 14.848196188198125 C-83.2842546849379 14.565055171623847, -83.59602441137395 14.281914155049568, -83.89784098676797 14.007812326905697 M-82.97248495850187 14.848196188198125 C-83.21151325756958 14.631117011327055, -83.4505415566373 14.414037834455986, -83.89784098676797 14.007812326905697 M-83.89784098676797 14.007812326905697 C-84.10118899079417 13.797838817567033, -84.30453699482037 13.58786530822837, -84.76745219296865 13.109867360095677 M-83.89784098676797 14.007812326905697 C-84.11930070878792 13.77913698173878, -84.34076043080786 13.550461636571864, -84.76745219296865 13.109867360095677 M-84.76745219296865 13.109867360095677 C-84.97963285596171 12.86062787992228, -85.19181351895477 12.611388399748883, -85.57774515812658 12.158051136245307 M-84.76745219296865 13.109867360095677 C-85.06788393028516 12.756963146393563, -85.36831566760168 12.40405893269145, -85.57774515812658 12.158051136245307 M-85.57774515812658 12.158051136245307 C-85.74612198584457 11.93244152654776, -85.91449881356257 11.706831916850215, -86.32539021464063 11.156274872382316 M-85.57774515812658 12.158051136245307 C-85.82834174110332 11.82227454487485, -86.07893832408004 11.486497953504392, -86.32539021464063 11.156274872382316 M-86.32539021464063 11.156274872382316 C-86.581403644246 10.762969495276828, -86.83741707385137 10.36966411817134, -87.00731512860425 10.108655082055249 M-86.32539021464063 11.156274872382316 C-86.49114140661851 10.901636531077203, -86.65689259859639 10.646998189772091, -87.00731512860425 10.108655082055249 M-87.00731512860425 10.108655082055249 C-87.22640329072638 9.719641865125327, -87.4454914528485 9.330628648195407, -87.6207177242735 9.019496659696289 M-87.00731512860425 10.108655082055249 C-87.16553361643585 9.827722135551051, -87.32375210426746 9.546789189046855, -87.6207177242735 9.019496659696289 M-87.6207177242735 9.019496659696289 C-87.74915341655833 8.75279719658328, -87.87758910884314 8.486097733470272, -88.16307739880834 7.893275190886686 M-87.6207177242735 9.019496659696289 C-87.74222263086507 8.767189121370361, -87.86372753745665 8.514881583044431, -88.16307739880834 7.893275190886686 M-88.16307739880834 7.893275190886686 C-88.2591580439109 7.655954139890448, -88.35523868901348 7.418633088894211, -88.63216547997033 6.73461856121551 M-88.16307739880834 7.893275190886686 C-88.27703505503324 7.61179757678978, -88.39099271125815 7.330319962692874, -88.63216547997033 6.73461856121551 M-88.63216547997033 6.73461856121551 C-88.7452437685239 6.394044772670718, -88.85832205707749 6.053470984125925, -89.02605438421489 5.5482879393051325 M-88.63216547997033 6.73461856121551 C-88.72524866133614 6.454266849732572, -88.81833184270195 6.173915138249634, -89.02605438421489 5.5482879393051325 M-89.02605438421489 5.5482879393051325 C-89.11894956101649 5.194038369136331, -89.21184473781808 4.83978879896753, -89.34312553754556 4.339158212148136 M-89.02605438421489 5.5482879393051325 C-89.13783104570263 5.122035084740865, -89.24960770719035 4.695782230176598, -89.34312553754556 4.339158212148136 M-89.34312553754556 4.339158212148136 C-89.39295299108673 4.083304769250297, -89.44278044462789 3.827451326352459, -89.58207602658177 3.112197953150904 M-89.34312553754556 4.339158212148136 C-89.42927922814417 3.896777219513263, -89.51543291874276 3.4543962268783894, -89.58207602658177 3.112197953150904 M-89.58207602658177 3.112197953150904 C-89.61779561916791 2.835163846684208, -89.65351521175405 2.5581297402175123, -89.74192395250937 1.872449005199809 M-89.58207602658177 3.112197953150904 C-89.63189028724419 2.7258483843916412, -89.6817045479066 2.339498815632379, -89.74192395250937 1.872449005199809 M-89.74192395250937 1.872449005199809 C-89.76394794596301 1.5294075297118017, -89.78597193941665 1.1863660542237944, -89.82201246591342 0.6250057626472781 M-89.74192395250937 1.872449005199809 C-89.7626665872745 1.5493657255796298, -89.78340922203961 1.2262824459594506, -89.82201246591342 0.6250057626472781 M-89.82201246591342 0.6250057626472781 C-89.82201246591342 0.18892457246076705, -89.82201246591342 -0.24715661772574404, -89.82201246591342 -0.6250057626472687 M-89.82201246591342 0.6250057626472781 C-89.82201246591342 0.3227933845518369, -89.82201246591342 0.020581006456395712, -89.82201246591342 -0.6250057626472687 M-89.82201246591342 -0.6250057626472687 C-89.79154879707 -1.099501994714231, -89.7610851282266 -1.5739982267811936, -89.74192395250937 -1.8724490051997822 M-89.82201246591342 -0.6250057626472687 C-89.79503123055275 -1.0452602822507502, -89.7680499951921 -1.4655148018542317, -89.74192395250937 -1.8724490051997822 M-89.74192395250937 -1.8724490051997822 C-89.70894433896025 -2.128232375325383, -89.67596472541113 -2.3840157454509834, -89.58207602658177 -3.112197953150895 M-89.74192395250937 -1.8724490051997822 C-89.70662827900102 -2.1461952790114065, -89.67133260549268 -2.419941552823031, -89.58207602658177 -3.112197953150895 M-89.58207602658177 -3.112197953150895 C-89.50532591178448 -3.506293571492494, -89.42857579698719 -3.900389189834093, -89.34312553754556 -4.339158212148126 M-89.58207602658177 -3.112197953150895 C-89.50986970206736 -3.4829621687202774, -89.43766337755297 -3.8537263842896596, -89.34312553754556 -4.339158212148126 M-89.34312553754556 -4.339158212148126 C-89.27113094883202 -4.613704781564952, -89.1991363601185 -4.888251350981777, -89.02605438421489 -5.548287939305123 M-89.34312553754556 -4.339158212148126 C-89.25171812815539 -4.687734280374689, -89.16031071876522 -5.03631034860125, -89.02605438421489 -5.548287939305123 M-89.02605438421489 -5.548287939305123 C-88.92341793744107 -5.857412564090808, -88.82078149066727 -6.166537188876493, -88.63216547997033 -6.734618561215485 M-89.02605438421489 -5.548287939305123 C-88.87121120495283 -6.014650924332174, -88.71636802569078 -6.481013909359225, -88.63216547997033 -6.734618561215485 M-88.63216547997033 -6.734618561215485 C-88.48214597180967 -7.105169646802191, -88.332126463649 -7.475720732388899, -88.16307739880834 -7.893275190886676 M-88.63216547997033 -6.734618561215485 C-88.45297374155774 -7.177225619531164, -88.27378200314514 -7.619832677846842, -88.16307739880834 -7.893275190886676 M-88.16307739880834 -7.893275190886676 C-87.97263289967675 -8.28873726819291, -87.78218840054518 -8.684199345499145, -87.6207177242735 -9.019496659696282 M-88.16307739880834 -7.893275190886676 C-88.02726665096024 -8.175289114677742, -87.89145590311215 -8.457303038468806, -87.6207177242735 -9.019496659696282 M-87.6207177242735 -9.019496659696282 C-87.4233646112417 -9.36991709605396, -87.22601149820989 -9.720337532411639, -87.00731512860425 -10.108655082055243 M-87.6207177242735 -9.019496659696282 C-87.42364687897489 -9.369415901110964, -87.22657603367628 -9.719335142525646, -87.00731512860425 -10.108655082055243 M-87.00731512860425 -10.108655082055243 C-86.86352170633906 -10.32956039259492, -86.71972828407385 -10.5504657031346, -86.32539021464063 -11.156274872382308 M-87.00731512860425 -10.108655082055243 C-86.80222983044196 -10.42372117314604, -86.59714453227967 -10.738787264236837, -86.32539021464063 -11.156274872382308 M-86.32539021464063 -11.156274872382308 C-86.10249692309229 -11.454931577060506, -85.87960363154394 -11.753588281738702, -85.57774515812659 -12.158051136245302 M-86.32539021464063 -11.156274872382308 C-86.15152023960408 -11.389244799050703, -85.97765026456754 -11.622214725719099, -85.57774515812659 -12.158051136245302 M-85.57774515812659 -12.158051136245302 C-85.40203529851911 -12.364449935514502, -85.22632543891162 -12.570848734783702, -84.76745219296866 -13.10986736009567 M-85.57774515812659 -12.158051136245302 C-85.41095086401077 -12.353977204977944, -85.24415656989494 -12.549903273710589, -84.76745219296866 -13.10986736009567 M-84.76745219296866 -13.10986736009567 C-84.55937051409143 -13.324728777359962, -84.3512888352142 -13.539590194624251, -83.89784098676799 -14.007812326905677 M-84.76745219296866 -13.10986736009567 C-84.4544780879997 -13.433038819128011, -84.14150398303074 -13.756210278160351, -83.89784098676799 -14.007812326905677 M-83.89784098676799 -14.007812326905677 C-83.65171849384598 -14.231334262933135, -83.40559600092398 -14.454856198960593, -82.9724849585019 -14.848196188198107 M-83.89784098676799 -14.007812326905677 C-83.6462989453481 -14.236256153485515, -83.39475690392821 -14.464699980065353, -82.9724849585019 -14.848196188198107 M-82.9724849585019 -14.848196188198107 C-82.61788943778413 -15.130976679787421, -82.26329391706636 -15.413757171376737, -81.99518659457871 -15.627565626425149 M-82.9724849585019 -14.848196188198107 C-82.60618628009311 -15.140309636611905, -82.23988760168432 -15.432423085025702, -81.99518659457871 -15.627565626425149 M-81.99518659457871 -15.627565626425149 C-81.72518474217344 -15.81590723047126, -81.45518288976817 -16.00424883451737, -80.96996182360571 -16.342718045390885 M-81.99518659457871 -15.627565626425149 C-81.688108565785 -15.841769966118031, -81.38103053699128 -16.055974305810913, -80.96996182360571 -16.342718045390885 M-80.96996182360571 -16.342718045390885 C-80.5757224808399 -16.581708251783063, -80.18148313807407 -16.82069845817524, -79.90102351407678 -16.99071473040609 M-80.96996182360571 -16.342718045390885 C-80.73597690820549 -16.484561076154492, -80.50199199280527 -16.626404106918095, -79.90102351407678 -16.99071473040609 M-79.90102351407678 -16.99071473040609 C-79.57167323293085 -17.162536561121005, -79.24232295178491 -17.33435839183592, -78.7927641627924 -17.56889292409717 M-79.90102351407678 -16.99071473040609 C-79.56099387694027 -17.16810797430083, -79.22096423980378 -17.34550121819557, -78.7927641627924 -17.56889292409717 M-78.7927641627924 -17.56889292409717 C-78.46399408951996 -17.714429682917167, -78.1352240162475 -17.859966441737164, -77.64973784514781 -18.07487676824742 M-78.7927641627924 -17.56889292409717 C-78.51947287181284 -17.68987087171571, -78.2461815808333 -17.81084881933425, -77.64973784514781 -18.07487676824742 M-77.64973784514781 -18.07487676824742 C-77.1958944335066 -18.241895339013897, -76.74205102186536 -18.408913909780374, -76.47664150146062 -18.506587066708033 M-77.64973784514781 -18.07487676824742 C-77.28469945045109 -18.209214271873748, -76.91966105575435 -18.34355177550007, -76.47664150146062 -18.506587066708033 M-76.47664150146062 -18.506587066708033 C-76.17800414237206 -18.59522106730603, -75.8793667832835 -18.683855067904027, -75.27829563623541 -18.862249829261067 M-76.47664150146062 -18.506587066708033 C-76.16640867505777 -18.598662541139063, -75.85617584865493 -18.69073801557009, -75.27829563623541 -18.862249829261067 M-75.27829563623541 -18.862249829261067 C-74.84757673098736 -18.960558608680408, -74.41685782573929 -19.05886738809975, -74.05962450967677 -19.140403561325773 M-75.27829563623541 -18.862249829261067 C-74.98494463221103 -18.929205281635433, -74.69159362818665 -18.996160734009795, -74.05962450967677 -19.140403561325773 M-74.05962450967677 -19.140403561325773 C-73.6551087617846 -19.2058025303785, -73.25059301389246 -19.27120149943123, -72.82563590284788 -19.3399052695533 M-74.05962450967677 -19.140403561325773 C-73.77709946461596 -19.18608001959676, -73.49457441955515 -19.23175647786774, -72.82563590284788 -19.3399052695533 M-72.82563590284788 -19.3399052695533 C-72.56142710850304 -19.36539317418618, -72.2972183141582 -19.390881078819064, -71.5814005396239 -19.45993515863156 M-72.82563590284788 -19.3399052695533 C-72.4880925475438 -19.372467671084205, -72.15054919223971 -19.405030072615112, -71.5814005396239 -19.45993515863156 M-71.5814005396239 -19.45993515863156 C-71.14993467795658 -19.473771429017876, -70.71846881628926 -19.487607699404197, -70.33203125 -19.5 M-71.5814005396239 -19.45993515863156 C-71.29884998995543 -19.468996004808147, -71.01629944028694 -19.478056850984732, -70.33203125 -19.5 M-70.33203125 -19.5 C-70.33203125 -19.5, -70.33203125 -19.5, -70.33203125 -19.5 M-70.33203125 -19.5 C-70.33203125 -19.5, -70.33203125 -19.5, -70.33203125 -19.5" stroke="#9370DB" stroke-width="1.3" fill="none" stroke-dasharray="0 0" style=""></path></g><g class="label" style="" transform="translate(-77.45703125, -12)"><rect></rect><foreignObject width="154.9140625" height="24"><div style="display: table-cell; white-space: nowrap; line-height: 1.5; max-width: 200px; text-align: center;" xmlns="http://www.w3.org/1999/xhtml"><span class="nodeLabel "><p>Remote hosts / peers</p></span></div></foreignObject></g></g></g></g></g><defs><filter id="mermaid-svg-280400-drop-shadow" height="130%" width="130%"><feDropShadow dx="4" dy="4" stdDeviation="0" flood-opacity="0.06" flood-color="#000000"></feDropShadow></filter></defs><defs><filter id="mermaid-svg-280400-drop-shadow-small" height="150%" width="150%"><feDropShadow dx="2" dy="2" stdDeviation="0" flood-opacity="0.06" flood-color="#000000"></feDropShadow></filter></defs></svg>