<svg id="mermaid-svg-55308" width="100%" xmlns="http://www.w3.org/2000/svg" class="flowchart" style="" viewBox="0 0 1457.6640625 955.8984375" role="graphics-document document" aria-roledescription="flowchart-v2"><style>#mermaid-svg-55308{font-family:Archivo,Helvetica,sans-serif;font-size:13px;fill:#1E1E1C;}@keyframes edge-animation-frame{from{stroke-dashoffset:0;}}@keyframes dash{to{stroke-dashoffset:0;}}#mermaid-svg-55308 .edge-animation-slow{stroke-dasharray:9,5!important;stroke-dashoffset:900;animation:dash 50s linear infinite;stroke-linecap:round;}#mermaid-svg-55308 .edge-animation-fast{stroke-dasharray:9,5!important;stroke-dashoffset:900;animation:dash 20s linear infinite;stroke-linecap:round;}#mermaid-svg-55308 .error-icon{fill:#E7E5E0;}#mermaid-svg-55308 .error-text{fill:#181a1f;stroke:#181a1f;}#mermaid-svg-55308 .edge-thickness-normal{stroke-width:1px;}#mermaid-svg-55308 .edge-thickness-thick{stroke-width:3.5px;}#mermaid-svg-55308 .edge-pattern-solid{stroke-dasharray:0;}#mermaid-svg-55308 .edge-thickness-invisible{stroke-width:0;fill:none;}#mermaid-svg-55308 .edge-pattern-dashed{stroke-dasharray:3;}#mermaid-svg-55308 .edge-pattern-dotted{stroke-dasharray:2;}#mermaid-svg-55308 .marker{fill:#1E1E1C;stroke:#1E1E1C;}#mermaid-svg-55308 .marker.cross{stroke:#1E1E1C;}#mermaid-svg-55308 svg{font-family:Archivo,Helvetica,sans-serif;font-size:13px;}#mermaid-svg-55308 p{margin:0;}#mermaid-svg-55308 .label{font-family:Archivo,Helvetica,sans-serif;color:#1E1E1C;}#mermaid-svg-55308 .cluster-label text{fill:#181a1f;}#mermaid-svg-55308 .cluster-label span{color:#181a1f;}#mermaid-svg-55308 .cluster-label span p{background-color:transparent;}#mermaid-svg-55308 .label text,#mermaid-svg-55308 span{fill:#1E1E1C;color:#1E1E1C;}#mermaid-svg-55308 .node rect,#mermaid-svg-55308 .node circle,#mermaid-svg-55308 .node ellipse,#mermaid-svg-55308 .node polygon,#mermaid-svg-55308 .node path{fill:#F2F1EE;stroke:#8A8880;stroke-width:1px;}#mermaid-svg-55308 .rough-node .label text,#mermaid-svg-55308 .node .label text,#mermaid-svg-55308 .image-shape .label,#mermaid-svg-55308 .icon-shape .label{text-anchor:middle;}#mermaid-svg-55308 .node .katex path{fill:#000;stroke:#000;stroke-width:1px;}#mermaid-svg-55308 .rough-node .label,#mermaid-svg-55308 .node .label,#mermaid-svg-55308 .image-shape .label,#mermaid-svg-55308 .icon-shape .label{text-align:center;}#mermaid-svg-55308 .node.clickable{cursor:pointer;}#mermaid-svg-55308 .root .anchor path{fill:#1E1E1C!important;stroke-width:0;stroke:#1E1E1C;}#mermaid-svg-55308 .arrowheadPath{fill:#0b0b0b;}#mermaid-svg-55308 .edgePath .path{stroke:#1E1E1C;stroke-width:1px;}#mermaid-svg-55308 .flowchart-link{stroke:#1E1E1C;fill:none;}#mermaid-svg-55308 .edgeLabel{background-color:hsl(-75, 13.3333333333%, 94.1176470588%);text-align:center;}#mermaid-svg-55308 .edgeLabel p{background-color:hsl(-75, 13.3333333333%, 94.1176470588%);}#mermaid-svg-55308 .edgeLabel rect{opacity:0.5;background-color:hsl(-75, 13.3333333333%, 94.1176470588%);fill:hsl(-75, 13.3333333333%, 94.1176470588%);}#mermaid-svg-55308 .labelBkg{background-color:rgba(240.9999999999, 237.9999999999, 241.9999999999, 0.5);}#mermaid-svg-55308 .cluster rect{fill:#DDDBD5;stroke:#CFCDC6;stroke-width:1px;}#mermaid-svg-55308 .cluster text{fill:#181a1f;}#mermaid-svg-55308 .cluster span{color:#181a1f;}#mermaid-svg-55308 div.mermaidTooltip{position:absolute;text-align:center;max-width:200px;padding:2px;font-family:Archivo,Helvetica,sans-serif;font-size:12px;background:#E7E5E0;border:1px solid hsl(42.8571428571, 0%, 79.2156862745%);border-radius:2px;pointer-events:none;z-index:100;}#mermaid-svg-55308 .flowchartTitleText{text-anchor:middle;font-size:18px;fill:#1E1E1C;}#mermaid-svg-55308 rect.text{fill:none;stroke-width:0;}#mermaid-svg-55308 .icon-shape,#mermaid-svg-55308 .image-shape{background-color:hsl(-75, 13.3333333333%, 94.1176470588%);text-align:center;}#mermaid-svg-55308 .icon-shape p,#mermaid-svg-55308 .image-shape p{background-color:hsl(-75, 13.3333333333%, 94.1176470588%);padding:2px;}#mermaid-svg-55308 .icon-shape .label rect,#mermaid-svg-55308 .image-shape .label rect{opacity:0.5;background-color:hsl(-75, 13.3333333333%, 94.1176470588%);fill:hsl(-75, 13.3333333333%, 94.1176470588%);}#mermaid-svg-55308 .label-icon{display:inline-block;height:1em;overflow:visible;vertical-align:-0.125em;}#mermaid-svg-55308 .node .label-icon path{fill:currentColor;stroke:revert;stroke-width:revert;}#mermaid-svg-55308 .node .neo-node{stroke:#8A8880;}#mermaid-svg-55308 [data-look="neo"].node rect,#mermaid-svg-55308 [data-look="neo"].cluster rect,#mermaid-svg-55308 [data-look="neo"].node polygon{stroke:url(#mermaid-svg-55308-gradient);filter:drop-shadow( 1px 2px 2px rgba(185,185,185,1));}#mermaid-svg-55308 [data-look="neo"].node path{stroke:url(#mermaid-svg-55308-gradient);stroke-width:1px;}#mermaid-svg-55308 [data-look="neo"].node .outer-path{filter:drop-shadow( 1px 2px 2px rgba(185,185,185,1));}#mermaid-svg-55308 [data-look="neo"].node .neo-line path{stroke:#8A8880;filter:none;}#mermaid-svg-55308 [data-look="neo"].node circle{stroke:url(#mermaid-svg-55308-gradient);filter:drop-shadow( 1px 2px 2px rgba(185,185,185,1));}#mermaid-svg-55308 [data-look="neo"].node circle .state-start{fill:#000000;}#mermaid-svg-55308 [data-look="neo"].icon-shape .icon{fill:url(#mermaid-svg-55308-gradient);filter:drop-shadow( 1px 2px 2px rgba(185,185,185,1));}#mermaid-svg-55308 [data-look="neo"].icon-shape .icon-neo path{stroke:url(#mermaid-svg-55308-gradient);filter:drop-shadow( 1px 2px 2px rgba(185,185,185,1));}#mermaid-svg-55308 :root{--mermaid-font-family:"trebuchet ms",verdana,arial,sans-serif;}</style><g><marker id="mermaid-svg-55308_flowchart-v2-pointEnd" class="marker flowchart-v2" viewBox="0 0 10 10" refX="5" refY="5" markerUnits="userSpaceOnUse" markerWidth="8" markerHeight="8" orient="auto"><path d="M 0 0 L 10 5 L 0 10 z" class="arrowMarkerPath" style="stroke-width: 1; stroke-dasharray: 1, 0;"></path></marker><marker id="mermaid-svg-55308_flowchart-v2-pointStart" class="marker flowchart-v2" viewBox="0 0 10 10" refX="4.5" refY="5" markerUnits="userSpaceOnUse" markerWidth="8" markerHeight="8" orient="auto"><path d="M 0 5 L 10 10 L 10 0 z" class="arrowMarkerPath" style="stroke-width: 1; stroke-dasharray: 1, 0;"></path></marker><marker id="mermaid-svg-55308_flowchart-v2-pointEnd-margin" class="marker flowchart-v2" viewBox="0 0 11.5 14" refX="11.5" refY="7" markerUnits="userSpaceOnUse" markerWidth="10.5" markerHeight="14" orient="auto"><path d="M 0 0 L 11.5 7 L 0 14 z" class="arrowMarkerPath" style="stroke-width: 0; stroke-dasharray: 1, 0;"></path></marker><marker id="mermaid-svg-55308_flowchart-v2-pointStart-margin" class="marker flowchart-v2" viewBox="0 0 11.5 14" refX="1" refY="7" markerUnits="userSpaceOnUse" markerWidth="11.5" markerHeight="14" orient="auto"><polygon points="0,7 11.5,14 11.5,0" class="arrowMarkerPath" style="stroke-width: 0; stroke-dasharray: 1, 0;"></polygon></marker><marker id="mermaid-svg-55308_flowchart-v2-circleEnd" class="marker flowchart-v2" viewBox="0 0 10 10" refX="11" refY="5" markerUnits="userSpaceOnUse" markerWidth="11" markerHeight="11" orient="auto"><circle cx="5" cy="5" r="5" class="arrowMarkerPath" style="stroke-width: 1; stroke-dasharray: 1, 0;"></circle></marker><marker id="mermaid-svg-55308_flowchart-v2-circleStart" class="marker flowchart-v2" viewBox="0 0 10 10" refX="-1" refY="5" markerUnits="userSpaceOnUse" markerWidth="11" markerHeight="11" orient="auto"><circle cx="5" cy="5" r="5" class="arrowMarkerPath" style="stroke-width: 1; stroke-dasharray: 1, 0;"></circle></marker><marker id="mermaid-svg-55308_flowchart-v2-circleEnd-margin" class="marker flowchart-v2" viewBox="0 0 10 10" refY="5" refX="12.25" markerUnits="userSpaceOnUse" markerWidth="14" markerHeight="14" orient="auto"><circle cx="5" cy="5" r="5" class="arrowMarkerPath" style="stroke-width: 0; stroke-dasharray: 1, 0;"></circle></marker><marker id="mermaid-svg-55308_flowchart-v2-circleStart-margin" class="marker flowchart-v2" viewBox="0 0 10 10" refX="-2" refY="5" markerUnits="userSpaceOnUse" markerWidth="14" markerHeight="14" orient="auto"><circle cx="5" cy="5" r="5" class="arrowMarkerPath" style="stroke-width: 0; stroke-dasharray: 1, 0;"></circle></marker><marker id="mermaid-svg-55308_flowchart-v2-crossEnd" class="marker cross flowchart-v2" viewBox="0 0 11 11" refX="12" refY="5.2" markerUnits="userSpaceOnUse" markerWidth="11" markerHeight="11" orient="auto"><path d="M 1,1 l 9,9 M 10,1 l -9,9" class="arrowMarkerPath" style="stroke-width: 2; stroke-dasharray: 1, 0;"></path></marker><marker id="mermaid-svg-55308_flowchart-v2-crossStart" class="marker cross flowchart-v2" viewBox="0 0 11 11" refX="-1" refY="5.2" markerUnits="userSpaceOnUse" markerWidth="11" markerHeight="11" orient="auto"><path d="M 1,1 l 9,9 M 10,1 l -9,9" class="arrowMarkerPath" style="stroke-width: 2; stroke-dasharray: 1, 0;"></path></marker><marker id="mermaid-svg-55308_flowchart-v2-crossEnd-margin" class="marker cross flowchart-v2" viewBox="0 0 15 15" refX="17.7" refY="7.5" markerUnits="userSpaceOnUse" markerWidth="12" markerHeight="12" orient="auto"><path d="M 1,1 L 14,14 M 1,14 L 14,1" class="arrowMarkerPath" style="stroke-width: 2.5;"></path></marker><marker id="mermaid-svg-55308_flowchart-v2-crossStart-margin" class="marker cross flowchart-v2" viewBox="0 0 15 15" refX="-3.5" refY="7.5" markerUnits="userSpaceOnUse" markerWidth="12" markerHeight="12" orient="auto"><path d="M 1,1 L 14,14 M 1,14 L 14,1" class="arrowMarkerPath" style="stroke-width: 2.5; stroke-dasharray: 1, 0;"></path></marker><g class="root"><g class="clusters"><g class="cluster " id="mermaid-svg-55308-Storage" data-look="classic"><rect style="" x="398.904296875" y="604.5" width="414.87890625" height="119.3984146118164"></rect><g class="cluster-label " transform="translate(583.53515625, 604.5)"><foreignObject width="45.6171875" height="19.5"><div style="display: table-cell; white-space: nowrap; line-height: 1.5;" xmlns="http://www.w3.org/1999/xhtml"><span class="nodeLabel "><p>Storage</p></span></div></foreignObject></g></g><g class="cluster " id="mermaid-svg-55308-subGraph1" data-look="classic"><rect style="" x="858.1484375" y="460.5" width="336.271484375" height="387.8984146118164"></rect><g class="cluster-label " transform="translate(976.8505859375, 460.5)"><foreignObject width="98.8671875" height="19.5"><div style="display: table-cell; white-space: nowrap; line-height: 1.5;" xmlns="http://www.w3.org/1999/xhtml"><span class="nodeLabel "><p>Playback Service</p></span></div></foreignObject></g></g><g class="cluster " id="mermaid-svg-55308-subGraph0" data-look="classic"><rect style="" x="8" y="192" width="1441.6640625" height="218.5"></rect><g class="cluster-label " transform="translate(697.74609375, 192)"><foreignObject width="62.171875" height="19.5"><div style="display: table-cell; white-space: nowrap; line-height: 1.5;" xmlns="http://www.w3.org/1999/xhtml"><span class="nodeLabel "><p>Core Logic</p></span></div></foreignObject></g></g></g><g class="edgePaths"><path d="M736.352,46.999L735.934,67.5L735.934,88.5" id="mermaid-svg-55308-L_User_UI_0" class=" edge-thickness-normal edge-pattern-solid edge-thickness-normal edge-pattern-solid flowchart-link" style=";" data-edge="true" data-et="edge" data-id="L_User_UI_0" data-points="W3sieCI6NzM2LjQzMzU5Mzc1LCJ5Ijo0M30seyJ4Ijo3MzUuOTMzNTkzNzUsInkiOjY3LjV9LHsieCI6NzM1LjkzMzU5Mzc1LCJ5Ijo5Mi41fV0=" data-look="classic" marker-start="url(#mermaid-svg-55308_flowchart-v2-pointStart)" marker-end="url(#mermaid-svg-55308_flowchart-v2-pointEnd)"></path><path d="M735.934,146L735.934,167L735.934,192L735.934,213" id="mermaid-svg-55308-L_UI_VM_0" class=" edge-thickness-normal edge-pattern-solid edge-thickness-normal edge-pattern-solid flowchart-link" style=";" data-edge="true" data-et="edge" data-id="L_UI_VM_0" data-points="W3sieCI6NzM1LjkzMzU5Mzc1LCJ5IjoxNDJ9LHsieCI6NzM1LjkzMzU5Mzc1LCJ5IjoxNjd9LHsieCI6NzM1LjkzMzU5Mzc1LCJ5IjoxOTJ9LHsieCI6NzM1LjkzMzU5Mzc1LCJ5IjoyMTd9XQ==" data-look="classic" marker-start="url(#mermaid-svg-55308_flowchart-v2-pointStart)" marker-end="url(#mermaid-svg-55308_flowchart-v2-pointEnd)"></path><path d="M601.955,265.311L158.746,311L158.746,332" id="mermaid-svg-55308-L_VM_Auth_0" class=" edge-thickness-normal edge-pattern-solid edge-thickness-normal edge-pattern-solid flowchart-link" style=";" data-edge="true" data-et="edge" data-id="L_VM_Auth_0" data-points="W3sieCI6NjA1LjkzMzU5Mzc1LCJ5IjoyNjQuOTAxMTkxMTIwNzM2M30seyJ4IjoxNTguNzQ2MDkzNzUsInkiOjMxMX0seyJ4IjoxNTguNzQ2MDkzNzUsInkiOjMzNn1d" data-look="classic" marker-start="url(#mermaid-svg-55308_flowchart-v2-pointStart)" marker-end="url(#mermaid-svg-55308_flowchart-v2-pointEnd)"></path><path d="M869.912,265.441L1307.746,311L1307.746,332" id="mermaid-svg-55308-L_VM_Drive_0" class=" edge-thickness-normal edge-pattern-solid edge-thickness-normal edge-pattern-solid flowchart-link" style=";" data-edge="true" data-et="edge" data-id="L_VM_Drive_0" data-points="W3sieCI6ODY1LjkzMzU5Mzc1LCJ5IjoyNjUuMDI3MTYxNDM4NDA4Nn0seyJ4IjoxMzA3Ljc0NjA5Mzc1LCJ5IjozMTF9LHsieCI6MTMwNy43NDYwOTM3NSwieSI6MzM2fV0=" data-look="classic" marker-start="url(#mermaid-svg-55308_flowchart-v2-pointStart)" marker-end="url(#mermaid-svg-55308_flowchart-v2-pointEnd)"></path><path d="M869.85,279.242L1023.148,311L1023.148,332" id="mermaid-svg-55308-L_VM_Player_0" class=" edge-thickness-normal edge-pattern-solid edge-thickness-normal edge-pattern-solid flowchart-link" style=";" data-edge="true" data-et="edge" data-id="L_VM_Player_0" data-points="W3sieCI6ODY1LjkzMzU5Mzc1LCJ5IjoyNzguNDMxMDU5MzM4NzQ2M30seyJ4IjoxMDIzLjE0ODQzNzUsInkiOjMxMX0seyJ4IjoxMDIzLjE0ODQzNzUsInkiOjMzNn1d" data-look="classic" marker-start="url(#mermaid-svg-55308_flowchart-v2-pointStart)" marker-end="url(#mermaid-svg-55308_flowchart-v2-pointEnd)"></path><path d="M602.018,279.41L450.445,311L450.445,332" id="mermaid-svg-55308-L_VM_Cache_0" class=" edge-thickness-normal edge-pattern-solid edge-thickness-normal edge-pattern-solid flowchart-link" style=";" data-edge="true" data-et="edge" data-id="L_VM_Cache_0" data-points="W3sieCI6NjA1LjkzMzU5Mzc1LCJ5IjoyNzguNTkzOTMxNzIzMzM1ODZ9LHsieCI6NDUwLjQ0NTMxMjUsInkiOjMxMX0seyJ4Ijo0NTAuNDQ1MzEyNSwieSI6MzM2fV0=" data-look="classic" marker-start="url(#mermaid-svg-55308_flowchart-v2-pointStart)" marker-end="url(#mermaid-svg-55308_flowchart-v2-pointEnd)"></path><path d="M735.934,290L735.934,311L735.934,332" id="mermaid-svg-55308-L_VM_Playlist_0" class=" edge-thickness-normal edge-pattern-solid edge-thickness-normal edge-pattern-solid flowchart-link" style=";" data-edge="true" data-et="edge" data-id="L_VM_Playlist_0" data-points="W3sieCI6NzM1LjkzMzU5Mzc1LCJ5IjoyODZ9LHsieCI6NzM1LjkzMzU5Mzc1LCJ5IjozMTF9LHsieCI6NzM1LjkzMzU5Mzc1LCJ5IjozMzZ9XQ==" data-look="classic" marker-start="url(#mermaid-svg-55308_flowchart-v2-pointStart)" marker-end="url(#mermaid-svg-55308_flowchart-v2-pointEnd)"></path><path d="M1023.148,389.5L1023.148,410.5L1023.148,435.5L1023.148,460.5L1023.148,481.5" id="mermaid-svg-55308-L_Player_Service_0" class=" edge-thickness-normal edge-pattern-solid edge-thickness-normal edge-pattern-solid flowchart-link" style=";" data-edge="true" data-et="edge" data-id="L_Player_Service_0" data-points="W3sieCI6MTAyMy4xNDg0Mzc1LCJ5IjozODUuNX0seyJ4IjoxMDIzLjE0ODQzNzUsInkiOjQxMC41fSx7IngiOjEwMjMuMTQ4NDM3NSwieSI6NDM1LjV9LHsieCI6MTAyMy4xNDg0Mzc1LCJ5Ijo0NjAuNX0seyJ4IjoxMDIzLjE0ODQzNzUsInkiOjQ4NS41fV0=" data-look="classic" marker-start="url(#mermaid-svg-55308_flowchart-v2-pointStart)" marker-end="url(#mermaid-svg-55308_flowchart-v2-pointEnd)"></path><path d="M1029.61,558.445L1033.148,579.5L1033.148,604.5L1033.148,635.449" id="mermaid-svg-55308-L_Service_Exo_0" class=" edge-thickness-normal edge-pattern-solid edge-thickness-normal edge-pattern-solid flowchart-link" style=";" data-edge="true" data-et="edge" data-id="L_Service_Exo_0" data-points="W3sieCI6MTAyOC45NDY3NTY4Mjc3MzEyLCJ5Ijo1NTQuNX0seyJ4IjoxMDMzLjE0ODQzNzUsInkiOjU3OS41fSx7IngiOjEwMzMuMTQ4NDM3NSwieSI6NjA0LjV9LHsieCI6MTAzMy4xNDg0Mzc1LCJ5Ijo2MzkuNDQ5MjA3MzA1OTA4Mn1d" data-look="classic" marker-start="url(#mermaid-svg-55308_flowchart-v2-pointStart)" marker-end="url(#mermaid-svg-55308_flowchart-v2-pointEnd)"></path><path d="M1033.148,692.949L1033.148,723.898L1033.148,748.898L1033.148,769.898" id="mermaid-svg-55308-L_Exo_Source_0" class=" edge-thickness-normal edge-pattern-solid edge-thickness-normal edge-pattern-solid flowchart-link" style=";" data-edge="true" data-et="edge" data-id="L_Exo_Source_0" data-points="W3sieCI6MTAzMy4xNDg0Mzc1LCJ5Ijo2ODguOTQ5MjA3MzA1OTA4Mn0seyJ4IjoxMDMzLjE0ODQzNzUsInkiOjcyMy44OTg0MTQ2MTE4MTY0fSx7IngiOjEwMzMuMTQ4NDM3NSwieSI6NzQ4Ljg5ODQxNDYxMTgxNjR9LHsieCI6MTAzMy4xNDg0Mzc1LCJ5Ijo3NzMuODk4NDE0NjExODE2NH1d" data-look="classic" marker-start="url(#mermaid-svg-55308_flowchart-v2-pointStart)" marker-end="url(#mermaid-svg-55308_flowchart-v2-pointEnd)"></path><path d="M450.445,389.5L450.445,410.5L450.445,435.5L450.445,460.5L450.445,520L450.445,579.5L450.445,604.5L666.094,651.495" id="mermaid-svg-55308-L_Cache_DB_0" class=" edge-thickness-normal edge-pattern-solid edge-thickness-normal edge-pattern-solid flowchart-link" style=";" data-edge="true" data-et="edge" data-id="L_Cache_DB_0" data-points="W3sieCI6NDUwLjQ0NTMxMjUsInkiOjM4NS41fSx7IngiOjQ1MC40NDUzMTI1LCJ5Ijo0MTAuNX0seyJ4Ijo0NTAuNDQ1MzEyNSwieSI6NDM1LjV9LHsieCI6NDUwLjQ0NTMxMjUsInkiOjQ2MC41fSx7IngiOjQ1MC40NDUzMTI1LCJ5Ijo1MjB9LHsieCI6NDUwLjQ0NTMxMjUsInkiOjU3OS41fSx7IngiOjQ1MC40NDUzMTI1LCJ5Ijo2MDQuNX0seyJ4Ijo2NzAuMDAxOTUzMTI1LCJ5Ijo2NTIuMzQ2Mjc5MzcxMTY1Nn1d" data-look="classic" marker-start="url(#mermaid-svg-55308_flowchart-v2-pointStart)" marker-end="url(#mermaid-svg-55308_flowchart-v2-pointEnd)"></path><path d="M735.934,389.5L735.934,410.5L735.934,435.5L735.934,460.5L735.934,520L735.934,579.5L735.934,604.5L731.857,625.661" id="mermaid-svg-55308-L_Playlist_DB_0" class=" edge-thickness-normal edge-pattern-solid edge-thickness-normal edge-pattern-solid flowchart-link" style=";" data-edge="true" data-et="edge" data-id="L_Playlist_DB_0" data-points="W3sieCI6NzM1LjkzMzU5Mzc1LCJ5IjozODUuNX0seyJ4Ijo3MzUuOTMzNTkzNzUsInkiOjQxMC41fSx7IngiOjczNS45MzM1OTM3NSwieSI6NDM1LjV9LHsieCI6NzM1LjkzMzU5Mzc1LCJ5Ijo0NjAuNX0seyJ4Ijo3MzUuOTMzNTkzNzUsInkiOjUyMH0seyJ4Ijo3MzUuOTMzNTkzNzUsInkiOjU3OS41fSx7IngiOjczNS45MzM1OTM3NSwieSI6NjA0LjV9LHsieCI6NzMxLjEwMDYwODQ2MTgyNzcsInkiOjYyOS41ODg4MDkwNTk3OTV9XQ==" data-look="classic" marker-start="url(#mermaid-svg-55308_flowchart-v2-pointStart)" marker-end="url(#mermaid-svg-55308_flowchart-v2-pointEnd)"></path><path d="M978.019,557.038L950.648,579.5L950.648,604.5L782.651,648.827" id="mermaid-svg-55308-L_Service_DB_0" class=" edge-thickness-normal edge-pattern-solid edge-thickness-normal edge-pattern-solid flowchart-link" style=";" data-edge="true" data-et="edge" data-id="L_Service_DB_0" data-points="W3sieCI6OTgxLjExMDYyMjM3Mzk0OTYsInkiOjU1NC41fSx7IngiOjk1MC42NDg0Mzc1LCJ5Ijo1NzkuNX0seyJ4Ijo5NTAuNjQ4NDM3NSwieSI6NjA0LjV9LHsieCI6Nzc4Ljc4MzIwMzEyNSwieSI6NjQ5Ljg0Nzg1NjU1NDg0OTJ9XQ==" data-look="classic" marker-start="url(#mermaid-svg-55308_flowchart-v2-pointStart)" marker-end="url(#mermaid-svg-55308_flowchart-v2-pointEnd)"></path><path d="M1033.148,827.398L1033.148,848.398L1033.148,873.398L1098.675,897.041" id="mermaid-svg-55308-L_Source_GDrive_0" class=" edge-thickness-normal edge-pattern-solid edge-thickness-normal edge-pattern-solid flowchart-link" style=";" data-edge="true" data-et="edge" data-id="L_Source_GDrive_0" data-points="W3sieCI6MTAzMy4xNDg0Mzc1LCJ5Ijo4MjMuMzk4NDE0NjExODE2NH0seyJ4IjoxMDMzLjE0ODQzNzUsInkiOjg0OC4zOTg0MTQ2MTE4MTY0fSx7IngiOjEwMzMuMTQ4NDM3NSwieSI6ODczLjM5ODQxNDYxMTgxNjR9LHsieCI6MTEwMi40MzcyNjQ0NDcyMzYyLCJ5Ijo4OTguMzk4NDE0NjExODE2NH1d" data-look="classic" marker-start="url(#mermaid-svg-55308_flowchart-v2-pointStart)" marker-end="url(#mermaid-svg-55308_flowchart-v2-pointEnd)"></path><path d="M1307.746,389.5L1307.746,410.5L1307.746,435.5L1307.746,460.5L1307.746,520L1307.746,579.5L1307.746,604.5L1307.746,664.199L1307.746,723.898L1307.746,748.898L1307.746,798.648L1307.746,848.398L1307.746,873.398L1242.805,897.031" id="mermaid-svg-55308-L_Drive_GDrive_0" class=" edge-thickness-normal edge-pattern-solid edge-thickness-normal edge-pattern-solid flowchart-link" style=";" data-edge="true" data-et="edge" data-id="L_Drive_GDrive_0" data-points="W3sieCI6MTMwNy43NDYwOTM3NSwieSI6Mzg1LjV9LHsieCI6MTMwNy43NDYwOTM3NSwieSI6NDEwLjV9LHsieCI6MTMwNy43NDYwOTM3NSwieSI6NDM1LjV9LHsieCI6MTMwNy43NDYwOTM3NSwieSI6NDYwLjV9LHsieCI6MTMwNy43NDYwOTM3NSwieSI6NTIwfSx7IngiOjEzMDcuNzQ2MDkzNzUsInkiOjU3OS41fSx7IngiOjEzMDcuNzQ2MDkzNzUsInkiOjYwNC41fSx7IngiOjEzMDcuNzQ2MDkzNzUsInkiOjY2NC4xOTkyMDczMDU5MDgyfSx7IngiOjEzMDcuNzQ2MDkzNzUsInkiOjcyMy44OTg0MTQ2MTE4MTY0fSx7IngiOjEzMDcuNzQ2MDkzNzUsInkiOjc0OC44OTg0MTQ2MTE4MTY0fSx7IngiOjEzMDcuNzQ2MDkzNzUsInkiOjc5OC42NDg0MTQ2MTE4MTY0fSx7IngiOjEzMDcuNzQ2MDkzNzUsInkiOjg0OC4zOTg0MTQ2MTE4MTY0fSx7IngiOjEzMDcuNzQ2MDkzNzUsInkiOjg3My4zOTg0MTQ2MTE4MTY0fSx7IngiOjEyMzkuMDQ2MTQ4NzEyMzExNiwieSI6ODk4LjM5ODQxNDYxMTgxNjR9XQ==" data-look="classic" marker-start="url(#mermaid-svg-55308_flowchart-v2-pointStart)" marker-end="url(#mermaid-svg-55308_flowchart-v2-pointEnd)"></path></g><g class="edgeLabels"><g class="edgeLabel"><g class="label" data-id="L_User_UI_0" transform="translate(0, 0)"><foreignObject width="0" height="0"><div style="display: table-cell; white-space: nowrap; line-height: 1.5; max-width: 200px; text-align: center;" xmlns="http://www.w3.org/1999/xhtml" class="labelBkg"><span class="edgeLabel "></span></div></foreignObject></g></g><g class="edgeLabel"><g class="label" data-id="L_UI_VM_0" transform="translate(0, 0)"><foreignObject width="0" height="0"><div style="display: table-cell; white-space: nowrap; line-height: 1.5; max-width: 200px; text-align: center;" xmlns="http://www.w3.org/1999/xhtml" class="labelBkg"><span class="edgeLabel "></span></div></foreignObject></g></g><g class="edgeLabel"><g class="label" data-id="L_VM_Auth_0" transform="translate(0, 0)"><foreignObject width="0" height="0"><div style="display: table-cell; white-space: nowrap; line-height: 1.5; max-width: 200px; text-align: center;" xmlns="http://www.w3.org/1999/xhtml" class="labelBkg"><span class="edgeLabel "></span></div></foreignObject></g></g><g class="edgeLabel"><g class="label" data-id="L_VM_Drive_0" transform="translate(0, 0)"><foreignObject width="0" height="0"><div style="display: table-cell; white-space: nowrap; line-height: 1.5; max-width: 200px; text-align: center;" xmlns="http://www.w3.org/1999/xhtml" class="labelBkg"><span class="edgeLabel "></span></div></foreignObject></g></g><g class="edgeLabel"><g class="label" data-id="L_VM_Player_0" transform="translate(0, 0)"><foreignObject width="0" height="0"><div style="display: table-cell; white-space: nowrap; line-height: 1.5; max-width: 200px; text-align: center;" xmlns="http://www.w3.org/1999/xhtml" class="labelBkg"><span class="edgeLabel "></span></div></foreignObject></g></g><g class="edgeLabel"><g class="label" data-id="L_VM_Cache_0" transform="translate(0, 0)"><foreignObject width="0" height="0"><div style="display: table-cell; white-space: nowrap; line-height: 1.5; max-width: 200px; text-align: center;" xmlns="http://www.w3.org/1999/xhtml" class="labelBkg"><span class="edgeLabel "></span></div></foreignObject></g></g><g class="edgeLabel"><g class="label" data-id="L_VM_Playlist_0" transform="translate(0, 0)"><foreignObject width="0" height="0"><div style="display: table-cell; white-space: nowrap; line-height: 1.5; max-width: 200px; text-align: center;" xmlns="http://www.w3.org/1999/xhtml" class="labelBkg"><span class="edgeLabel "></span></div></foreignObject></g></g><g class="edgeLabel"><g class="label" data-id="L_Player_Service_0" transform="translate(0, 0)"><foreignObject width="0" height="0"><div style="display: table-cell; white-space: nowrap; line-height: 1.5; max-width: 200px; text-align: center;" xmlns="http://www.w3.org/1999/xhtml" class="labelBkg"><span class="edgeLabel "></span></div></foreignObject></g></g><g class="edgeLabel"><g class="label" data-id="L_Service_Exo_0" transform="translate(0, 0)"><foreignObject width="0" height="0"><div style="display: table-cell; white-space: nowrap; line-height: 1.5; max-width: 200px; text-align: center;" xmlns="http://www.w3.org/1999/xhtml" class="labelBkg"><span class="edgeLabel "></span></div></foreignObject></g></g><g class="edgeLabel"><g class="label" data-id="L_Exo_Source_0" transform="translate(0, 0)"><foreignObject width="0" height="0"><div style="display: table-cell; white-space: nowrap; line-height: 1.5; max-width: 200px; text-align: center;" xmlns="http://www.w3.org/1999/xhtml" class="labelBkg"><span class="edgeLabel "></span></div></foreignObject></g></g><g class="edgeLabel"><g class="label" data-id="L_Cache_DB_0" transform="translate(0, 0)"><foreignObject width="0" height="0"><div style="display: table-cell; white-space: nowrap; line-height: 1.5; max-width: 200px; text-align: center;" xmlns="http://www.w3.org/1999/xhtml" class="labelBkg"><span class="edgeLabel "></span></div></foreignObject></g></g><g class="edgeLabel"><g class="label" data-id="L_Playlist_DB_0" transform="translate(0, 0)"><foreignObject width="0" height="0"><div style="display: table-cell; white-space: nowrap; line-height: 1.5; max-width: 200px; text-align: center;" xmlns="http://www.w3.org/1999/xhtml" class="labelBkg"><span class="edgeLabel "></span></div></foreignObject></g></g><g class="edgeLabel"><g class="label" data-id="L_Service_DB_0" transform="translate(0, 0)"><foreignObject width="0" height="0"><div style="display: table-cell; white-space: nowrap; line-height: 1.5; max-width: 200px; text-align: center;" xmlns="http://www.w3.org/1999/xhtml" class="labelBkg"><span class="edgeLabel "></span></div></foreignObject></g></g><g class="edgeLabel"><g class="label" data-id="L_Source_GDrive_0" transform="translate(0, 0)"><foreignObject width="0" height="0"><div style="display: table-cell; white-space: nowrap; line-height: 1.5; max-width: 200px; text-align: center;" xmlns="http://www.w3.org/1999/xhtml" class="labelBkg"><span class="edgeLabel "></span></div></foreignObject></g></g><g class="edgeLabel"><g class="label" data-id="L_Drive_GDrive_0" transform="translate(0, 0)"><foreignObject width="0" height="0"><div style="display: table-cell; white-space: nowrap; line-height: 1.5; max-width: 200px; text-align: center;" xmlns="http://www.w3.org/1999/xhtml" class="labelBkg"><span class="edgeLabel "></span></div></foreignObject></g></g></g><g class="nodes"><g class="node default  " id="mermaid-svg-55308-flowchart-User-0" data-look="classic" transform="translate(735.93359375, 25.25)"><g class="basic label-container outer-path"><path d="M-8.34765625 -17.25 C-2.398478851967618 -17.25, 3.5506985460647638 -17.25, 8.34765625 -17.25 C8.34765625 -17.25, 8.347656249999998 -17.25, 8.347656249999998 -17.25 C8.610578806363021 -17.241568585365147, 8.873501362726044 -17.233137170730295, 9.452867544667296 -17.2145580249433 C9.758621899900547 -17.18506227001736, 10.064376255133798 -17.155566515091422, 10.553537289057726 -17.108377738450997 C10.980803912356595 -17.039300584298186, 11.408070535655465 -16.970223430145378, 11.645142595098669 -16.93189545809588 C12.034555266837318 -16.8430145569267, 12.423967938575968 -16.754133655757517, 12.723197822438998 -16.685836387423258 C13.117320200221132 -16.5688629344881, 13.511442578003267 -16.45188948155294, 13.783273010907457 -16.371211635934035 C14.117533889732858 -16.248200542652594, 14.45179476855826 -16.125189449371156, 14.821012084169203 -15.989314064218876 C15.063305030532721 -15.882058164228633, 15.305597976896241 -15.774802264238389, 15.832150749777878 -15.54171297131673 C16.052891434973876 -15.426552697241135, 16.273632120169875 -15.31139242316554, 16.812534022067922 -15.030247646128469 C17.148228462422562 -14.826747703625982, 17.483922902777202 -14.623247761123496, 17.75813329588196 -14.457019809384253 C17.99705503748756 -14.290358345195685, 18.235976779093157 -14.123696881007119, 18.665062900973474 -13.824384977222252 C18.906563706424784 -13.631794511481166, 19.148064511876093 -13.439204045740079, 19.529596069059345 -13.13494278186757 C19.7661124137732 -12.920144895478007, 20.002628758487056 -12.705347009088445, 20.34818024791014 -12.391526289185801 C20.627724324836894 -12.102874078763383, 20.90726840176365 -11.814221868340965, 21.117451699549193 -11.597190357007719 C21.344429881492115 -11.33056886907313, 21.57140806343504 -11.063947381138538, 21.834249322573513 -10.755199082063154 C22.057893802271796 -10.455535853698697, 22.28153828197008 -10.15587262533424, 22.495627641797483 -9.86901238710743 C22.7143212106258 -9.533040337941287, 22.933014779454123 -9.197068288775144, 23.09886891184222 -8.94227180335656 C23.28449376691636 -8.612676076617623, 23.470118621990498 -8.283080349878686, 23.641494284934254 -7.978785506654408 C23.780763062262054 -7.689590910658762, 23.920031839589853 -7.400396314663115, 24.12127399702276 -6.982512668861298 C24.254964180555145 -6.652295330812446, 24.388654364087532 -6.322077992763595, 24.536236530358362 -5.957547188767565 C24.658798311338856 -5.588410632022225, 24.78136009231935 -5.219274075276885, 24.884676714882396 -4.908100869385314 C24.962232747727594 -4.612346103149309, 25.039788780572795 -4.316591336913304, 25.16516273513646 -3.838486110746425 C25.228149666219252 -3.515061531928872, 25.29113659730205 -3.1916369531113187, 25.376542013899265 -2.753098189325798 C25.418169277920782 -2.4302453498079615, 25.4597965419423 -2.107392510290125, 25.51794594837367 -1.6563971969075135 C25.53231323003527 -1.4326151879670184, 25.546680511696877 -1.208833179026523, 25.588793479461867 -0.5528897131110516 C25.588793479461867 -0.21424354039307963, 25.588793479461867 0.12440263232489235, 25.588793479461867 0.5528897131110474 C25.56800902750021 0.8766243293214986, 25.547224575538554 1.2003589455319499, 25.51794594837367 1.6563971969075018 C25.48881053071751 1.8823657428096905, 25.459675113061355 2.1083342887118794, 25.376542013899265 2.753098189325786 C25.296044994818914 3.1664333692523843, 25.215547975738563 3.5797685491789824, 25.16516273513646 3.8384861107464214 C25.058753968640485 4.244268855246689, 24.952345202144514 4.650051599746958, 24.884676714882396 4.908100869385303 C24.75657786908781 5.293914183139227, 24.628479023293224 5.67972749689315, 24.53623653035837 5.9575471887675535 C24.403786641724313 6.284700974438067, 24.271336753090253 6.611854760108581, 24.121273997022765 6.982512668861292 C23.942930793441718 7.3528461470305935, 23.76458758986067 7.723179625199894, 23.641494284934254 7.978785506654404 C23.454215463329653 8.311318018450452, 23.266936641725053 8.643850530246498, 23.098868911842224 8.942271803356554 C22.970132574624575 9.140045387869739, 22.841396237406926 9.337818972382923, 22.49562764179749 9.869012387107421 C22.342384476151455 10.07434426833352, 22.189141310505416 10.27967614955962, 21.834249322573516 10.75519908206315 C21.593430178980782 11.038078951124637, 21.352611035388044 11.320958820186124, 21.1174516995492 11.597190357007708 C20.918493024216236 11.802631524100025, 20.71953434888327 12.008072691192343, 20.348180247910143 12.391526289185798 C20.079961339608943 12.635115605021522, 19.811742431307742 12.878704920857245, 19.529596069059362 13.13494278186756 C19.308266024196012 13.311447602806231, 19.08693597933266 13.487952423744902, 18.66506290097348 13.82438497722225 C18.31411901708913 14.069188238504093, 17.96317513320478 14.313991499785935, 17.758133295881972 14.457019809384246 C17.39917620779888 14.674621705646214, 17.04021911971579 14.892223601908182, 16.81253402206793 15.030247646128467 C16.445847909676665 15.221547556089325, 16.079161797285405 15.41284746605018, 15.832150749777881 15.541712971316729 C15.614940463351234 15.63786552180359, 15.397730176924586 15.734018072290452, 14.821012084169212 15.989314064218874 C14.52167224741224 16.099473891212558, 14.222332410655268 16.20963371820624, 13.783273010907468 16.37121163593403 C13.56060274054849 16.437299003356475, 13.337932470189509 16.503386370778923, 12.723197822439019 16.685836387423254 C12.3326741307745 16.77497087164043, 11.94215043910998 16.86410535585761, 11.645142595098678 16.931895458095877 C11.391361034080928 16.972924892775826, 11.137579473063179 17.013954327455778, 10.553537289057738 17.108377738450994 C10.122862468995 17.149924420380195, 9.692187648932265 17.191471102309396, 9.452867544667297 17.2145580249433 C9.173589013746785 17.223513943847237, 8.894310482826272 17.232469862751177, 8.347656250000004 17.25 C8.347656250000002 17.25, 8.347656250000002 17.25, 8.34765625 17.25 C2.8053977025944636 17.25, -2.7368608448110727 17.25, -8.347656249999996 17.25 C-8.698265187555524 17.23875665379149, -9.048874125111052 17.22751330758298, -9.45286754466729 17.2145580249433 C-9.850822316643447 17.176167806701397, -10.248777088619603 17.137777588459493, -10.553537289057733 17.108377738450994 C-10.869454218124904 17.05730273933179, -11.185371147192074 17.006227740212584, -11.64514259509867 16.931895458095877 C-12.06750721002431 16.835493490925792, -12.489871824949951 16.739091523755704, -12.723197822438998 16.685836387423258 C-12.985354509294503 16.608029658853074, -13.247511196150006 16.530222930282893, -13.783273010907447 16.37121163593404 C-14.091432975143622 16.25780592049564, -14.399592939379797 16.14440020505725, -14.821012084169205 15.989314064218876 C-15.119662900100153 15.857110207167933, -15.418313716031099 15.724906350116992, -15.832150749777874 15.541712971316732 C-16.108997154844456 15.397282379122082, -16.38584355991104 15.252851786927431, -16.812534022067922 15.03024764612847 C-17.066050929988506 14.876564206716294, -17.31956783790909 14.722880767304115, -17.758133295881954 14.457019809384258 C-18.05870006473148 14.24735744276055, -18.359266833581003 14.037695076136838, -18.665062900973474 13.824384977222254 C-18.87575372717474 13.656364650045095, -19.08644455337601 13.488344322867938, -19.529596069059345 13.134942781867572 C-19.83977445786684 12.853246976023048, -20.149952846674342 12.571551170178525, -20.348180247910133 12.391526289185808 C-20.655405554326563 12.07429093664409, -20.962630860742998 11.757055584102371, -21.117451699549193 11.597190357007715 C-21.301127003159113 11.38143489396665, -21.484802306769037 11.165679430925584, -21.834249322573513 10.755199082063156 C-22.094476358827592 10.406518560653394, -22.35470339508167 10.057838039243633, -22.495627641797483 9.869012387107432 C-22.71844935499199 9.526698399632846, -22.9412710681865 9.18438441215826, -23.098868911842214 8.942271803356567 C-23.22539871485714 8.717605325571672, -23.35192851787206 8.492938847786776, -23.64149428493425 7.97878550665441 C-23.75291336085059 7.747421411527811, -23.864332436766933 7.516057316401212, -24.12127399702276 6.9825126688612995 C-24.27557643590274 6.601382661593051, -24.429878874782712 6.220252654324802, -24.536236530358362 5.957547188767567 C-24.623490699147762 5.694751534437756, -24.710744867937162 5.431955880107946, -24.884676714882396 4.90810086938531 C-24.952478254933997 4.649544211795219, -25.020279794985594 4.390987554205129, -25.165162735136455 3.8384861107464276 C-25.21367139955202 3.5894043712823605, -25.262180063967584 3.3403226318182933, -25.376542013899265 2.7530981893258 C-25.42656431066492 2.36513513363115, -25.476586607430576 1.9771720779365007, -25.51794594837367 1.6563971969075233 C-25.540267436680058 1.3087219989544723, -25.562588924986443 0.9610468010014211, -25.588793479461867 0.5528897131110537 C-25.588793479461867 0.1536885002596125, -25.588793479461867 -0.24551271259182872, -25.588793479461867 -0.5528897131110454 C-25.567678012520787 -0.8817801548164734, -25.54656254557971 -1.2106705965219016, -25.51794594837367 -1.6563971969074995 C-25.463221206119954 -2.0808314912046435, -25.40849646386624 -2.5052657855017877, -25.376542013899265 -2.753098189325792 C-25.31350534021077 -3.0767781859105026, -25.25046866652228 -3.400458182495213, -25.16516273513646 -3.8384861107464197 C-25.05628561954622 -4.253681740132396, -24.94740850395598 -4.668877369518371, -24.8846767148824 -4.908100869385301 C-24.790954058178496 -5.190378578700012, -24.697231401474593 -5.472656288014724, -24.536236530358373 -5.957547188767545 C-24.401563566701288 -6.290192012725167, -24.266890603044203 -6.622836836682789, -24.121273997022765 -6.982512668861291 C-23.976750426624058 -7.282618955103235, -23.83222685622535 -7.5827252413451784, -23.641494284934254 -7.978785506654402 C-23.444994017091403 -8.327691630019151, -23.24849374924855 -8.6765977533839, -23.09886891184222 -8.942271803356562 C-22.888031566571485 -9.26617458344685, -22.67719422130075 -9.590077363537137, -22.49562764179749 -9.869012387107427 C-22.29372831368933 -10.139539093365185, -22.091828985581166 -10.410065799622945, -21.83424932257352 -10.75519908206315 C-21.603912768207934 -11.0257655053422, -21.37357621384235 -11.29633192862125, -21.1174516995492 -11.597190357007708 C-20.896501762920618 -11.825339306903878, -20.67555182629204 -12.05348825680005, -20.34818024791015 -12.39152628918579 C-20.15688678115022 -12.565253954349384, -19.96559331439029 -12.738981619512977, -19.529596069059366 -13.134942781867558 C-19.20827660172264 -13.391186506398466, -18.886957134385913 -13.647430230929373, -18.66506290097348 -13.824384977222248 C-18.41789685506649 -13.996797311201286, -18.1707308091595 -14.169209645180322, -17.758133295881976 -14.457019809384244 C-17.456846479467686 -14.63966164805245, -17.155559663053396 -14.822303486720653, -16.81253402206793 -15.030247646128466 C-16.611847418198042 -15.13494571882148, -16.411160814328156 -15.239643791514496, -15.832150749777881 -15.541712971316729 C-15.593004619042372 -15.647575869375421, -15.353858488306862 -15.753438767434114, -14.821012084169212 -15.98931406421887 C-14.551026446464453 -16.0886712746141, -14.281040808759695 -16.188028485009326, -13.78327301090747 -16.37121163593403 C-13.420942151323437 -16.478749533145077, -13.058611291739403 -16.586287430356126, -12.723197822439019 -16.68583638742325 C-12.364195040968227 -16.767776429581872, -12.005192259497434 -16.849716471740496, -11.64514259509868 -16.931895458095877 C-11.281759728194587 -16.990644381940708, -10.918376861290495 -17.049393305785543, -10.55353728905774 -17.108377738450994 C-10.31204973964452 -17.131673751911617, -10.070562190231298 -17.15496976537224, -9.4528675446673 -17.2145580249433 C-9.162853546378708 -17.223858209390414, -8.872839548090116 -17.233158393837527, -8.347656250000005 -17.25 C-8.347656250000004 -17.25, -8.347656250000002 -17.25, -8.34765625 -17.25" stroke="none" stroke-width="0" fill="#F2F1EE" style=""></path><path d="M-8.34765625 -17.25 C-3.5417182286856725 -17.25, 1.264219792628655 -17.25, 8.34765625 -17.25 M-8.34765625 -17.25 C-2.277485144981412 -17.25, 3.7926859600371756 -17.25, 8.34765625 -17.25 M8.34765625 -17.25 C8.34765625 -17.25, 8.347656249999998 -17.25, 8.347656249999998 -17.25 M8.34765625 -17.25 C8.34765625 -17.25, 8.34765625 -17.25, 8.347656249999998 -17.25 M8.347656249999998 -17.25 C8.711438544182032 -17.23833420988486, 9.075220838364068 -17.226668419769723, 9.452867544667296 -17.2145580249433 M8.347656249999998 -17.25 C8.663936674838547 -17.239857502377927, 8.980217099677096 -17.229715004755857, 9.452867544667296 -17.2145580249433 M9.452867544667296 -17.2145580249433 C9.7565642322122 -17.18526077074455, 10.060260919757107 -17.155963516545796, 10.553537289057726 -17.108377738450997 M9.452867544667296 -17.2145580249433 C9.845141389819677 -17.176715838879772, 10.237415234972056 -17.138873652816248, 10.553537289057726 -17.108377738450997 M10.553537289057726 -17.108377738450997 C10.881658584818434 -17.05532963197106, 11.209779880579141 -17.00228152549112, 11.645142595098669 -16.93189545809588 M10.553537289057726 -17.108377738450997 C10.782257606552065 -17.071400011271066, 11.010977924046404 -17.034422284091136, 11.645142595098669 -16.93189545809588 M11.645142595098669 -16.93189545809588 C11.988148571587875 -16.853606582285398, 12.331154548077082 -16.775317706474915, 12.723197822438998 -16.685836387423258 M11.645142595098669 -16.93189545809588 C11.863270677870606 -16.88210914662195, 12.081398760642545 -16.83232283514802, 12.723197822438998 -16.685836387423258 M12.723197822438998 -16.685836387423258 C13.002324123916793 -16.602993166308504, 13.281450425394587 -16.52014994519375, 13.783273010907457 -16.371211635934035 M12.723197822438998 -16.685836387423258 C13.11528189480251 -16.56946789283706, 13.507365967166026 -16.453099398250867, 13.783273010907457 -16.371211635934035 M13.783273010907457 -16.371211635934035 C14.086352410615833 -16.259675615206096, 14.389431810324208 -16.148139594478153, 14.821012084169203 -15.989314064218876 M13.783273010907457 -16.371211635934035 C14.015246346650882 -16.285843304042444, 14.247219682394306 -16.200474972150857, 14.821012084169203 -15.989314064218876 M14.821012084169203 -15.989314064218876 C15.033857069826478 -15.89509390289057, 15.246702055483752 -15.800873741562263, 15.832150749777878 -15.54171297131673 M14.821012084169203 -15.989314064218876 C15.031256428293826 -15.896245129751785, 15.24150077241845 -15.803176195284694, 15.832150749777878 -15.54171297131673 M15.832150749777878 -15.54171297131673 C16.217135114592743 -15.34086687478707, 16.60211947940761 -15.140020778257409, 16.812534022067922 -15.030247646128469 M15.832150749777878 -15.54171297131673 C16.182488446561877 -15.358942019306523, 16.532826143345872 -15.176171067296316, 16.812534022067922 -15.030247646128469 M16.812534022067922 -15.030247646128469 C17.01003007631507 -14.910524377428208, 17.207526130562215 -14.790801108727946, 17.75813329588196 -14.457019809384253 M16.812534022067922 -15.030247646128469 C17.073242236416903 -14.87220479449859, 17.333950450765883 -14.714161942868712, 17.75813329588196 -14.457019809384253 M17.75813329588196 -14.457019809384253 C18.104498856492906 -14.215410188225517, 18.450864417103848 -13.973800567066782, 18.665062900973474 -13.824384977222252 M17.75813329588196 -14.457019809384253 C18.01854581025329 -14.275367312434872, 18.278958324624618 -14.093714815485491, 18.665062900973474 -13.824384977222252 M18.665062900973474 -13.824384977222252 C18.86455984873408 -13.665291470219906, 19.064056796494683 -13.506197963217561, 19.529596069059345 -13.13494278186757 M18.665062900973474 -13.824384977222252 C18.971192946806333 -13.580254412133197, 19.27732299263919 -13.336123847044142, 19.529596069059345 -13.13494278186757 M19.529596069059345 -13.13494278186757 C19.700557208432386 -12.979680398472848, 19.871518347805427 -12.824418015078125, 20.34818024791014 -12.391526289185801 M19.529596069059345 -13.13494278186757 C19.839520997189886 -12.853477162303655, 20.149445925320432 -12.572011542739741, 20.34818024791014 -12.391526289185801 M20.34818024791014 -12.391526289185801 C20.60679856936972 -12.124481639319718, 20.865416890829295 -11.857436989453634, 21.117451699549193 -11.597190357007719 M20.34818024791014 -12.391526289185801 C20.567785911962343 -12.164765411091572, 20.78739157601455 -11.938004532997342, 21.117451699549193 -11.597190357007719 M21.117451699549193 -11.597190357007719 C21.287934970755025 -11.396931005876407, 21.458418241960853 -11.196671654745094, 21.834249322573513 -10.755199082063154 M21.117451699549193 -11.597190357007719 C21.37787204676134 -11.291285798834787, 21.638292393973487 -10.985381240661857, 21.834249322573513 -10.755199082063154 M21.834249322573513 -10.755199082063154 C22.097660180988626 -10.40225252900977, 22.361071039403743 -10.049305975956388, 22.495627641797483 -9.86901238710743 M21.834249322573513 -10.755199082063154 C21.993663070258446 -10.541599183056519, 22.153076817943383 -10.327999284049884, 22.495627641797483 -9.86901238710743 M22.495627641797483 -9.86901238710743 C22.70393194263422 -9.549001043485436, 22.912236243470957 -9.22898969986344, 23.09886891184222 -8.94227180335656 M22.495627641797483 -9.86901238710743 C22.725853000325728 -9.515324412243082, 22.956078358853976 -9.161636437378736, 23.09886891184222 -8.94227180335656 M23.09886891184222 -8.94227180335656 C23.24575829319765 -8.681454832597236, 23.39264767455308 -8.420637861837914, 23.641494284934254 -7.978785506654408 M23.09886891184222 -8.94227180335656 C23.272646423446485 -8.633712234622003, 23.446423935050746 -8.325152665887444, 23.641494284934254 -7.978785506654408 M23.641494284934254 -7.978785506654408 C23.813820940510325 -7.620945519150938, 23.9861475960864 -7.263105531647468, 24.12127399702276 -6.982512668861298 M23.641494284934254 -7.978785506654408 C23.787215989332843 -7.676191269525749, 23.93293769373143 -7.37359703239709, 24.12127399702276 -6.982512668861298 M24.12127399702276 -6.982512668861298 C24.258066709468668 -6.644632024412733, 24.394859421914575 -6.306751379964169, 24.536236530358362 -5.957547188767565 M24.12127399702276 -6.982512668861298 C24.235219252130186 -6.701065685764315, 24.349164507237614 -6.419618702667333, 24.536236530358362 -5.957547188767565 M24.536236530358362 -5.957547188767565 C24.641222480966434 -5.6413462327756845, 24.746208431574505 -5.325145276783805, 24.884676714882396 -4.908100869385314 M24.536236530358362 -5.957547188767565 C24.612510026674357 -5.72782357039508, 24.688783522990352 -5.498099952022597, 24.884676714882396 -4.908100869385314 M24.884676714882396 -4.908100869385314 C24.971078607732547 -4.578613005130455, 25.057480500582695 -4.249125140875596, 25.16516273513646 -3.838486110746425 M24.884676714882396 -4.908100869385314 C24.98454131459686 -4.5272738690827605, 25.084405914311326 -4.146446868780208, 25.16516273513646 -3.838486110746425 M25.16516273513646 -3.838486110746425 C25.236257792267725 -3.47342801832301, 25.307352849398995 -3.1083699258995945, 25.376542013899265 -2.753098189325798 M25.16516273513646 -3.838486110746425 C25.212573718862604 -3.5950407296276317, 25.259984702588746 -3.3515953485088383, 25.376542013899265 -2.753098189325798 M25.376542013899265 -2.753098189325798 C25.42857783622875 -2.349518626973657, 25.48061365855824 -1.9459390646215162, 25.51794594837367 -1.6563971969075135 M25.376542013899265 -2.753098189325798 C25.429829151085784 -2.3398136760425956, 25.483116288272303 -1.9265291627593932, 25.51794594837367 -1.6563971969075135 M25.51794594837367 -1.6563971969075135 C25.545863147629476 -1.2215642841406704, 25.573780346885282 -0.7867313713738271, 25.588793479461867 -0.5528897131110516 M25.51794594837367 -1.6563971969075135 C25.544909220513283 -1.2364224689714736, 25.5718724926529 -0.8164477410354336, 25.588793479461867 -0.5528897131110516 M25.588793479461867 -0.5528897131110516 C25.588793479461867 -0.22685102300283494, 25.588793479461867 0.09918766710538174, 25.588793479461867 0.5528897131110474 M25.588793479461867 -0.5528897131110516 C25.588793479461867 -0.2826618300065639, 25.588793479461867 -0.01243394690207622, 25.588793479461867 0.5528897131110474 M25.588793479461867 0.5528897131110474 C25.571466286920252 0.8227747232047469, 25.55413909437864 1.0926597332984462, 25.51794594837367 1.6563971969075018 M25.588793479461867 0.5528897131110474 C25.568600851939806 0.8674061859627311, 25.54840822441774 1.181922658814415, 25.51794594837367 1.6563971969075018 M25.51794594837367 1.6563971969075018 C25.468320626775842 2.0412813915920807, 25.418695305178016 2.4261655862766593, 25.376542013899265 2.753098189325786 M25.51794594837367 1.6563971969075018 C25.48804894870119 1.8882724225368777, 25.458151949028714 2.1201476481662533, 25.376542013899265 2.753098189325786 M25.376542013899265 2.753098189325786 C25.308595181685234 3.1019908121767696, 25.2406483494712 3.450883435027753, 25.16516273513646 3.8384861107464214 M25.376542013899265 2.753098189325786 C25.318394480562972 3.0516734835221304, 25.26024694722668 3.3502487777184746, 25.16516273513646 3.8384861107464214 M25.16516273513646 3.8384861107464214 C25.081772185719167 4.156490417367295, 24.998381636301872 4.474494723988169, 24.884676714882396 4.908100869385303 M25.16516273513646 3.8384861107464214 C25.09079205651709 4.122093740778089, 25.016421377897714 4.405701370809757, 24.884676714882396 4.908100869385303 M24.884676714882396 4.908100869385303 C24.781146451842773 5.219917526353347, 24.677616188803146 5.531734183321391, 24.53623653035837 5.9575471887675535 M24.884676714882396 4.908100869385303 C24.754508368461984 5.300147189294066, 24.624340022041572 5.692193509202828, 24.53623653035837 5.9575471887675535 M24.53623653035837 5.9575471887675535 C24.420655268851945 6.243035139300089, 24.305074007345524 6.528523089832624, 24.121273997022765 6.982512668861292 M24.53623653035837 5.9575471887675535 C24.395695202708307 6.3046869852449285, 24.255153875058244 6.651826781722303, 24.121273997022765 6.982512668861292 M24.121273997022765 6.982512668861292 C23.982310814394136 7.271072690925429, 23.843347631765507 7.559632712989565, 23.641494284934254 7.978785506654404 M24.121273997022765 6.982512668861292 C23.954861546009926 7.328071684045495, 23.78844909499709 7.673630699229698, 23.641494284934254 7.978785506654404 M23.641494284934254 7.978785506654404 C23.434430645031124 8.346447966769583, 23.227367005128 8.714110426884762, 23.098868911842224 8.942271803356554 M23.641494284934254 7.978785506654404 C23.45372557082519 8.312187872199123, 23.265956856716123 8.645590237743841, 23.098868911842224 8.942271803356554 M23.098868911842224 8.942271803356554 C22.884914398446885 9.270963390763075, 22.67095988505155 9.599654978169594, 22.49562764179749 9.869012387107421 M23.098868911842224 8.942271803356554 C22.97476558123404 9.132927845581133, 22.850662250625852 9.323583887805711, 22.49562764179749 9.869012387107421 M22.49562764179749 9.869012387107421 C22.327872603898395 10.093788855093859, 22.1601175659993 10.318565323080296, 21.834249322573516 10.75519908206315 M22.49562764179749 9.869012387107421 C22.278222215000888 10.16031585297304, 22.060816788204285 10.451619318838661, 21.834249322573516 10.75519908206315 M21.834249322573516 10.75519908206315 C21.688464230857623 10.926446546199355, 21.542679139141732 11.097694010335559, 21.1174516995492 11.597190357007708 M21.834249322573516 10.75519908206315 C21.642185968705487 10.980807626230972, 21.450122614837458 11.206416170398791, 21.1174516995492 11.597190357007708 M21.1174516995492 11.597190357007708 C20.930689172902433 11.790037999259098, 20.743926646255662 11.982885641510487, 20.348180247910143 12.391526289185798 M21.1174516995492 11.597190357007708 C20.938208990365595 11.782273170339884, 20.758966281181994 11.96735598367206, 20.348180247910143 12.391526289185798 M20.348180247910143 12.391526289185798 C20.024679099050147 12.685321473209086, 19.701177950190154 12.979116657232376, 19.529596069059362 13.13494278186756 M20.348180247910143 12.391526289185798 C20.109211042400812 12.608551798850673, 19.87024183689148 12.825577308515548, 19.529596069059362 13.13494278186756 M19.529596069059362 13.13494278186756 C19.243999660638863 13.3626983175433, 18.95840325221836 13.59045385321904, 18.66506290097348 13.82438497722225 M19.529596069059362 13.13494278186756 C19.355987252923818 13.273391192811037, 19.18237843678827 13.411839603754512, 18.66506290097348 13.82438497722225 M18.66506290097348 13.82438497722225 C18.379672675663386 14.023460844054835, 18.094282450353294 14.222536710887418, 17.758133295881972 14.457019809384246 M18.66506290097348 13.82438497722225 C18.378352092521457 14.024382025687522, 18.091641284069432 14.224379074152793, 17.758133295881972 14.457019809384246 M17.758133295881972 14.457019809384246 C17.457961934676693 14.638985452549607, 17.157790573471413 14.820951095714967, 16.81253402206793 15.030247646128467 M17.758133295881972 14.457019809384246 C17.479840957860098 14.625722260120414, 17.201548619838228 14.794424710856582, 16.81253402206793 15.030247646128467 M16.81253402206793 15.030247646128467 C16.453849001059908 15.217373391839631, 16.095163980051886 15.404499137550793, 15.832150749777881 15.541712971316729 M16.81253402206793 15.030247646128467 C16.59678801755961 15.142802198488546, 16.38104201305129 15.255356750848625, 15.832150749777881 15.541712971316729 M15.832150749777881 15.541712971316729 C15.48536406788949 15.695225148327301, 15.138577386001097 15.848737325337874, 14.821012084169212 15.989314064218874 M15.832150749777881 15.541712971316729 C15.581713143699274 15.652574270560097, 15.331275537620668 15.763435569803462, 14.821012084169212 15.989314064218874 M14.821012084169212 15.989314064218874 C14.610810231074984 16.06667028924218, 14.400608377980758 16.144026514265484, 13.783273010907468 16.37121163593403 M14.821012084169212 15.989314064218874 C14.460214491988209 16.122090913317866, 14.099416899807206 16.254867762416854, 13.783273010907468 16.37121163593403 M13.783273010907468 16.37121163593403 C13.533210052927604 16.445429009255204, 13.283147094947738 16.519646382576376, 12.723197822439019 16.685836387423254 M13.783273010907468 16.37121163593403 C13.44985760744308 16.470167577549095, 13.116442203978695 16.569123519164158, 12.723197822439019 16.685836387423254 M12.723197822439019 16.685836387423254 C12.441873873977634 16.750046742849236, 12.16054992551625 16.814257098275217, 11.645142595098678 16.931895458095877 M12.723197822439019 16.685836387423254 C12.431485716484879 16.752417772007895, 12.139773610530739 16.818999156592536, 11.645142595098678 16.931895458095877 M11.645142595098678 16.931895458095877 C11.28814331809479 16.989612332631122, 10.931144041090901 17.04732920716637, 10.553537289057738 17.108377738450994 M11.645142595098678 16.931895458095877 C11.356953251578897 16.978487676214417, 11.068763908059118 17.025079894332958, 10.553537289057738 17.108377738450994 M10.553537289057738 17.108377738450994 C10.314372855620332 17.131449643707388, 10.075208422182929 17.15452154896378, 9.452867544667297 17.2145580249433 M10.553537289057738 17.108377738450994 C10.172363225486686 17.145149141934812, 9.791189161915634 17.181920545418627, 9.452867544667297 17.2145580249433 M9.452867544667297 17.2145580249433 C9.020369896085043 17.22842738272773, 8.587872247502787 17.24229674051216, 8.347656250000004 17.25 M9.452867544667297 17.2145580249433 C9.124643948997308 17.225083516807967, 8.79642035332732 17.23560900867263, 8.347656250000004 17.25 M8.347656250000004 17.25 C8.347656250000002 17.25, 8.347656250000002 17.25, 8.34765625 17.25 M8.347656250000004 17.25 C8.347656250000004 17.25, 8.347656250000002 17.25, 8.34765625 17.25 M8.34765625 17.25 C2.2005844543890003 17.25, -3.9464873412219994 17.25, -8.347656249999996 17.25 M8.34765625 17.25 C3.6851125837184107 17.25, -0.9774310825631787 17.25, -8.347656249999996 17.25 M-8.347656249999996 17.25 C-8.738235716251273 17.237474876734133, -9.128815182502548 17.224949753468266, -9.45286754466729 17.2145580249433 M-8.347656249999996 17.25 C-8.766354804117732 17.23657315231674, -9.185053358235468 17.22314630463348, -9.45286754466729 17.2145580249433 M-9.45286754466729 17.2145580249433 C-9.7091155556499 17.18983808750713, -9.96536356663251 17.16511815007096, -10.553537289057733 17.108377738450994 M-9.45286754466729 17.2145580249433 C-9.851590825060942 17.176093669618627, -10.250314105454596 17.137629314293957, -10.553537289057733 17.108377738450994 M-10.553537289057733 17.108377738450994 C-10.844791056594616 17.061290088022332, -11.1360448241315 17.01420243759367, -11.64514259509867 16.931895458095877 M-10.553537289057733 17.108377738450994 C-10.974655292798772 17.040294645425035, -11.39577329653981 16.97221155239908, -11.64514259509867 16.931895458095877 M-11.64514259509867 16.931895458095877 C-11.947252036662087 16.862940949507376, -12.249361478225504 16.79398644091887, -12.723197822438998 16.685836387423258 M-11.64514259509867 16.931895458095877 C-11.870934871054038 16.880359844541363, -12.096727147009405 16.82882423098685, -12.723197822438998 16.685836387423258 M-12.723197822438998 16.685836387423258 C-13.104353207670353 16.572711469812038, -13.485508592901711 16.459586552200815, -13.783273010907447 16.37121163593404 M-12.723197822438998 16.685836387423258 C-12.98889918102729 16.606977618889147, -13.254600539615582 16.528118850355032, -13.783273010907447 16.37121163593404 M-13.783273010907447 16.37121163593404 C-14.196084545416308 16.219293175246783, -14.60889607992517 16.06737471455953, -14.821012084169205 15.989314064218876 M-13.783273010907447 16.37121163593404 C-14.122471164347713 16.246383579954664, -14.46166931778798 16.121555523975285, -14.821012084169205 15.989314064218876 M-14.821012084169205 15.989314064218876 C-15.15259915958168 15.842530302114886, -15.484186234994153 15.695746540010894, -15.832150749777874 15.541712971316732 M-14.821012084169205 15.989314064218876 C-15.203614397277226 15.819947369700325, -15.586216710385248 15.650580675181775, -15.832150749777874 15.541712971316732 M-15.832150749777874 15.541712971316732 C-16.048264463274155 15.428966585413162, -16.264378176770435 15.316220199509592, -16.812534022067922 15.03024764612847 M-15.832150749777874 15.541712971316732 C-16.097746709497848 15.403151729253153, -16.363342669217822 15.264590487189574, -16.812534022067922 15.03024764612847 M-16.812534022067922 15.03024764612847 C-17.034391628547322 14.895756261300647, -17.25624923502672 14.761264876472822, -17.758133295881954 14.457019809384258 M-16.812534022067922 15.03024764612847 C-17.022634758612163 14.902883344946376, -17.2327354951564 14.775519043764282, -17.758133295881954 14.457019809384258 M-17.758133295881954 14.457019809384258 C-18.079617753817526 14.232766168366288, -18.4011022117531 14.008512527348316, -18.665062900973474 13.824384977222254 M-17.758133295881954 14.457019809384258 C-18.08605106149632 14.228278571422964, -18.413968827110683 13.999537333461667, -18.665062900973474 13.824384977222254 M-18.665062900973474 13.824384977222254 C-18.939784560324448 13.605301764540236, -19.214506219675417 13.386218551858219, -19.529596069059345 13.134942781867572 M-18.665062900973474 13.824384977222254 C-18.978516820994088 13.57441381736494, -19.291970741014705 13.324442657507625, -19.529596069059345 13.134942781867572 M-19.529596069059345 13.134942781867572 C-19.816542961755978 12.874345206119232, -20.103489854452608 12.613747630370892, -20.348180247910133 12.391526289185808 M-19.529596069059345 13.134942781867572 C-19.707726083749446 12.973169815587944, -19.885856098439547 12.811396849308316, -20.348180247910133 12.391526289185808 M-20.348180247910133 12.391526289185808 C-20.608936457015837 12.122274094801258, -20.869692666121544 11.853021900416707, -21.117451699549193 11.597190357007715 M-20.348180247910133 12.391526289185808 C-20.572842824351017 12.159543733870036, -20.797505400791902 11.927561178554264, -21.117451699549193 11.597190357007715 M-21.117451699549193 11.597190357007715 C-21.321025257292494 11.35806127241885, -21.52459881503579 11.118932187829984, -21.834249322573513 10.755199082063156 M-21.117451699549193 11.597190357007715 C-21.299838186428186 11.382948811434547, -21.48222467330718 11.16870726586138, -21.834249322573513 10.755199082063156 M-21.834249322573513 10.755199082063156 C-22.054289353320524 10.460365486921349, -22.27432938406753 10.165531891779544, -22.495627641797483 9.869012387107432 M-21.834249322573513 10.755199082063156 C-22.070812324234588 10.438226211170118, -22.307375325895663 10.12125334027708, -22.495627641797483 9.869012387107432 M-22.495627641797483 9.869012387107432 C-22.624445368513957 9.671113766467915, -22.753263095230427 9.473215145828398, -23.098868911842214 8.942271803356567 M-22.495627641797483 9.869012387107432 C-22.721983824421525 9.521268505451149, -22.948340007045566 9.173524623794863, -23.098868911842214 8.942271803356567 M-23.098868911842214 8.942271803356567 C-23.225648861786617 8.717161164368258, -23.35242881173102 8.49205052537995, -23.64149428493425 7.97878550665441 M-23.098868911842214 8.942271803356567 C-23.21149340181443 8.742295616944629, -23.324117891786646 8.542319430532693, -23.64149428493425 7.97878550665441 M-23.64149428493425 7.97878550665441 C-23.823908959317574 7.599997532248665, -24.006323633700895 7.22120955784292, -24.12127399702276 6.9825126688612995 M-23.64149428493425 7.97878550665441 C-23.805527558404055 7.638166904544555, -23.969560831873864 7.2975483024347, -24.12127399702276 6.9825126688612995 M-24.12127399702276 6.9825126688612995 C-24.27235720430573 6.609334225877266, -24.4234404115887 6.236155782893232, -24.536236530358362 5.957547188767567 M-24.12127399702276 6.9825126688612995 C-24.230565962558295 6.712559400972127, -24.339857928093828 6.442606133082955, -24.536236530358362 5.957547188767567 M-24.536236530358362 5.957547188767567 C-24.636525446803045 5.655492951305042, -24.73681436324773 5.353438713842516, -24.884676714882396 4.90810086938531 M-24.536236530358362 5.957547188767567 C-24.671541735006773 5.550029470323285, -24.806846939655188 5.142511751879002, -24.884676714882396 4.90810086938531 M-24.884676714882396 4.90810086938531 C-24.96905253492546 4.5863392988493725, -25.053428354968524 4.264577728313436, -25.165162735136455 3.8384861107464276 M-24.884676714882396 4.90810086938531 C-24.97404754385284 4.567291164958704, -25.06341837282329 4.2264814605320975, -25.165162735136455 3.8384861107464276 M-25.165162735136455 3.8384861107464276 C-25.244304275023246 3.432111029998146, -25.323445814910034 3.0257359492498646, -25.376542013899265 2.7530981893258 M-25.165162735136455 3.8384861107464276 C-25.21582824828747 3.578329408875974, -25.266493761438483 3.318172707005521, -25.376542013899265 2.7530981893258 M-25.376542013899265 2.7530981893258 C-25.41624754976462 2.445149893899015, -25.45595308562997 2.1372015984722306, -25.51794594837367 1.6563971969075233 M-25.376542013899265 2.7530981893258 C-25.41711562885011 2.43841724393356, -25.457689243800953 2.1237362985413197, -25.51794594837367 1.6563971969075233 M-25.51794594837367 1.6563971969075233 C-25.53543535086799 1.383985635866864, -25.552924753362312 1.1115740748262048, -25.588793479461867 0.5528897131110537 M-25.51794594837367 1.6563971969075233 C-25.539642302595702 1.3184589669174496, -25.561338656817735 0.9805207369273758, -25.588793479461867 0.5528897131110537 M-25.588793479461867 0.5528897131110537 C-25.588793479461867 0.11210846383828554, -25.588793479461867 -0.32867278543448264, -25.588793479461867 -0.5528897131110454 M-25.588793479461867 0.5528897131110537 C-25.588793479461867 0.20015014507971268, -25.588793479461867 -0.15258942295162836, -25.588793479461867 -0.5528897131110454 M-25.588793479461867 -0.5528897131110454 C-25.574352063673185 -0.7778264209207721, -25.559910647884504 -1.002763128730499, -25.51794594837367 -1.6563971969074995 M-25.588793479461867 -0.5528897131110454 C-25.567243193522817 -0.8885528116894702, -25.545692907583767 -1.224215910267895, -25.51794594837367 -1.6563971969074995 M-25.51794594837367 -1.6563971969074995 C-25.463944741645566 -2.0752198925462415, -25.409943534917467 -2.4940425881849833, -25.376542013899265 -2.753098189325792 M-25.51794594837367 -1.6563971969074995 C-25.486290130952373 -1.90191346567888, -25.454634313531074 -2.147429734450261, -25.376542013899265 -2.753098189325792 M-25.376542013899265 -2.753098189325792 C-25.307190532729777 -3.109203387690371, -25.237839051560293 -3.4653085860549497, -25.16516273513646 -3.8384861107464197 M-25.376542013899265 -2.753098189325792 C-25.308591452622714 -3.102009960124671, -25.240640891346164 -3.4509217309235503, -25.16516273513646 -3.8384861107464197 M-25.16516273513646 -3.8384861107464197 C-25.064838960222225 -4.221064145093488, -24.96451518530799 -4.603642179440555, -24.8846767148824 -4.908100869385301 M-25.16516273513646 -3.8384861107464197 C-25.108782988971818 -4.053486518008756, -25.052403242807173 -4.268486925271093, -24.8846767148824 -4.908100869385301 M-24.8846767148824 -4.908100869385301 C-24.76619383853981 -5.264952415246476, -24.64771096219722 -5.621803961107653, -24.536236530358373 -5.957547188767545 M-24.8846767148824 -4.908100869385301 C-24.803577728275076 -5.152358095677799, -24.722478741667754 -5.396615321970297, -24.536236530358373 -5.957547188767545 M-24.536236530358373 -5.957547188767545 C-24.409539032140515 -6.270492458895141, -24.282841533922657 -6.583437729022738, -24.121273997022765 -6.982512668861291 M-24.536236530358373 -5.957547188767545 C-24.41961971349066 -6.245592981063562, -24.303002896622953 -6.53363877335958, -24.121273997022765 -6.982512668861291 M-24.121273997022765 -6.982512668861291 C-24.02326051108867 -7.1860397695560865, -23.92524702515457 -7.389566870250882, -23.641494284934254 -7.978785506654402 M-24.121273997022765 -6.982512668861291 C-23.96399526169677 -7.30910532799156, -23.806716526370774 -7.63569798712183, -23.641494284934254 -7.978785506654402 M-23.641494284934254 -7.978785506654402 C-23.471815043853532 -8.280068181079528, -23.302135802772806 -8.581350855504654, -23.09886891184222 -8.942271803356562 M-23.641494284934254 -7.978785506654402 C-23.427229912843003 -8.359233595922795, -23.212965540751753 -8.739681685191186, -23.09886891184222 -8.942271803356562 M-23.09886891184222 -8.942271803356562 C-22.94698996703824 -9.175598647782628, -22.795111022234252 -9.408925492208695, -22.49562764179749 -9.869012387107427 M-23.09886891184222 -8.942271803356562 C-22.968486865775695 -9.142573638596325, -22.838104819709166 -9.342875473836088, -22.49562764179749 -9.869012387107427 M-22.49562764179749 -9.869012387107427 C-22.279322744559064 -10.158841243625394, -22.063017847320637 -10.44867010014336, -21.83424932257352 -10.75519908206315 M-22.49562764179749 -9.869012387107427 C-22.298724390829662 -10.13284480514913, -22.101821139861833 -10.396677223190833, -21.83424932257352 -10.75519908206315 M-21.83424932257352 -10.75519908206315 C-21.648813514437464 -10.973022533896158, -21.463377706301408 -11.190845985729164, -21.1174516995492 -11.597190357007708 M-21.83424932257352 -10.75519908206315 C-21.555279778131514 -11.082892582781493, -21.276310233689507 -11.410586083499838, -21.1174516995492 -11.597190357007708 M-21.1174516995492 -11.597190357007708 C-20.84481700916647 -11.878708058552238, -20.57218231878374 -12.16022576009677, -20.34818024791015 -12.39152628918579 M-21.1174516995492 -11.597190357007708 C-20.952307949646208 -11.76771483733657, -20.787164199743213 -11.938239317665433, -20.34818024791015 -12.39152628918579 M-20.34818024791015 -12.39152628918579 C-20.09525281334728 -12.621228293162588, -19.842325378784412 -12.850930297139383, -19.529596069059366 -13.134942781867558 M-20.34818024791015 -12.39152628918579 C-20.148563924900017 -12.572812552185107, -19.948947601889884 -12.754098815184426, -19.529596069059366 -13.134942781867558 M-19.529596069059366 -13.134942781867558 C-19.329243905269024 -13.294718300895365, -19.128891741478682 -13.45449381992317, -18.66506290097348 -13.824384977222248 M-19.529596069059366 -13.134942781867558 C-19.26640632417254 -13.34482959964155, -19.003216579285713 -13.554716417415543, -18.66506290097348 -13.824384977222248 M-18.66506290097348 -13.824384977222248 C-18.351535093437693 -14.043088403359175, -18.038007285901905 -14.261791829496099, -17.758133295881976 -14.457019809384244 M-18.66506290097348 -13.824384977222248 C-18.470988065287646 -13.959763181232457, -18.27691322960181 -14.095141385242664, -17.758133295881976 -14.457019809384244 M-17.758133295881976 -14.457019809384244 C-17.469327624293705 -14.632095504711568, -17.180521952705433 -14.80717120003889, -16.81253402206793 -15.030247646128466 M-17.758133295881976 -14.457019809384244 C-17.50639507232541 -14.609624999882243, -17.25465684876885 -14.762230190380242, -16.81253402206793 -15.030247646128466 M-16.81253402206793 -15.030247646128466 C-16.470001134982063 -15.208946833918377, -16.127468247896196 -15.387646021708289, -15.832150749777881 -15.541712971316729 M-16.81253402206793 -15.030247646128466 C-16.54509848876522 -15.169768592551856, -16.27766295546251 -15.309289538975245, -15.832150749777881 -15.541712971316729 M-15.832150749777881 -15.541712971316729 C-15.46620288047813 -15.703707237597879, -15.100255011178382 -15.86570150387903, -14.821012084169212 -15.98931406421887 M-15.832150749777881 -15.541712971316729 C-15.509416152496714 -15.684578003951422, -15.186681555215547 -15.827443036586116, -14.821012084169212 -15.98931406421887 M-14.821012084169212 -15.98931406421887 C-14.602323724761094 -16.069793402014092, -14.383635365352978 -16.150272739809314, -13.78327301090747 -16.37121163593403 M-14.821012084169212 -15.98931406421887 C-14.407805613073771 -16.141377865220743, -13.99459914197833 -16.293441666222613, -13.78327301090747 -16.37121163593403 M-13.78327301090747 -16.37121163593403 C-13.381931366389669 -16.490327729341633, -12.980589721871867 -16.60944382274923, -12.723197822439019 -16.68583638742325 M-13.78327301090747 -16.37121163593403 C-13.41801042305494 -16.479619654706212, -13.052747835202407 -16.588027673478393, -12.723197822439019 -16.68583638742325 M-12.723197822439019 -16.68583638742325 C-12.36052710627394 -16.768613611740335, -11.997856390108861 -16.851390836057416, -11.64514259509868 -16.931895458095877 M-12.723197822439019 -16.68583638742325 C-12.386621083901725 -16.76265783162591, -12.05004434536443 -16.839479275828566, -11.64514259509868 -16.931895458095877 M-11.64514259509868 -16.931895458095877 C-11.352810372519073 -16.979157464772303, -11.060478149939467 -17.02641947144873, -10.55353728905774 -17.108377738450994 M-11.64514259509868 -16.931895458095877 C-11.334435200331955 -16.982128220109928, -11.02372780556523 -17.03236098212398, -10.55353728905774 -17.108377738450994 M-10.55353728905774 -17.108377738450994 C-10.323336398408236 -17.130584941514876, -10.09313550775873 -17.152792144578758, -9.4528675446673 -17.2145580249433 M-10.55353728905774 -17.108377738450994 C-10.121274772904648 -17.150077583512548, -9.689012256751557 -17.1917774285741, -9.4528675446673 -17.2145580249433 M-9.4528675446673 -17.2145580249433 C-9.155826389347315 -17.224083556638877, -8.85878523402733 -17.233609088334457, -8.347656250000005 -17.25 M-9.4528675446673 -17.2145580249433 C-9.012513356070851 -17.228679326674158, -8.572159167474405 -17.242800628405014, -8.347656250000005 -17.25 M-8.347656250000005 -17.25 C-8.347656250000004 -17.25, -8.347656250000002 -17.25, -8.34765625 -17.25 M-8.347656250000005 -17.25 C-8.347656250000004 -17.25, -8.347656250000002 -17.25, -8.34765625 -17.25" stroke="#8A8880" stroke-width="1.3" fill="none" stroke-dasharray="0 0" style=""></path></g><g class="label" style="" transform="translate(-13.78515625, -9.75)"><rect></rect><foreignObject width="27.5703125" height="19.5"><div style="display: table-cell; white-space: nowrap; line-height: 1.5; max-width: 200px; text-align: center;" xmlns="http://www.w3.org/1999/xhtml"><span class="nodeLabel "><p>User</p></span></div></foreignObject></g></g><g class="node default  " id="mermaid-svg-55308-flowchart-UI-1" data-look="classic" transform="translate(735.93359375, 117.25)"><rect class="basic label-container" style="" x="-109.59765625" y="-24.75" width="219.1953125" height="49.5"></rect><g class="label" style="" transform="translate(-79.59765625, -9.75)"><rect></rect><foreignObject width="159.1953125" height="19.5"><div style="display: table-cell; white-space: nowrap; line-height: 1.5; max-width: 200px; text-align: center;" xmlns="http://www.w3.org/1999/xhtml"><span class="nodeLabel "><p>UI Layer: Jetpack Compose</p></span></div></foreignObject></g></g><g class="node default  " id="mermaid-svg-55308-flowchart-VM-3" data-look="classic" transform="translate(735.93359375, 251.5)"><rect class="basic label-container" style="" x="-130" y="-34.5" width="260" height="69"></rect><g class="label" style="" transform="translate(-100, -19.5)"><rect></rect><foreignObject width="200" height="39"><div style="display: table; white-space: break-spaces; line-height: 1.5; max-width: 200px; text-align: center; width: 200px;" xmlns="http://www.w3.org/1999/xhtml"><span class="nodeLabel "><p>ViewModel Layer: MainViewModel, PlayerViewModel</p></span></div></foreignObject></g></g><g class="node default  " id="mermaid-svg-55308-flowchart-Auth-5" data-look="classic" transform="translate(158.74609375, 360.75)"><rect class="basic label-container" style="" x="-115.74609375" y="-24.75" width="231.4921875" height="49.5"></rect><g class="label" style="" transform="translate(-85.74609375, -9.75)"><rect></rect><foreignObject width="171.4921875" height="19.5"><div style="display: table-cell; white-space: nowrap; line-height: 1.5; max-width: 200px; text-align: center;" xmlns="http://www.w3.org/1999/xhtml"><span class="nodeLabel "><p>AuthManager: Google Sign-In</p></span></div></foreignObject></g></g><g class="node default  " id="mermaid-svg-55308-flowchart-Drive-7" data-look="classic" transform="translate(1307.74609375, 360.75)"><rect class="basic label-container" style="" x="-106.91796875" y="-24.75" width="213.8359375" height="49.5"></rect><g class="label" style="" transform="translate(-76.91796875, -9.75)"><rect></rect><foreignObject width="153.8359375" height="19.5"><div style="display: table-cell; white-space: nowrap; line-height: 1.5; max-width: 200px; text-align: center;" xmlns="http://www.w3.org/1999/xhtml"><span class="nodeLabel "><p>DriveRepository: Drive API</p></span></div></foreignObject></g></g><g class="node default  " id="mermaid-svg-55308-flowchart-Player-9" data-look="classic" transform="translate(1023.1484375, 360.75)"><rect class="basic label-container" style="" x="-127.6796875" y="-24.75" width="255.359375" height="49.5"></rect><g class="label" style="" transform="translate(-97.6796875, -9.75)"><rect></rect><foreignObject width="195.359375" height="19.5"><div style="display: table-cell; white-space: nowrap; line-height: 1.5; max-width: 200px; text-align: center;" xmlns="http://www.w3.org/1999/xhtml"><span class="nodeLabel "><p>AtmoCastManager: Media3 Client</p></span></div></foreignObject></g></g><g class="node default  " id="mermaid-svg-55308-flowchart-Cache-11" data-look="classic" transform="translate(450.4453125, 360.75)"><rect class="basic label-container" style="" x="-125.953125" y="-24.75" width="251.90625" height="49.5"></rect><g class="label" style="" transform="translate(-95.953125, -9.75)"><rect></rect><foreignObject width="191.90625" height="19.5"><div style="display: table-cell; white-space: nowrap; line-height: 1.5; max-width: 200px; text-align: center;" xmlns="http://www.w3.org/1999/xhtml"><span class="nodeLabel "><p>FolderCacheRepository: Caching</p></span></div></foreignObject></g></g><g class="node default  " id="mermaid-svg-55308-flowchart-Playlist-13" data-look="classic" transform="translate(735.93359375, 360.75)"><rect class="basic label-container" style="" x="-109.53515625" y="-24.75" width="219.0703125" height="49.5"></rect><g class="label" style="" transform="translate(-79.53515625, -9.75)"><rect></rect><foreignObject width="159.0703125" height="19.5"><div style="display: table-cell; white-space: nowrap; line-height: 1.5; max-width: 200px; text-align: center;" xmlns="http://www.w3.org/1999/xhtml"><span class="nodeLabel "><p>PlaylistRepository: Playlists</p></span></div></foreignObject></g></g><g class="node default  " id="mermaid-svg-55308-flowchart-Service-15" data-look="classic" transform="translate(1023.1484375, 520)"><rect class="basic label-container" style="" x="-130" y="-34.5" width="260" height="69"></rect><g class="label" style="" transform="translate(-100, -19.5)"><rect></rect><foreignObject width="200" height="39"><div style="display: table; white-space: break-spaces; line-height: 1.5; max-width: 200px; text-align: center; width: 200px;" xmlns="http://www.w3.org/1999/xhtml"><span class="nodeLabel "><p>PlaybackService: MediaLibraryService</p></span></div></foreignObject></g></g><g class="node default  " id="mermaid-svg-55308-flowchart-Exo-17" data-look="classic" transform="translate(1033.1484375, 664.1992073059082)"><rect class="basic label-container" style="" x="-59.59375" y="-24.75" width="119.1875" height="49.5"></rect><g class="label" style="" transform="translate(-29.59375, -9.75)"><rect></rect><foreignObject width="59.1875" height="19.5"><div style="display: table-cell; white-space: nowrap; line-height: 1.5; max-width: 200px; text-align: center;" xmlns="http://www.w3.org/1999/xhtml"><span class="nodeLabel "><p>ExoPlayer</p></span></div></foreignObject></g></g><g class="node default  " id="mermaid-svg-55308-flowchart-Source-19" data-look="classic" transform="translate(1033.1484375, 798.6484146118164)"><rect class="basic label-container" style="" x="-122.54296875" y="-24.75" width="245.0859375" height="49.5"></rect><g class="label" style="" transform="translate(-92.54296875, -9.75)"><rect></rect><foreignObject width="185.0859375" height="19.5"><div style="display: table-cell; white-space: nowrap; line-height: 1.5; max-width: 200px; text-align: center;" xmlns="http://www.w3.org/1999/xhtml"><span class="nodeLabel "><p>DriveDataSource: Auth Injection</p></span></div></foreignObject></g></g><g class="node default  " id="mermaid-svg-55308-flowchart-DB-21" data-look="classic" transform="translate(724.392578125, 664.1992073059082)"><path d="M0,11.63280310118968 a54.390625,11.63280310118968 0,0,0 108.78125,0 a54.390625,11.63280310118968 0,0,0 -108.78125,0 l0,46.13280310118968 a54.390625,11.63280310118968 0,0,0 108.78125,0 l0,-46.13280310118968" class="basic label-container outer-path" style="" label-offset-y="11.63280310118968" transform="translate(-54.390625, -34.69920465178452)"></path><g class="label" style="" transform="translate(-46.890625, 0.25)"><rect></rect><foreignObject width="93.78125" height="19.5"><div style="display: table-cell; white-space: nowrap; line-height: 1.5; max-width: 200px; text-align: center;" xmlns="http://www.w3.org/1999/xhtml"><span class="nodeLabel "><p>Room Database</p></span></div></foreignObject></g></g><g class="node default  " id="mermaid-svg-55308-flowchart-GDrive-27" data-look="classic" transform="translate(1171.033203125, 923.1484146118164)"><rect class="basic label-container" style="" x="-79.62890625" y="-24.75" width="159.2578125" height="49.5"></rect><g class="label" style="" transform="translate(-49.62890625, -9.75)"><rect></rect><foreignObject width="99.2578125" height="19.5"><div style="display: table-cell; white-space: nowrap; line-height: 1.5; max-width: 200px; text-align: center;" xmlns="http://www.w3.org/1999/xhtml"><span class="nodeLabel "><p>Google Drive API</p></span></div></foreignObject></g></g></g></g></g><defs><filter id="mermaid-svg-55308-drop-shadow" height="130%" width="130%"><feDropShadow dx="4" dy="4" stdDeviation="0" flood-opacity="0.06" flood-color="#000000"></feDropShadow></filter></defs><defs><filter id="mermaid-svg-55308-drop-shadow-small" height="150%" width="150%"><feDropShadow dx="2" dy="2" stdDeviation="0" flood-opacity="0.06" flood-color="#000000"></feDropShadow></filter></defs><linearGradient id="mermaid-svg-55308-gradient" gradientUnits="objectBoundingBox" x1="0%" y1="0%" x2="100%" y2="0%"><stop offset="0%" stop-color="#8A8880" stop-opacity="1"></stop><stop offset="100%" stop-color="hsl(-75, 0%, 84.1176470588%)" stop-opacity="1"></stop></linearGradient></svg>