<svg width="100%" height="100%" viewBox="0 0 300 300" version="1.1" xmlns="http://www.w3.org/2000/svg" xmlns:xlink="http://www.w3.org/1999/xlink" xml:space="preserve" xmlns:serif="http://www.serif.com/" style="fill-rule:evenodd;clip-rule:evenodd;stroke-linejoin:round;stroke-miterlimit:2;">
    <g transform="matrix(0.82244,0,0,0.82244,-285.044,-224.486)">
        <path d="M423.951,333.952C426.544,330.642 472.462,304.587 476.264,305.33C486.868,307.404 528.312,329.856 540.786,335.513C545,337.424 563.224,346.252 565.154,347.688C579.928,354.642 594.617,361.776 609.218,369.088C613.842,371.373 627.73,377.896 630.827,380.47L631.191,381.048C634.247,382.707 635.88,385.219 636.871,388.539C637.008,388.988 637.129,389.441 637.234,389.899C638.205,394.799 638.494,396.649 635.355,400.967C624.485,415.922 612.927,430.406 601.691,445.09C599.092,448.486 595.745,453.1 592.809,456.102L591.451,457.847C590.803,459.754 590.775,458.822 591.649,460.734C599.506,465.706 611.106,470.909 619.801,474.603C623.422,476.492 624.235,476.997 626.203,480.545C627.726,483.105 628.282,485.237 627.601,488.246C627.219,489.921 626.53,491.511 625.569,492.935C622.255,497.753 616.729,504.172 612.916,508.848L591.751,534.925L568.941,563.21C564.901,568.289 554.597,582.641 549.538,584.709C539.663,588.745 522.335,601.332 512.882,604.17C508.753,607.821 501.906,602.24 499.847,598.225C495.15,589.063 490.731,579.82 486.271,570.538L461.314,518.641L438.856,472.237C434.534,463.284 429.733,453.623 426.288,444.315C425.269,441.564 425.809,438.809 426.551,436.066C427.665,433.518 428.609,432.105 430.077,429.794C433.274,425.988 447.737,418.513 453.082,415.375C451.061,410.727 447.125,403.551 444.722,398.808L428.889,367.386C425.962,361.546 422.437,354.93 420.341,348.755C419.66,346.75 420.294,343.234 420.638,341.067C421.777,337.746 422.178,336.964 423.951,333.952Z" style="fill:rgb(247,155,197);fill-rule:nonzero;"/>
    </g>
    <g transform="matrix(0.82244,0,0,0.82244,-285.044,-224.486)">
        <path d="M423.951,333.952C426.544,330.642 472.462,304.587 476.264,305.33C486.868,307.404 528.312,329.856 540.786,335.513C545,337.424 563.224,346.252 565.154,347.688C579.928,354.642 594.617,361.776 609.218,369.088C613.842,371.373 627.73,377.896 630.827,380.47L631.191,381.048C634.247,382.707 635.88,385.219 636.871,388.539C637.008,388.988 637.129,389.441 637.234,389.899C632.317,395.111 595.884,414.463 586.938,419.038C585.114,419.971 582.597,420.186 580.529,420.263L576.318,419.319C575.997,417.138 575.959,417.052 576.929,415.157L575.465,414.869C563.636,408.776 551.161,402.947 539.175,397.028L470.47,362.983L441.328,348.726C437.516,346.862 425.669,341.944 424.356,338.722C424.651,336.636 425.048,336.388 426.408,334.649L426.058,334.029L423.951,333.952Z" style="fill:rgb(105,42,59);fill-rule:nonzero;"/>
    </g>
    <g transform="matrix(0.82244,0,0,0.82244,-285.044,-224.486)">
        <path d="M426.408,334.649C429.99,334.85 459.096,350.019 464.506,352.716L526.501,383.459C541.094,390.684 562.164,400.615 576.939,408.798C577.775,409.262 577.712,410.377 577.782,411.197C576.858,413.176 576.857,413.196 575.465,414.869C563.636,408.776 551.161,402.947 539.175,397.028L470.47,362.983L441.328,348.726C437.516,346.862 425.669,341.944 424.356,338.722C424.651,336.636 425.048,336.388 426.408,334.649Z" style="fill:white;fill-rule:nonzero;"/>
    </g>
    <g transform="matrix(0.82244,0,0,0.82244,-285.044,-224.486)">
        <path d="M631.191,381.048C634.247,382.707 635.88,385.219 636.871,388.539C637.008,388.988 637.129,389.441 637.234,389.899C632.317,395.111 595.884,414.463 586.938,419.038C585.114,419.971 582.597,420.186 580.529,420.263L576.318,419.319C575.997,417.138 575.959,417.052 576.929,415.157C579.394,413.376 580.385,409.731 581.518,406.837C583.285,406.18 589.898,402.237 592.082,400.986L616.464,386.797C621.374,383.944 625.37,380.892 631.191,381.048Z" style="fill:rgb(41,13,18);fill-rule:nonzero;"/>
    </g>
    <g transform="matrix(0.82244,0,0,0.82244,-285.044,-224.486)">
        <path d="M631.096,385.367C632.333,385.937 631.765,385.618 632.679,386.984C632.582,387.332 632.484,387.68 632.387,388.028C620.96,395.478 597.947,407.077 587.358,414.141C586.133,412.794 585.945,413.053 585.8,411.586C588.949,409.113 595.295,405.92 598.919,403.785C609.536,397.53 620.581,391.767 631.096,385.367Z" style="fill:rgb(229,132,172);fill-rule:nonzero;"/>
    </g>
    <g transform="matrix(0.82244,0,0,0.82244,-285.044,-224.486)">
        <path d="M423.951,333.952C426.544,330.642 472.462,304.587 476.264,305.33C486.868,307.404 528.312,329.856 540.786,335.513C545,337.424 563.224,346.252 565.154,347.688C579.928,354.642 594.617,361.776 609.218,369.088C613.842,371.373 627.73,377.896 630.827,380.47C623.82,380.983 605.775,369.574 598.584,366.642C593.303,364.489 586.676,360.571 581.233,358.116C576.909,356.165 570.949,353.274 566.929,350.863C565.219,350.591 553.007,344.287 550.542,343.077L505.523,321.029C501.44,319.029 479.65,307.523 476.517,308.54C460.941,313.595 442.242,329.883 426.768,333.853L426.058,334.029L423.951,333.952Z" style="fill:rgb(247,155,197);fill-rule:nonzero;"/>
    </g>
    <g transform="matrix(0.82244,0,0,0.82244,-285.044,-224.486)">
        <path d="M580.529,420.263C582.597,420.186 585.114,419.971 586.938,419.038C595.884,414.463 632.317,395.111 637.234,389.899C638.205,394.799 638.494,396.649 635.355,400.967C624.485,415.922 612.927,430.406 601.691,445.09C599.092,448.486 595.745,453.1 592.809,456.102L591.451,457.847C590.803,459.754 590.775,458.822 591.649,460.734C599.506,465.706 611.106,470.909 619.801,474.603C623.422,476.492 624.235,476.997 626.203,480.545C626.019,482.184 625.945,485.3 624.494,486.18C610.653,494.576 596.47,503.027 581.948,510.186C578.445,511.913 574.716,511.986 570.987,511.39C565.288,510.323 535.947,496.488 532.541,491.917C531.317,489.543 533.104,486.74 534.094,484.408C535.459,484.874 535.083,484.857 536.47,484.927C538.797,485.274 537.904,484.765 539.436,486.113C539.776,485.956 540.366,485.241 540.672,484.918C541.199,482.839 555.019,466.243 557.447,462.114C558.109,461.502 558.694,460.261 559.174,459.415C559.006,457.236 558.794,457.59 557.426,455.484C563.223,447.519 569.647,440.159 575.941,432.592C577.596,430.603 579.38,428.708 580.674,426.467C581.728,423.518 582.78,422.523 580.529,420.263Z" style="fill:rgb(41,13,18);fill-rule:nonzero;"/>
    </g>
    <g transform="matrix(0.82244,0,0,0.82244,-285.044,-224.486)">
        <path d="M591.649,460.734C599.506,465.706 611.106,470.909 619.801,474.603C623.422,476.492 624.235,476.997 626.203,480.545C626.019,482.184 625.945,485.3 624.494,486.18C610.653,494.576 596.47,503.027 581.948,510.186C578.445,511.913 574.716,511.986 570.987,511.39C565.288,510.323 535.947,496.488 532.541,491.917C531.317,489.543 533.104,486.74 534.094,484.408C535.459,484.874 535.083,484.857 536.47,484.927C538.797,485.274 537.904,484.765 539.436,486.113C539.776,485.956 540.366,485.241 540.672,484.918L541.477,485.253C550.176,488.911 567.559,499.119 576.945,498.918C578.691,495.125 593.3,490.754 595.439,486.065L595.17,484.935C597.871,481.511 593.037,465.38 591.649,460.734Z" style="fill:url(#_Linear1);fill-rule:nonzero;"/>
    </g>
    <g transform="matrix(0.82244,0,0,0.82244,-285.044,-224.486)">
        <path d="M591.649,460.734C599.506,465.706 611.106,470.909 619.801,474.603C612.048,477.048 604.488,482.33 597.846,486.902L596.253,485.147L595.439,486.065L595.17,484.935C597.871,481.511 593.037,465.38 591.649,460.734Z" style="fill:rgb(105,42,59);fill-rule:nonzero;"/>
    </g>
    <g transform="matrix(0.82244,0,0,0.82244,-285.044,-224.486)">
        <path d="M595.439,486.065L596.253,485.147L597.846,486.902C593.668,490.901 583.579,496.941 578.299,499.702C577.15,499.507 577.585,499.795 576.945,498.918C578.691,495.125 593.3,490.754 595.439,486.065Z" style="fill:rgb(177,55,96);fill-rule:nonzero;"/>
    </g>
    <g transform="matrix(0.82244,0,0,0.82244,-285.044,-224.486)">
        <path d="M532.541,491.917C531.317,489.543 533.104,486.74 534.094,484.408C535.459,484.874 535.083,484.857 536.47,484.927C538.797,485.274 537.904,484.765 539.436,486.113C534.742,487.448 534.49,487.471 532.541,491.917Z" style="fill:rgb(229,132,172);fill-rule:nonzero;"/>
    </g>
    <g transform="matrix(0.82244,0,0,0.82244,-285.044,-224.486)">
        <path d="M620.719,478.014C621.632,479.073 622.39,480.354 622.357,481.763C620.343,483.519 613.263,486.78 610.597,488.37C601.158,493.996 589.191,499.801 580.401,506.039C579.767,504.807 578.731,503.132 578.013,501.895C590.907,495.455 607.993,485.284 620.719,478.014Z" style="fill:rgb(191,84,128);fill-rule:nonzero;"/>
    </g>
    <g transform="matrix(0.82244,0,0,0.82244,-285.044,-224.486)">
        <path d="M538.57,488.96L539.12,488.969C544.841,489.035 568.705,498.145 570.941,502.697C571.079,504.48 570.481,505.18 569.625,506.764C565.866,506.012 539.144,493.323 537.75,490.54L538.57,488.96Z" style="fill:white;fill-rule:nonzero;"/>
    </g>
    <g transform="matrix(0.82244,0,0,0.82244,-285.044,-224.486)">
        <path d="M580.529,420.263C582.597,420.186 585.114,419.971 586.938,419.038C595.884,414.463 632.317,395.111 637.234,389.899C638.205,394.799 638.494,396.649 635.355,400.967C624.485,415.922 612.927,430.406 601.691,445.09C599.092,448.486 595.745,453.1 592.809,456.102L591.451,457.847C591.289,450.725 586.312,439.774 586.348,434.917L585.505,433.531C581.908,437.636 572.587,448.399 568.826,451.308C573.771,443.517 582.446,432.631 588.714,425.889C585.916,426.156 583.493,426.347 580.674,426.467C581.728,423.518 582.78,422.523 580.529,420.263Z" style="fill:rgb(229,132,172);fill-rule:nonzero;"/>
    </g>
    <g transform="matrix(0.82244,0,0,0.82244,-285.044,-224.486)">
        <path d="M586.348,434.917C587.224,436.484 587.265,436.718 588.554,438.028C590.689,437.337 588.825,436.354 590.403,437.032C591.297,441.882 592.756,451.26 592.809,456.102L591.451,457.847C591.289,450.725 586.312,439.774 586.348,434.917Z" style="fill:rgb(177,55,96);fill-rule:nonzero;"/>
    </g>
    <g transform="matrix(0.82244,0,0,0.82244,-285.044,-224.486)">
        <path d="M585.505,433.531L589.13,429.946C589.742,432.508 590.307,434.383 590.403,437.032C588.825,436.354 590.689,437.337 588.554,438.028C587.265,436.718 587.224,436.484 586.348,434.917L585.505,433.531Z" style="fill:rgb(191,84,128);fill-rule:nonzero;"/>
    </g>
    <g transform="matrix(0.82244,0,0,0.82244,-285.044,-224.486)">
        <path d="M626.203,480.545C627.726,483.105 628.282,485.237 627.601,488.246C627.219,489.921 626.53,491.511 625.569,492.935C622.255,497.753 616.729,504.172 612.916,508.848L591.751,534.925L568.941,563.21C564.901,568.289 554.597,582.641 549.538,584.709C539.663,588.745 522.335,601.332 512.882,604.17L512.524,603.918C508.3,604.2 502.391,603.569 501.342,598.673C510.085,591.496 517.716,579.991 525.133,570.927C537.341,556.008 549.218,540.366 561.45,525.438C563.538,522.89 570.158,512.054 570.987,511.39C574.716,511.986 578.445,511.913 581.948,510.186C596.47,503.027 610.653,494.576 624.494,486.18C625.945,485.3 626.019,482.184 626.203,480.545Z" style="fill:rgb(229,132,172);fill-rule:nonzero;"/>
    </g>
    <g transform="matrix(0.82244,0,0,0.82244,-285.044,-224.486)">
        <path d="M423.951,333.952L426.058,334.029L426.408,334.649C425.048,336.388 424.651,336.636 424.356,338.722C425.669,341.944 437.516,346.862 441.328,348.726L470.47,362.983L539.175,397.028C551.161,402.947 563.636,408.776 575.465,414.869L576.929,415.157C575.959,417.052 575.997,417.138 576.318,419.319C571.618,417.956 557.873,411.204 553.19,408.926L511.761,388.489L458.961,362.433C450.765,358.411 425.462,347.271 420.638,341.067C421.777,337.746 422.178,336.964 423.951,333.952Z" style="fill:rgb(105,42,59);fill-rule:nonzero;"/>
    </g>
    <g transform="matrix(0.82244,0,0,0.82244,-285.044,-224.486)">
        <path d="M432.3,430.228L433.991,429.723C443.821,431.571 452.338,437.744 461.447,441.688C462.846,442.294 466.507,444.048 467.93,444.325C469.9,446.571 472.805,454.388 473.082,457.545L472.699,458.428L472.066,458.363L471.085,456.837L470.603,457.064L469.828,455.42C462.333,451.954 454.876,448.406 447.459,444.776C444.021,443.117 431.578,438.124 430.665,434.558C431.191,432.622 431.442,432.467 432.74,430.853L432.3,430.228Z" style="fill:white;fill-rule:nonzero;"/>
    </g>
    <g transform="matrix(0.82244,0,0,0.82244,-285.044,-224.486)">
        <path d="M432.3,430.228L433.991,429.723C443.821,431.571 452.338,437.744 461.447,441.688C462.846,442.294 466.507,444.048 467.93,444.325C469.9,446.571 472.805,454.388 473.082,457.545L472.699,458.428L472.066,458.363L471.085,456.837L470.603,457.064L469.828,455.42C470.127,453.544 470.595,451.966 469.953,450.217C468.062,448.437 436.202,432.212 432.74,430.853L432.3,430.228Z" style="fill:rgb(229,132,172);fill-rule:nonzero;"/>
    </g>
    <g transform="matrix(0.82244,0,0,0.82244,-285.044,-224.486)">
        <path d="M433.991,429.723C440.005,427.31 449.659,422.185 454.837,418.354C459.277,426.973 463.641,435.63 467.93,444.325C466.507,444.048 462.846,442.294 461.447,441.688C452.338,437.744 443.821,431.571 433.991,429.723Z" style="fill:rgb(105,42,59);fill-rule:nonzero;"/>
    </g>
    <g transform="matrix(0.82244,0,0,0.82244,-285.044,-224.486)">
        <path d="M430.077,429.794L432.3,430.228L432.74,430.853C431.442,432.467 431.191,432.622 430.665,434.558C431.578,438.124 444.021,443.117 447.459,444.776C454.876,448.406 462.333,451.954 469.828,455.42L470.603,457.064C469.938,457.956 469.781,458.086 468.952,458.841C466.824,458.325 459.895,455.307 457.931,454.112C450.719,449.728 430.435,442.905 426.551,436.066C427.665,433.518 428.609,432.105 430.077,429.794Z" style="fill:rgb(105,42,59);fill-rule:nonzero;"/>
    </g>
    <g transform="matrix(0.82244,0,0,0.82244,-285.044,-224.486)">
        <path d="M557.426,455.484C558.794,457.59 559.006,457.236 559.174,459.415C558.694,460.261 558.109,461.502 557.447,462.114C555.019,466.243 541.199,482.839 540.672,484.918C540.366,485.241 539.776,485.956 539.436,486.113C537.904,484.765 538.797,485.274 536.47,484.927C535.083,484.857 535.459,484.874 534.094,484.408C541.335,475.024 550.705,464.822 557.426,455.484Z" style="fill:rgb(177,55,96);fill-rule:nonzero;"/>
    </g>
    <g transform="matrix(0.82244,0,0,0.82244,-285.044,-224.486)">
        <path d="M536.47,484.927C540.963,480.328 552.636,462.536 557.447,462.114C555.019,466.243 541.199,482.839 540.672,484.918C540.366,485.241 539.776,485.956 539.436,486.113C537.904,484.765 538.797,485.274 536.47,484.927Z" style="fill:rgb(229,132,172);fill-rule:nonzero;"/>
    </g>
    <defs>
        <linearGradient id="_Linear1" x1="0" y1="0" x2="1" y2="0" gradientUnits="userSpaceOnUse" gradientTransform="matrix(-40.1186,-42.367,42.367,-40.1186,599.808,507.488)"><stop offset="0" style="stop-color:rgb(35,8,16);stop-opacity:1"/><stop offset="1" style="stop-color:rgb(88,24,36);stop-opacity:1"/></linearGradient>
    </defs>
</svg>